{
DisplayStrings = (
B
);
copyright = "Font data copyright Google 2014";
date = "2008-09-12 12:29:34 +0000";
designer = Google;
designerURL = "Christian Robertson";
familyName = "Roboto";
featurePrefixes = (
{
automatic = 1;
code = "languagesystem DFLT dflt;\012languagesystem cyrl dflt;\012languagesystem grek dflt;\012languagesystem latn dflt;\012languagesystem latn ROM;\012languagesystem latn MOL;\012languagesystem latn CAT;\012";
name = Languagesystems;
}
);
features = (
{
automatic = 1;
code = "feature locl;\012feature frac;\012feature ordn;\012feature smcp;\012";
name = aalt;
},
{
automatic = 1;
code = "script latn;\012language ROM;\012sub Scedilla by Scommaaccent;\012sub scedilla by scommaaccent;\012sub Tcedilla by Tcommaaccent;\012sub tcedilla by tcommaaccent;\012language MOL;\012sub Scedilla by Scommaaccent;\012sub scedilla by scommaaccent;\012sub Tcedilla by Tcommaaccent;\012sub tcedilla by tcommaaccent;\012language CAT;\012sub  l' periodcentered' l by ldot;\012sub  L' periodcentered' L by Ldot;\012";
name = locl;
},
{
automatic = 1;
code = "sub one slash eight by oneeighth;\012sub one slash four by onequarter;\012sub three slash eight by threeeighths;\012sub one slash two by onehalf;\012sub five slash eight by fiveeighths;\012sub three slash four by threequarters;\012sub seven slash eight by seveneighths;\012";
name = frac;
},
{
automatic = 1;
code = "sub [zero one two three four five six seven eight nine] [A a]' by ordfeminine;\012sub [zero one two three four five six seven eight nine] [O o]' by ordmasculine;\012";
name = ordn;
},
{
automatic = 1;
code = "sub germandbls by germandbls.smcp;\012sub zero by zero.smcp;\012sub one by one.smcp;\012sub two by two.smcp;\012sub three by three.smcp;\012sub four by four.smcp;\012sub five by five.smcp;\012sub six by six.smcp;\012sub seven by seven.smcp;\012sub eight by eight.smcp;\012sub nine by nine.smcp;\012";
name = smcp;
},
{
automatic = 1;

glyphs = (
{
glyphname = A;
lastChange = "2016-12-03 22:32:44 +0000";
layers = (
{
background = {
paths = (
{
closed = 1;
nodes = (
"973 380 LINE",
"363 380 LINE",
"226 0 LINE",
"28 0 LINE",
"584 1456 LINE",
"752 1456 LINE",
"1309 0 LINE",
"1112 0 LINE"
);
},
{
closed = 1;
nodes = (
"421 538 LINE",
"916 538 LINE",
"668 1219 LINE"
);
},
{
closed = 1;
nodes = (
"0 606 LINE",
"1336 606 LINE",
"1336 750 LINE",
"0 750 LINE"
);
}
);
};
layerId = "41219E28-2757-4AEA-BAE1-DB5F37EB0A1D";
name = Regular;
paths = (
{
closed = 1;
nodes = (
"973 380 LINE",
"363 380 LINE",
"226 0 LINE",
"28 0 LINE",
"584 1456 LINE",
"752 1456 LINE",
"1309 0 LINE",
"1112 0 LINE"
);
},
{
closed = 1;
nodes = (
"421 538 LINE",
"916 538 LINE",
"668 1219 LINE"
);
},
{
closed = 1;
nodes = (
"0 606 LINE",
"260 606 LINE",
"314 750 LINE",
"0 750 LINE"
);
},
{
closed = 1;
nodes = (
"1077 606 LINE",
"1336 606 LINE",
"1336 750 LINE",
"1022 750 LINE"
);
},
{
closed = 1;
nodes = (
"446 606 LINE",
"890 606 LINE",
"838 750 LINE",
"498 750 LINE"
);
}
);
width = 1336;
}
);
leftKerningGroup = A;
unicode = 0041;
},
{
glyphname = Aacute;
lastChange = "2016-12-03 22:33:24 +0000";
layers = (
{
layerId = "41219E28-2757-4AEA-BAE1-DB5F37EB0A1D";
name = Regular;
paths = (
{
closed = 1;
nodes = (
"973 380 LINE",
"363 380 LINE",
"226 0 LINE",
"28 0 LINE",
"584 1456 LINE",
"752 1456 LINE",
"1309 0 LINE",
"1112 0 LINE"
);
},
{
closed = 1;
nodes = (
"421 538 LINE",
"916 538 LINE",
"668 1219 LINE"
);
},
{
closed = 1;
nodes = (
"763 1844 LINE",
"987 1844 LINE",
"719 1550 LINE",
"570 1550 LINE"
);
},
{
closed = 1;
nodes = (
"0 606 LINE",
"260 606 LINE",
"314 750 LINE",
"0 750 LINE"
);
},
{
closed = 1;
nodes = (
"1077 606 LINE",
"1336 606 LINE",
"1336 750 LINE",
"1022 750 LINE"
);
},
{
closed = 1;
nodes = (
"446 606 LINE",
"890 606 LINE",
"838 750 LINE",
"498 750 LINE"
);
}
);
width = 1336;
}
);
leftKerningGroup = A;
unicode = 00C1;
},
{
glyphname = Abreve;
lastChange = "2016-12-03 22:33:28 +0000";
layers = (
{
layerId = "41219E28-2757-4AEA-BAE1-DB5F37EB0A1D";
name = Regular;
paths = (
{
closed = 1;
nodes = (
"973 380 LINE",
"363 380 LINE",
"226 0 LINE",
"28 0 LINE",
"584 1456 LINE",
"752 1456 LINE",
"1309 0 LINE",
"1112 0 LINE"
);
},
{
closed = 1;
nodes = (
"421 538 LINE",
"916 538 LINE",
"668 1219 LINE"
);
},
{
closed = 1;
nodes = (
"972 1806 LINE",
"972 1727 OFFCURVE",
"944 1661 OFFCURVE",
"892 1614 CURVE SMOOTH",
"840 1566 OFFCURVE",
"765 1538 OFFCURVE",
"673 1538 CURVE SMOOTH",
"581 1538 OFFCURVE",
"506 1566 OFFCURVE",
"454 1614 CURVE SMOOTH",
"402 1661 OFFCURVE",
"373 1727 OFFCURVE",
"373 1806 CURVE",
"524 1806 LINE",
"524 1766 OFFCURVE",
"534 1729 OFFCURVE",
"558 1702 CURVE",
"581 1674 OFFCURVE",
"618 1657 OFFCURVE",
"673 1657 CURVE SMOOTH",
"726 1657 OFFCURVE",
"764 1674 OFFCURVE",
"788 1702 CURVE SMOOTH",
"812 1729 OFFCURVE",
"822 1766 OFFCURVE",
"822 1806 CURVE"
);
},
{
closed = 1;
nodes = (
"0 606 LINE",
"260 606 LINE",
"314 750 LINE",
"0 750 LINE"
);
},
{
closed = 1;
nodes = (
"1077 606 LINE",
"1336 606 LINE",
"1336 750 LINE",
"1022 750 LINE"
);
},
{
closed = 1;
nodes = (
"446 606 LINE",
"890 606 LINE",
"838 750 LINE",
"498 750 LINE"
);
}
);
width = 1336;
}
);
leftKerningGroup = A;
unicode = 0102;
},
{
glyphname = Abreveacute;
lastChange = "2016-12-03 22:33:32 +0000";
layers = (
{
layerId = "41219E28-2757-4AEA-BAE1-DB5F37EB0A1D";
name = Regular;
paths = (
{
closed = 1;
nodes = (
"973 380 LINE",
"363 380 LINE",
"226 0 LINE",
"28 0 LINE",
"584 1456 LINE",
"752 1456 LINE",
"1309 0 LINE",
"1112 0 LINE"
);
},
{
closed = 1;
nodes = (
"421 538 LINE",
"916 538 LINE",
"668 1219 LINE"
);
},
{
closed = 1;
nodes = (
"970 1784 LINE",
"970 1723 OFFCURVE",
"941 1670 OFFCURVE",
"889 1634 CURVE SMOOTH",
"836 1597 OFFCURVE",
"760 1575 OFFCURVE",
"667 1575 CURVE SMOOTH",
"572 1575 OFFCURVE",
"497 1597 OFFCURVE",
"445 1634 CURVE SMOOTH",
"392 1670 OFFCURVE",
"363 1723 OFFCURVE",
"363 1784 CURVE",
"515 1784 LINE",
"515 1753 OFFCURVE",
"525 1724 OFFCURVE",
"549 1703 CURVE SMOOTH",
"573 1682 OFFCURVE",
"611 1668 OFFCURVE",
"667 1668 CURVE SMOOTH",
"720 1668 OFFCURVE",
"758 1682 OFFCURVE",
"782 1703 CURVE SMOOTH",
"806 1724 OFFCURVE",
"817 1753 OFFCURVE",
"817 1784 CURVE"
);
},
{
closed = 1;
nodes = (
"721 2002 LINE",
"874 2002 LINE",
"710 1804 LINE",
"608 1804 LINE"
);
},
{
closed = 1;
nodes = (
"0 606 LINE",
"260 606 LINE",
"314 750 LINE",
"0 750 LINE"
);
},
{
closed = 1;
nodes = (
"1077 606 LINE",
"1336 606 LINE",
"1336 750 LINE",
"1022 750 LINE"
);
},
{
closed = 1;
nodes = (
"446 606 LINE",
"890 606 LINE",
"838 750 LINE",
"498 750 LINE"
);
}
);
width = 1336;
}
);
leftKerningGroup = A;
unicode = 1EAE;
},
{
glyphname = Abrevedotbelow;
lastChange = "2016-12-03 22:33:36 +0000";
layers = (
{
layerId = "41219E28-2757-4AEA-BAE1-DB5F37EB0A1D";
name = Regular;
paths = (
{
closed = 1;
nodes = (
"973 380 LINE",
"363 380 LINE",
"226 0 LINE",
"28 0 LINE",
"584 1456 LINE",
"752 1456 LINE",
"1309 0 LINE",
"1112 0 LINE"
);
},
{
closed = 1;
nodes = (
"421 538 LINE",
"916 538 LINE",
"668 1219 LINE"
);
},
{
closed = 1;
nodes = (
"972 1806 LINE",
"972 1727 OFFCURVE",
"944 1661 OFFCURVE",
"892 1614 CURVE SMOOTH",
"840 1566 OFFCURVE",
"765 1538 OFFCURVE",
"673 1538 CURVE SMOOTH",
"581 1538 OFFCURVE",
"506 1566 OFFCURVE",
"454 1614 CURVE SMOOTH",
"402 1661 OFFCURVE",
"373 1727 OFFCURVE",
"373 1806 CURVE",
"524 1806 LINE",
"524 1766 OFFCURVE",
"534 1729 OFFCURVE",
"558 1702 CURVE",
"581 1674 OFFCURVE",
"618 1657 OFFCURVE",
"673 1657 CURVE SMOOTH",
"726 1657 OFFCURVE",
"764 1674 OFFCURVE",
"788 1702 CURVE SMOOTH",
"812 1729 OFFCURVE",
"822 1766 OFFCURVE",
"822 1806 CURVE"
);
},
{
closed = 1;
nodes = (
"570 -185 OFFCURVE",
"607 -138 OFFCURVE",
"679 -138 CURVE SMOOTH",
"751 -138 OFFCURVE",
"789 -185 OFFCURVE",
"789 -245 CURVE SMOOTH",
"789 -305 OFFCURVE",
"751 -350 OFFCURVE",
"679 -350 CURVE SMOOTH",
"607 -350 OFFCURVE",
"570 -305 OFFCURVE",
"570 -245 CURVE SMOOTH"
);
},
{
closed = 1;
nodes = (
"0 606 LINE",
"260 606 LINE",
"314 750 LINE",
"0 750 LINE"
);
},
{
closed = 1;
nodes = (
"1077 606 LINE",
"1336 606 LINE",
"1336 750 LINE",
"1022 750 LINE"
);
},
{
closed = 1;
nodes = (
"446 606 LINE",
"890 606 LINE",
"838 750 LINE",
"498 750 LINE"
);
}
);
width = 1336;
}
);
leftKerningGroup = A;
unicode = 1EB6;
},
{
glyphname = Abrevegrave;
lastChange = "2016-12-03 22:33:40 +0000";
layers = (
{
layerId = "41219E28-2757-4AEA-BAE1-DB5F37EB0A1D";
name = Regular;
paths = (
{
closed = 1;
nodes = (
"973 380 LINE",
"363 380 LINE",
"226 0 LINE",
"28 0 LINE",
"584 1456 LINE",
"752 1456 LINE",
"1309 0 LINE",
"1112 0 LINE"
);
},
{
closed = 1;
nodes = (
"421 538 LINE",
"916 538 LINE",
"668 1219 LINE"
);
},
{
closed = 1;
nodes = (
"1005 1802 LINE",
"1005 1723 OFFCURVE",
"973 1658 OFFCURVE",
"914 1611 CURVE SMOOTH",
"855 1563 OFFCURVE",
"771 1536 OFFCURVE",
"667 1536 CURVE SMOOTH",
"563 1536 OFFCURVE",
"479 1563 OFFCURVE",
"420 1611 CURVE SMOOTH",
"361 1658 OFFCURVE",
"329 1723 OFFCURVE",
"329 1802 CURVE",
"479 1802 LINE",
"479 1762 OFFCURVE",
"492 1726 OFFCURVE",
"522 1699 CURVE SMOOTH",
"552 1671 OFFCURVE",
"598 1654 OFFCURVE",
"667 1654 CURVE SMOOTH",
"735 1654 OFFCURVE",
"782 1671 OFFCURVE",
"812 1699 CURVE SMOOTH",
"842 1726 OFFCURVE",
"854 1762 OFFCURVE",
"854 1802 CURVE"
);
},
{
closed = 1;
nodes = (
"751 1797 LINE",
"600 1797 LINE",
"390 2003 LINE",
"606 2003 LINE"
);
},
{
closed = 1;
nodes = (
"0 606 LINE",
"260 606 LINE",
"314 750 LINE",
"0 750 LINE"
);
},
{
closed = 1;
nodes = (
"1077 606 LINE",
"1336 606 LINE",
"1336 750 LINE",
"1022 750 LINE"
);
},
{
closed = 1;
nodes = (
"446 606 LINE",
"890 606 LINE",
"838 750 LINE",
"498 750 LINE"
);
}
);
width = 1336;
}
);
leftKerningGroup = A;
unicode = 1EB0;
},
{
glyphname = Abrevehookabove;
lastChange = "2016-12-03 22:33:43 +0000";
layers = (
{
layerId = "41219E28-2757-4AEA-BAE1-DB5F37EB0A1D";
name = Regular;
paths = (
{
closed = 1;
nodes = (
"973 380 LINE",
"363 380 LINE",
"226 0 LINE",
"28 0 LINE",
"584 1456 LINE",
"752 1456 LINE",
"1309 0 LINE",
"1112 0 LINE"
);
},
{
closed = 1;
nodes = (
"421 538 LINE",
"916 538 LINE",
"668 1219 LINE"
);
},
{
closed = 1;
nodes = (
"952 1773 LINE",
"952 1712 OFFCURVE",
"925 1660 OFFCURVE",
"874 1624 CURVE SMOOTH",
"823 1587 OFFCURVE",
"751 1565 OFFCURVE",
"660 1565 CURVE SMOOTH",
"569 1565 OFFCURVE",
"497 1587 OFFCURVE",
"446 1624 CURVE SMOOTH",
"395 1660 OFFCURVE",
"367 1712 OFFCURVE",
"367 1773 CURVE",
"513 1773 LINE",
"513 1742 OFFCURVE",
"523 1713 OFFCURVE",
"547 1692 CURVE SMOOTH",
"570 1671 OFFCURVE",
"607 1658 OFFCURVE",
"660 1658 CURVE SMOOTH",
"712 1658 OFFCURVE",
"749 1672 OFFCURVE",
"772 1693 CURVE SMOOTH",
"795 1713 OFFCURVE",
"805 1742 OFFCURVE",
"805 1773 CURVE"
);
},
{
closed = 1;
nodes = (
"604 1790 LINE",
"603 1914 LINE",
"652 1917 OFFCURVE",
"688 1922 OFFCURVE",
"710 1930 CURVE SMOOTH",
"732 1938 OFFCURVE",
"743 1952 OFFCURVE",
"743 1971 CURVE SMOOTH",
"743 1992 OFFCURVE",
"725 2008 OFFCURVE",
"696 2017 CURVE SMOOTH",
"667 2026 OFFCURVE",
"627 2030 OFFCURVE",
"583 2030 CURVE",
"590 2112 LINE",
"782 2112 OFFCURVE",
"882 2056 OFFCURVE",
"882 1968 CURVE SMOOTH",
"882 1929 OFFCURVE",
"864 1903 OFFCURVE",
"836 1885 CURVE SMOOTH",
"808 1867 OFFCURVE",
"770 1856 OFFCURVE",
"733 1852 CURVE",
"732 1790 LINE"
);
},
{
closed = 1;
nodes = (
"0 606 LINE",
"260 606 LINE",
"314 750 LINE",
"0 750 LINE"
);
},
{
closed = 1;
nodes = (
"1077 606 LINE",
"1336 606 LINE",
"1336 750 LINE",
"1022 750 LINE"
);
},
{
closed = 1;
nodes = (
"446 606 LINE",
"890 606 LINE",
"838 750 LINE",
"498 750 LINE"
);
}
);
width = 1336;
}
);
leftKerningGroup = A;
unicode = 1EB2;
},
{
glyphname = Abrevetilde;
lastChange = "2016-12-03 22:33:53 +0000";
layers = (
{
layerId = "41219E28-2757-4AEA-BAE1-DB5F37EB0A1D";
name = Regular;
paths = (
{
closed = 1;
nodes = (
"973 380 LINE",
"363 380 LINE",
"226 0 LINE",
"28 0 LINE",
"584 1456 LINE",
"752 1456 LINE",
"1309 0 LINE",
"1112 0 LINE"
);
},
{
closed = 1;
nodes = (
"421 538 LINE",
"916 538 LINE",
"668 1219 LINE"
);
},
{
closed = 1;
nodes = (
"960 1779 LINE",
"960 1716 OFFCURVE",
"932 1664 OFFCURVE",
"881 1626 CURVE SMOOTH",
"829 1588 OFFCURVE",
"756 1566 OFFCURVE",
"665 1566 CURVE SMOOTH",
"574 1566 OFFCURVE",
"500 1588 OFFCURVE",
"449 1626 CURVE SMOOTH",
"397 1664 OFFCURVE",
"369 1716 OFFCURVE",
"369 1779 CURVE",
"519 1779 LINE",
"519 1748 OFFCURVE",
"529 1719 OFFCURVE",
"552 1697 CURVE SMOOTH",
"575 1675 OFFCURVE",
"612 1661 OFFCURVE",
"665 1661 CURVE SMOOTH",
"717 1661 OFFCURVE",
"754 1675 OFFCURVE",
"777 1697 CURVE SMOOTH",
"800 1719 OFFCURVE",
"810 1748 OFFCURVE",
"810 1779 CURVE"
);
},
{
closed = 1;
nodes = (
"951 2045 LINE",
"951 1997 OFFCURVE",
"933 1952 OFFCURVE",
"904 1920 CURVE SMOOTH",
"875 1887 OFFCURVE",
"833 1866 OFFCURVE",
"785 1866 CURVE SMOOTH",
"730 1866 OFFCURVE",
"698 1884 OFFCURVE",
"667 1904 CURVE SMOOTH",
"636 1923 OFFCURVE",
"608 1941 OFFCURVE",
"564 1941 CURVE SMOOTH",
"519 1941 OFFCURVE",
"482 1903 OFFCURVE",
"482 1852 CURVE",
"399 1873 LINE",
"399 1921 OFFCURVE",
"416 1966 OFFCURVE",
"445 2000 CURVE SMOOTH",
"474 2034 OFFCURVE",
"516 2055 OFFCURVE",
"564 2055 CURVE SMOOTH",
"609 2055 OFFCURVE",
"644 2037 OFFCURVE",
"677 2018 CURVE SMOOTH",
"710 1998 OFFCURVE",
"742 1980 OFFCURVE",
"785 1980 CURVE SMOOTH",
"808 1980 OFFCURVE",
"828 1989 OFFCURVE",
"844 2005 CURVE SMOOTH",
"859 2021 OFFCURVE",
"868 2044 OFFCURVE",
"868 2069 CURVE"
);
},
{
closed = 1;
nodes = (
"0 606 LINE",
"260 606 LINE",
"314 750 LINE",
"0 750 LINE"
);
},
{
closed = 1;
nodes = (
"1077 606 LINE",
"1336 606 LINE",
"1336 750 LINE",
"1022 750 LINE"
);
},
{
closed = 1;
nodes = (
"446 606 LINE",
"890 606 LINE",
"838 750 LINE",
"498 750 LINE"
);
}
);
width = 1336;
}
);
leftKerningGroup = A;
unicode = 1EB4;
},
{
glyphname = Acircumflex;
lastChange = "2016-12-03 22:33:59 +0000";
layers = (
{
layerId = "41219E28-2757-4AEA-BAE1-DB5F37EB0A1D";
name = Regular;
paths = (
{
closed = 1;
nodes = (
"973 380 LINE",
"363 380 LINE",
"226 0 LINE",
"28 0 LINE",
"584 1456 LINE",
"752 1456 LINE",
"1309 0 LINE",
"1112 0 LINE"
);
},
{
closed = 1;
nodes = (
"421 538 LINE",
"916 538 LINE",
"668 1219 LINE"
);
},
{
closed = 1;
nodes = (
"975 1572 LINE",
"975 1562 LINE",
"822 1562 LINE",
"672 1732 LINE",
"523 1562 LINE",
"370 1562 LINE",
"370 1574 LINE",
"616 1846 LINE",
"728 1846 LINE"
);
},
{
closed = 1;
nodes = (
"1 606 LINE",
"261 606 LINE",
"315 750 LINE",
"1 750 LINE"
);
},
{
closed = 1;
nodes = (
"1078 606 LINE",
"1337 606 LINE",
"1337 750 LINE",
"1023 750 LINE"
);
},
{
closed = 1;
nodes = (
"447 606 LINE",
"891 606 LINE",
"839 750 LINE",
"499 750 LINE"
);
}
);
width = 1336;
}
);
leftKerningGroup = A;
unicode = 00C2;
},
{
glyphname = Acircumflexacute;
lastChange = "2016-12-03 22:34:24 +0000";
layers = (
{
layerId = "41219E28-2757-4AEA-BAE1-DB5F37EB0A1D";
name = Regular;
paths = (
{
closed = 1;
nodes = (
"973 380 LINE",
"363 380 LINE",
"226 0 LINE",
"28 0 LINE",
"584 1456 LINE",
"752 1456 LINE",
"1309 0 LINE",
"1112 0 LINE"
);
},
{
closed = 1;
nodes = (
"421 538 LINE",
"916 538 LINE",
"668 1219 LINE"
);
},
{
closed = 1;
nodes = (
"597 1779 LINE",
"749 1779 LINE",
"1039 1517 LINE",
"842 1517 LINE",
"673 1675 LINE",
"503 1517 LINE",
"305 1517 LINE"
);
},
{
closed = 1;
nodes = (
"1107 1950 LINE",
"1307 1950 LINE",
"1106 1691 LINE",
"965 1691 LINE"
);
},
{
closed = 1;
nodes = (
"0 606 LINE",
"260 606 LINE",
"314 750 LINE",
"0 750 LINE"
);
},
{
closed = 1;
nodes = (
"1077 606 LINE",
"1336 606 LINE",
"1336 750 LINE",
"1022 750 LINE"
);
},
{
closed = 1;
nodes = (
"446 606 LINE",
"890 606 LINE",
"838 750 LINE",
"498 750 LINE"
);
}
);
width = 1336;
}
);
leftKerningGroup = A;
unicode = 1EA4;
},
{
glyphname = Acircumflexdotbelow;
lastChange = "2016-12-03 22:34:27 +0000";
layers = (
{
layerId = "41219E28-2757-4AEA-BAE1-DB5F37EB0A1D";
name = Regular;
paths = (
{
closed = 1;
nodes = (
"973 380 LINE",
"363 380 LINE",
"226 0 LINE",
"28 0 LINE",
"584 1456 LINE",
"752 1456 LINE",
"1309 0 LINE",
"1112 0 LINE"
);
},
{
closed = 1;
nodes = (
"421 538 LINE",
"916 538 LINE",
"668 1219 LINE"
);
},
{
closed = 1;
nodes = (
"975 1572 LINE",
"975 1562 LINE",
"822 1562 LINE",
"672 1732 LINE",
"523 1562 LINE",
"370 1562 LINE",
"370 1574 LINE",
"616 1846 LINE",
"728 1846 LINE"
);
},
{
closed = 1;
nodes = (
"570 -185 OFFCURVE",
"607 -138 OFFCURVE",
"679 -138 CURVE SMOOTH",
"751 -138 OFFCURVE",
"789 -185 OFFCURVE",
"789 -245 CURVE SMOOTH",
"789 -305 OFFCURVE",
"751 -350 OFFCURVE",
"679 -350 CURVE SMOOTH",
"607 -350 OFFCURVE",
"570 -305 OFFCURVE",
"570 -245 CURVE SMOOTH"
);
},
{
closed = 1;
nodes = (
"0 606 LINE",
"260 606 LINE",
"314 750 LINE",
"0 750 LINE"
);
},
{
closed = 1;
nodes = (
"1077 606 LINE",
"1336 606 LINE",
"1336 750 LINE",
"1022 750 LINE"
);
},
{
closed = 1;
nodes = (
"446 606 LINE",
"890 606 LINE",
"838 750 LINE",
"498 750 LINE"
);
}
);
width = 1336;
}
);
leftKerningGroup = A;
unicode = 1EAC;
},
{
glyphname = Acircumflexgrave;
lastChange = "2016-12-03 22:34:30 +0000";
layers = (
{
layerId = "41219E28-2757-4AEA-BAE1-DB5F37EB0A1D";
name = Regular;
paths = (
{
closed = 1;
nodes = (
"973 380 LINE",
"363 380 LINE",
"226 0 LINE",
"28 0 LINE",
"584 1456 LINE",
"752 1456 LINE",
"1309 0 LINE",
"1112 0 LINE"
);
},
{
closed = 1;
nodes = (
"421 538 LINE",
"916 538 LINE",
"668 1219 LINE"
);
},
{
closed = 1;
nodes = (
"1037 1513 LINE",
"840 1513 LINE",
"670 1671 LINE",
"500 1513 LINE",
"304 1513 LINE",
"594 1776 LINE",
"746 1776 LINE"
);
},
{
closed = 1;
nodes = (
"377 1688 LINE",
"237 1688 LINE",
"37 1946 LINE",
"236 1946 LINE"
);
},
{
closed = 1;
nodes = (
"0 606 LINE",
"260 606 LINE",
"314 750 LINE",
"0 750 LINE"
);
},
{
closed = 1;
nodes = (
"1077 606 LINE",
"1336 606 LINE",
"1336 750 LINE",
"1022 750 LINE"
);
},
{
closed = 1;
nodes = (
"446 606 LINE",
"890 606 LINE",
"838 750 LINE",
"498 750 LINE"
);
}
);
width = 1336;
}
);
leftKerningGroup = A;
unicode = 1EA6;
},
{
glyphname = Acircumflexhookabove;
lastChange = "2016-12-03 22:34:34 +0000";
layers = (
{
layerId = "41219E28-2757-4AEA-BAE1-DB5F37EB0A1D";
name = Regular;
paths = (
{
closed = 1;
nodes = (
"973 380 LINE",
"363 380 LINE",
"226 0 LINE",
"28 0 LINE",
"584 1456 LINE",
"752 1456 LINE",
"1309 0 LINE",
"1112 0 LINE"
);
},
{
closed = 1;
nodes = (
"421 538 LINE",
"916 538 LINE",
"668 1219 LINE"
);
},
{
closed = 1;
nodes = (
"1038 1508 LINE",
"868 1508 LINE",
"671 1694 LINE",
"474 1508 LINE",
"305 1508 LINE",
"577 1770 LINE",
"765 1770 LINE"
);
},
{
closed = 1;
nodes = (
"955 1646 LINE",
"954 1777 LINE",
"997 1780 OFFCURVE",
"1029 1785 OFFCURVE",
"1049 1794 CURVE SMOOTH",
"1068 1803 OFFCURVE",
"1078 1818 OFFCURVE",
"1078 1840 CURVE SMOOTH",
"1078 1864 OFFCURVE",
"1062 1881 OFFCURVE",
"1037 1892 CURVE SMOOTH",
"1012 1903 OFFCURVE",
"976 1907 OFFCURVE",
"937 1907 CURVE",
"942 1999 LINE",
"1113 1999 OFFCURVE",
"1204 1935 OFFCURVE",
"1204 1838 CURVE SMOOTH",
"1204 1794 OFFCURVE",
"1188 1763 OFFCURVE",
"1163 1743 CURVE SMOOTH",
"1138 1722 OFFCURVE",
"1105 1710 OFFCURVE",
"1070 1706 CURVE",
"1069 1646 LINE"
);
},
{
closed = 1;
nodes = (
"0 606 LINE",
"260 606 LINE",
"314 750 LINE",
"0 750 LINE"
);
},
{
closed = 1;
nodes = (
"1077 606 LINE",
"1336 606 LINE",
"1336 750 LINE",
"1022 750 LINE"
);
},
{
closed = 1;
nodes = (
"446 606 LINE",
"890 606 LINE",
"838 750 LINE",
"498 750 LINE"
);
}
);
width = 1336;
}
);
leftKerningGroup = A;
unicode = 1EA8;
},
{
glyphname = Acircumflextilde;
lastChange = "2016-12-03 22:34:38 +0000";
layers = (
{
layerId = "41219E28-2757-4AEA-BAE1-DB5F37EB0A1D";
name = Regular;
paths = (
{
closed = 1;
nodes = (
"973 380 LINE",
"363 380 LINE",
"226 0 LINE",
"28 0 LINE",
"584 1456 LINE",
"752 1456 LINE",
"1309 0 LINE",
"1112 0 LINE"
);
},
{
closed = 1;
nodes = (
"421 538 LINE",
"916 538 LINE",
"668 1219 LINE"
);
},
{
closed = 1;
nodes = (
"1037 1514 LINE",
"867 1514 LINE",
"670 1672 LINE",
"473 1514 LINE",
"304 1514 LINE",
"605 1758 LINE",
"736 1758 LINE"
);
},
{
closed = 1;
nodes = (
"931 1987 LINE",
"931 1947 OFFCURVE",
"913 1908 OFFCURVE",
"884 1879 CURVE SMOOTH",
"855 1850 OFFCURVE",
"814 1831 OFFCURVE",
"770 1831 CURVE SMOOTH",
"719 1831 OFFCURVE",
"689 1849 OFFCURVE",
"661 1867 CURVE SMOOTH",
"633 1885 OFFCURVE",
"607 1902 OFFCURVE",
"566 1902 CURVE SMOOTH",
"546 1902 OFFCURVE",
"525 1893 OFFCURVE",
"509 1879 CURVE SMOOTH",
"493 1865 OFFCURVE",
"483 1846 OFFCURVE",
"483 1827 CURVE",
"406 1846 LINE",
"406 1886 OFFCURVE",
"424 1927 OFFCURVE",
"453 1957 CURVE SMOOTH",
"481 1987 OFFCURVE",
"522 2007 OFFCURVE",
"566 2007 CURVE SMOOTH",
"607 2007 OFFCURVE",
"639 1989 OFFCURVE",
"670 1972 CURVE SMOOTH",
"701 1955 OFFCURVE",
"731 1937 OFFCURVE",
"770 1937 CURVE SMOOTH",
"790 1937 OFFCURVE",
"811 1946 OFFCURVE",
"827 1960 CURVE SMOOTH",
"843 1974 OFFCURVE",
"853 1991 OFFCURVE",
"853 2010 CURVE"
);
},
{
closed = 1;
nodes = (
"0 606 LINE",
"260 606 LINE",
"314 750 LINE",
"0 750 LINE"
);
},
{
closed = 1;
nodes = (
"1077 606 LINE",
"1336 606 LINE",
"1336 750 LINE",
"1022 750 LINE"
);
},
{
closed = 1;
nodes = (
"446 606 LINE",
"890 606 LINE",
"838 750 LINE",
"498 750 LINE"
);
}
);
width = 1336;
}
);
leftKerningGroup = A;
unicode = 1EAA;
},
{
glyphname = Adieresis;
lastChange = "2016-12-03 22:34:42 +0000";
layers = (
{
layerId = "41219E28-2757-4AEA-BAE1-DB5F37EB0A1D";
name = Regular;
paths = (
{
closed = 1;
nodes = (
"973 380 LINE",
"363 380 LINE",
"226 0 LINE",
"28 0 LINE",
"584 1456 LINE",
"752 1456 LINE",
"1309 0 LINE",
"1112 0 LINE"
);
},
{
closed = 1;
nodes = (
"421 538 LINE",
"916 538 LINE",
"668 1219 LINE"
);
},
{
closed = 1;
nodes = (
"351 1741 OFFCURVE",
"388 1787 OFFCURVE",
"460 1787 CURVE SMOOTH",
"532 1787 OFFCURVE",
"570 1741 OFFCURVE",
"570 1681 CURVE SMOOTH",
"570 1621 OFFCURVE",
"532 1576 OFFCURVE",
"460 1576 CURVE SMOOTH",
"388 1576 OFFCURVE",
"351 1621 OFFCURVE",
"351 1681 CURVE SMOOTH"
);
},
{
closed = 1;
nodes = (
"781 1739 OFFCURVE",
"818 1786 OFFCURVE",
"890 1786 CURVE SMOOTH",
"962 1786 OFFCURVE",
"1000 1739 OFFCURVE",
"1000 1679 CURVE SMOOTH",
"1000 1619 OFFCURVE",
"962 1574 OFFCURVE",
"890 1574 CURVE SMOOTH",
"818 1574 OFFCURVE",
"781 1619 OFFCURVE",
"781 1679 CURVE SMOOTH"
);
},
{
closed = 1;
nodes = (
"0 606 LINE",
"260 606 LINE",
"314 750 LINE",
"0 750 LINE"
);
},
{
closed = 1;
nodes = (
"1077 606 LINE",
"1336 606 LINE",
"1336 750 LINE",
"1022 750 LINE"
);
},
{
closed = 1;
nodes = (
"446 606 LINE",
"890 606 LINE",
"838 750 LINE",
"498 750 LINE"
);
}
);
width = 1336;
}
);
leftKerningGroup = A;
unicode = 00C4;
},
{
glyphname = Adotbelow;
lastChange = "2016-12-03 22:34:47 +0000";
layers = (
{
layerId = "41219E28-2757-4AEA-BAE1-DB5F37EB0A1D";
name = Regular;
paths = (
{
closed = 1;
nodes = (
"973 380 LINE",
"363 380 LINE",
"226 0 LINE",
"28 0 LINE",
"584 1456 LINE",
"752 1456 LINE",
"1309 0 LINE",
"1112 0 LINE"
);
},
{
closed = 1;
nodes = (
"421 538 LINE",
"916 538 LINE",
"668 1219 LINE"
);
},
{
closed = 1;
nodes = (
"570 -185 OFFCURVE",
"607 -138 OFFCURVE",
"679 -138 CURVE SMOOTH",
"751 -138 OFFCURVE",
"789 -185 OFFCURVE",
"789 -245 CURVE SMOOTH",
"789 -305 OFFCURVE",
"751 -350 OFFCURVE",
"679 -350 CURVE SMOOTH",
"607 -350 OFFCURVE",
"570 -305 OFFCURVE",
"570 -245 CURVE SMOOTH"
);
},
{
closed = 1;
nodes = (
"0 606 LINE",
"260 606 LINE",
"314 750 LINE",
"0 750 LINE"
);
},
{
closed = 1;
nodes = (
"1077 606 LINE",
"1336 606 LINE",
"1336 750 LINE",
"1022 750 LINE"
);
},
{
closed = 1;
nodes = (
"446 606 LINE",
"890 606 LINE",
"838 750 LINE",
"498 750 LINE"
);
}
);
width = 1336;
}
);
leftKerningGroup = A;
unicode = 1EA0;
},
{
glyphname = Agrave;
lastChange = "2016-12-03 22:34:53 +0000";
layers = (
{
layerId = "41219E28-2757-4AEA-BAE1-DB5F37EB0A1D";
name = Regular;
paths = (
{
closed = 1;
nodes = (
"973 380 LINE",
"363 380 LINE",
"226 0 LINE",
"28 0 LINE",
"584 1456 LINE",
"752 1456 LINE",
"1309 0 LINE",
"1112 0 LINE"
);
},
{
closed = 1;
nodes = (
"421 538 LINE",
"916 538 LINE",
"668 1219 LINE"
);
},
{
closed = 1;
nodes = (
"778 1550 LINE",
"619 1550 LINE",
"361 1844 LINE",
"584 1844 LINE"
);
},
{
closed = 1;
nodes = (
"0 606 LINE",
"260 606 LINE",
"314 750 LINE",
"0 750 LINE"
);
},
{
closed = 1;
nodes = (
"1077 606 LINE",
"1336 606 LINE",
"1336 750 LINE",
"1022 750 LINE"
);
},
{
closed = 1;
nodes = (
"446 606 LINE",
"890 606 LINE",
"838 750 LINE",
"498 750 LINE"
);
}
);
width = 1336;
}
);
leftKerningGroup = A;
unicode = 00C0;
},
{
glyphname = Ahookabove;
lastChange = "2016-12-03 22:34:56 +0000";
layers = (
{
layerId = "41219E28-2757-4AEA-BAE1-DB5F37EB0A1D";
name = Regular;
paths = (
{
closed = 1;
nodes = (
"973 380 LINE",
"363 380 LINE",
"226 0 LINE",
"28 0 LINE",
"584 1456 LINE",
"752 1456 LINE",
"1309 0 LINE",
"1112 0 LINE"
);
},
{
closed = 1;
nodes = (
"421 538 LINE",
"916 538 LINE",
"668 1219 LINE"
);
},
{
closed = 1;
nodes = (
"610 1567 LINE",
"609 1720 LINE",
"659 1723 OFFCURVE",
"696 1730 OFFCURVE",
"719 1740 CURVE SMOOTH",
"742 1750 OFFCURVE",
"754 1768 OFFCURVE",
"754 1794 CURVE SMOOTH",
"754 1822 OFFCURVE",
"736 1842 OFFCURVE",
"706 1854 CURVE SMOOTH",
"676 1866 OFFCURVE",
"633 1872 OFFCURVE",
"588 1872 CURVE",
"595 1978 LINE",
"794 1978 OFFCURVE",
"898 1903 OFFCURVE",
"898 1790 CURVE SMOOTH",
"898 1739 OFFCURVE",
"878 1704 OFFCURVE",
"850 1680 CURVE SMOOTH",
"821 1656 OFFCURVE",
"782 1643 OFFCURVE",
"743 1638 CURVE",
"742 1567 LINE"
);
},
{
closed = 1;
nodes = (
"0 606 LINE",
"260 606 LINE",
"314 750 LINE",
"0 750 LINE"
);
},
{
closed = 1;
nodes = (
"1077 606 LINE",
"1336 606 LINE",
"1336 750 LINE",
"1022 750 LINE"
);
},
{
closed = 1;
nodes = (
"446 606 LINE",
"890 606 LINE",
"838 750 LINE",
"498 750 LINE"
);
}
);
width = 1336;
}
);
leftKerningGroup = A;
unicode = 1EA2;
},
{
glyphname = Amacron;
lastChange = "2016-12-03 22:34:59 +0000";
layers = (
{
layerId = "41219E28-2757-4AEA-BAE1-DB5F37EB0A1D";
name = Regular;
paths = (
{
closed = 1;
nodes = (
"973 380 LINE",
"363 380 LINE",
"226 0 LINE",
"28 0 LINE",
"584 1456 LINE",
"752 1456 LINE",
"1309 0 LINE",
"1112 0 LINE"
);
},
{
closed = 1;
nodes = (
"421 538 LINE",
"916 538 LINE",
"668 1219 LINE"
);
},
{
closed = 1;
nodes = (
"1033 1631 LINE",
"319 1631 LINE",
"319 1774 LINE",
"1033 1774 LINE"
);
},
{
closed = 1;
nodes = (
"0 606 LINE",
"260 606 LINE",
"314 750 LINE",
"0 750 LINE"
);
},
{
closed = 1;
nodes = (
"1077 606 LINE",
"1336 606 LINE",
"1336 750 LINE",
"1022 750 LINE"
);
},
{
closed = 1;
nodes = (
"446 606 LINE",
"890 606 LINE",
"838 750 LINE",
"498 750 LINE"
);
}
);
width = 1336;
}
);
leftKerningGroup = A;
unicode = 0100;
},
{
glyphname = Aogonek;
lastChange = "2016-12-03 22:35:03 +0000";
layers = (
{
layerId = "41219E28-2757-4AEA-BAE1-DB5F37EB0A1D";
name = Regular;
paths = (
{
closed = 1;
nodes = (
"752 1456 LINE",
"1309 0 LINE",
"1271 0 LINE",
"1228 -32 OFFCURVE",
"1185 -65 OFFCURVE",
"1153 -102 CURVE SMOOTH",
"1121 -139 OFFCURVE",
"1100 -178 OFFCURVE",
"1100 -222 CURVE SMOOTH",
"1100 -266 OFFCURVE",
"1119 -294 OFFCURVE",
"1178 -294 CURVE SMOOTH",
"1222 -294 OFFCURVE",
"1257 -279 OFFCURVE",
"1278 -268 CURVE",
"1291 -389 LINE",
"1259 -409 OFFCURVE",
"1211 -433 OFFCURVE",
"1131 -433 CURVE SMOOTH",
"1076 -433 OFFCURVE",
"1029 -417 OFFCURVE",
"995 -385 CURVE SMOOTH",
"961 -353 OFFCURVE",
"939 -306 OFFCURVE",
"939 -243 CURVE SMOOTH",
"939 -155 OFFCURVE",
"989 -67 OFFCURVE",
"1108 9 CURVE",
"973 380 LINE",
"363 380 LINE",
"226 0 LINE",
"28 0 LINE",
"584 1456 LINE"
);
},
{
closed = 1;
nodes = (
"421 538 LINE",
"916 538 LINE",
"668 1219 LINE"
);
},
{
closed = 1;
nodes = (
"0 606 LINE",
"260 606 LINE",
"314 750 LINE",
"0 750 LINE"
);
},
{
closed = 1;
nodes = (
"1077 606 LINE",
"1336 606 LINE",
"1336 750 LINE",
"1022 750 LINE"
);
},
{
closed = 1;
nodes = (
"446 606 LINE",
"890 606 LINE",
"838 750 LINE",
"498 750 LINE"
);
}
);
width = 1336;
}
);
leftKerningGroup = A;
unicode = 0104;
},
{
glyphname = Aring;
lastChange = "2016-12-03 22:35:07 +0000";
layers = (
{
layerId = "41219E28-2757-4AEA-BAE1-DB5F37EB0A1D";
name = Regular;
paths = (
{
closed = 1;
nodes = (
"973 380 LINE",
"363 380 LINE",
"226 0 LINE",
"28 0 LINE",
"584 1456 LINE",
"752 1456 LINE",
"1309 0 LINE",
"1112 0 LINE"
);
},
{
closed = 1;
nodes = (
"421 538 LINE",
"916 538 LINE",
"668 1219 LINE"
);
},
{
closed = 1;
nodes = (
"457 1786 OFFCURVE",
"480 1839 OFFCURVE",
"519 1877 CURVE SMOOTH",
"558 1915 OFFCURVE",
"611 1937 OFFCURVE",
"672 1937 CURVE SMOOTH",
"732 1937 OFFCURVE",
"786 1915 OFFCURVE",
"825 1877 CURVE SMOOTH",
"864 1839 OFFCURVE",
"887 1786 OFFCURVE",
"887 1729 CURVE SMOOTH",
"887 1670 OFFCURVE",
"864 1620 OFFCURVE",
"825 1584 CURVE SMOOTH",
"786 1547 OFFCURVE",
"732 1525 OFFCURVE",
"672 1525 CURVE SMOOTH",
"611 1525 OFFCURVE",
"558 1547 OFFCURVE",
"519 1584 CURVE SMOOTH",
"480 1620 OFFCURVE",
"457 1670 OFFCURVE",
"457 1729 CURVE SMOOTH"
);
},
{
closed = 1;
nodes = (
"556 1700 OFFCURVE",
"568 1670 OFFCURVE",
"589 1649 CURVE SMOOTH",
"609 1628 OFFCURVE",
"637 1614 OFFCURVE",
"672 1614 CURVE SMOOTH",
"705 1614 OFFCURVE",
"735 1628 OFFCURVE",
"756 1649 CURVE SMOOTH",
"776 1669 OFFCURVE",
"788 1698 OFFCURVE",
"788 1729 CURVE SMOOTH",
"788 1761 OFFCURVE",
"776 1790 OFFCURVE",
"756 1812 CURVE SMOOTH",
"735 1834 OFFCURVE",
"705 1847 OFFCURVE",
"672 1847 CURVE SMOOTH",
"637 1847 OFFCURVE",
"609 1834 OFFCURVE",
"589 1812 CURVE SMOOTH",
"568 1790 OFFCURVE",
"556 1761 OFFCURVE",
"556 1729 CURVE SMOOTH"
);
},
{
closed = 1;
nodes = (
"0 606 LINE",
"260 606 LINE",
"314 750 LINE",
"0 750 LINE"
);
},
{
closed = 1;
nodes = (
"1077 606 LINE",
"1336 606 LINE",
"1336 750 LINE",
"1022 750 LINE"
);
},
{
closed = 1;
nodes = (
"446 606 LINE",
"890 606 LINE",
"838 750 LINE",
"498 750 LINE"
);
}
);
width = 1336;
}
);
leftKerningGroup = A;
unicode = 00C5;
},
{
glyphname = Aringacute;
lastChange = "2016-12-03 22:35:11 +0000";
layers = (
{
layerId = "41219E28-2757-4AEA-BAE1-DB5F37EB0A1D";
name = Regular;
paths = (
{
closed = 1;
nodes = (
"973 380 LINE",
"363 380 LINE",
"226 0 LINE",
"28 0 LINE",
"584 1456 LINE",
"752 1456 LINE",
"1309 0 LINE",
"1112 0 LINE"
);
},
{
closed = 1;
nodes = (
"421 538 LINE",
"916 538 LINE",
"668 1219 LINE"
);
},
{
closed = 1;
nodes = (
"779 1940 LINE",
"968 1940 LINE",
"748 1756 LINE",
"634 1756 LINE"
);
},
{
closed = 1;
nodes = (
"504 1589 OFFCURVE",
"524 1632 OFFCURVE",
"556 1661 CURVE SMOOTH",
"587 1690 OFFCURVE",
"629 1708 OFFCURVE",
"676 1708 CURVE SMOOTH",
"721 1708 OFFCURVE",
"763 1690 OFFCURVE",
"794 1661 CURVE SMOOTH",
"825 1632 OFFCURVE",
"843 1589 OFFCURVE",
"843 1541 CURVE SMOOTH",
"843 1493 OFFCURVE",
"825 1452 OFFCURVE",
"794 1424 CURVE SMOOTH",
"763 1395 OFFCURVE",
"721 1378 OFFCURVE",
"676 1378 CURVE SMOOTH",
"629 1378 OFFCURVE",
"587 1395 OFFCURVE",
"556 1424 CURVE SMOOTH",
"524 1452 OFFCURVE",
"504 1493 OFFCURVE",
"504 1541 CURVE SMOOTH"
);
},
{
closed = 1;
nodes = (
"589 1517 OFFCURVE",
"599 1496 OFFCURVE",
"615 1481 CURVE SMOOTH",
"631 1465 OFFCURVE",
"652 1456 OFFCURVE",
"676 1456 CURVE SMOOTH",
"723 1456 OFFCURVE",
"759 1493 OFFCURVE",
"759 1541 CURVE SMOOTH",
"759 1592 OFFCURVE",
"723 1629 OFFCURVE",
"676 1629 CURVE SMOOTH",
"652 1629 OFFCURVE",
"631 1620 OFFCURVE",
"615 1604 CURVE SMOOTH",
"599 1588 OFFCURVE",
"589 1566 OFFCURVE",
"589 1541 CURVE SMOOTH"
);
},
{
closed = 1;
nodes = (
"0 606 LINE",
"260 606 LINE",
"314 750 LINE",
"0 750 LINE"
);
},
{
closed = 1;
nodes = (
"1077 606 LINE",
"1336 606 LINE",
"1336 750 LINE",
"1022 750 LINE"
);
},
{
closed = 1;
nodes = (
"446 606 LINE",
"890 606 LINE",
"838 750 LINE",
"498 750 LINE"
);
}
);
width = 1336;
}
);
leftKerningGroup = A;
unicode = 01FA;
},
{
glyphname = Aringbelow;
lastChange = "2016-12-03 22:35:14 +0000";
layers = (
{
layerId = "41219E28-2757-4AEA-BAE1-DB5F37EB0A1D";
name = Regular;
paths = (
{
closed = 1;
nodes = (
"973 380 LINE",
"363 380 LINE",
"226 0 LINE",
"28 0 LINE",
"584 1456 LINE",
"752 1456 LINE",
"1309 0 LINE",
"1112 0 LINE"
);
},
{
closed = 1;
nodes = (
"421 538 LINE",
"916 538 LINE",
"668 1219 LINE"
);
},
{
closed = 1;
nodes = (
"509 -194 OFFCURVE",
"529 -151 OFFCURVE",
"561 -122 CURVE SMOOTH",
"592 -93 OFFCURVE",
"635 -75 OFFCURVE",
"683 -75 CURVE SMOOTH",
"730 -75 OFFCURVE",
"771 -93 OFFCURVE",
"802 -122 CURVE SMOOTH",
"833 -151 OFFCURVE",
"852 -194 OFFCURVE",
"852 -242 CURVE SMOOTH",
"852 -291 OFFCURVE",
"833 -332 OFFCURVE",
"802 -360 CURVE SMOOTH",
"771 -389 OFFCURVE",
"730 -405 OFFCURVE",
"683 -405 CURVE SMOOTH",
"635 -405 OFFCURVE",
"592 -389 OFFCURVE",
"561 -360 CURVE SMOOTH",
"529 -332 OFFCURVE",
"509 -291 OFFCURVE",
"509 -242 CURVE SMOOTH"
);
},
{
closed = 1;
nodes = (
"596 -265 OFFCURVE",
"606 -286 OFFCURVE",
"622 -301 CURVE SMOOTH",
"638 -316 OFFCURVE",
"659 -325 OFFCURVE",
"683 -325 CURVE SMOOTH",
"730 -325 OFFCURVE",
"766 -289 OFFCURVE",
"766 -242 CURVE SMOOTH",
"766 -194 OFFCURVE",
"730 -156 OFFCURVE",
"683 -156 CURVE SMOOTH",
"659 -156 OFFCURVE",
"638 -165 OFFCURVE",
"622 -181 CURVE SMOOTH",
"606 -197 OFFCURVE",
"596 -218 OFFCURVE",
"596 -242 CURVE SMOOTH"
);
},
{
closed = 1;
nodes = (
"0 606 LINE",
"260 606 LINE",
"314 750 LINE",
"0 750 LINE"
);
},
{
closed = 1;
nodes = (
"1077 606 LINE",
"1336 606 LINE",
"1336 750 LINE",
"1022 750 LINE"
);
},
{
closed = 1;
nodes = (
"446 606 LINE",
"890 606 LINE",
"838 750 LINE",
"498 750 LINE"
);
}
);
width = 1336;
}
);
leftKerningGroup = A;
unicode = 1E00;
},
{
glyphname = Atilde;
lastChange = "2016-12-03 22:35:17 +0000";
layers = (
{
layerId = "41219E28-2757-4AEA-BAE1-DB5F37EB0A1D";
name = Regular;
paths = (
{
closed = 1;
nodes = (
"973 380 LINE",
"363 380 LINE",
"226 0 LINE",
"28 0 LINE",
"584 1456 LINE",
"752 1456 LINE",
"1309 0 LINE",
"1112 0 LINE"
);
},
{
closed = 1;
nodes = (
"421 538 LINE",
"916 538 LINE",
"668 1219 LINE"
);
},
{
closed = 1;
nodes = (
"1027 1814 LINE",
"1027 1741 OFFCURVE",
"1004 1680 OFFCURVE",
"965 1638 CURVE SMOOTH",
"925 1596 OFFCURVE",
"872 1572 OFFCURVE",
"812 1572 CURVE SMOOTH",
"744 1572 OFFCURVE",
"704 1596 OFFCURVE",
"668 1620 CURVE SMOOTH",
"632 1643 OFFCURVE",
"599 1667 OFFCURVE",
"543 1667 CURVE SMOOTH",
"515 1667 OFFCURVE",
"491 1655 OFFCURVE",
"473 1635 CURVE SMOOTH",
"455 1615 OFFCURVE",
"444 1587 OFFCURVE",
"444 1555 CURVE",
"320 1562 LINE",
"320 1635 OFFCURVE",
"344 1697 OFFCURVE",
"382 1741 CURVE SMOOTH",
"420 1784 OFFCURVE",
"474 1809 OFFCURVE",
"534 1809 CURVE SMOOTH",
"591 1809 OFFCURVE",
"632 1785 OFFCURVE",
"672 1761 CURVE SMOOTH",
"711 1737 OFFCURVE",
"750 1713 OFFCURVE",
"803 1713 CURVE SMOOTH",
"831 1713 OFFCURVE",
"856 1725 OFFCURVE",
"874 1746 CURVE SMOOTH",
"892 1766 OFFCURVE",
"903 1794 OFFCURVE",
"903 1826 CURVE"
);
},
{
closed = 1;
nodes = (
"0 606 LINE",
"260 606 LINE",
"314 750 LINE",
"0 750 LINE"
);
},
{
closed = 1;
nodes = (
"1077 606 LINE",
"1336 606 LINE",
"1336 750 LINE",
"1022 750 LINE"
);
},
{
closed = 1;
nodes = (
"446 606 LINE",
"890 606 LINE",
"838 750 LINE",
"498 750 LINE"
);
}
);
width = 1336;
}
);
leftKerningGroup = A;
unicode = 00C3;
},
{
glyphname = AE;
lastChange = "2016-12-03 22:38:27 +0000";
layers = (
{
layerId = "41219E28-2757-4AEA-BAE1-DB5F37EB0A1D";
name = Regular;
paths = (
{
closed = 1;
nodes = (
"1879 0 LINE",
"996 0 LINE",
"981 353 LINE",
"417 353 LINE",
"212 0 LINE",
"-14 0 LINE",
"866 1456 LINE",
"1817 1456 LINE",
"1817 1304 LINE",
"1126 1304 LINE",
"1146 833 LINE",
"1736 833 LINE",
"1736 682 LINE",
"1152 682 LINE",
"1174 151 LINE",
"1879 151 LINE"
);
},
{
closed = 1;
nodes = (
"518 527 LINE",
"974 527 LINE",
"943 1260 LINE"
);
},
{
closed = 1;
nodes = (
"0 606 LINE",
"352 606 LINE",
"440 750 LINE",
"0 750 LINE"
);
},
{
closed = 1;
nodes = (
"1155 606 LINE",
"1914 606 LINE",
"1914 750 LINE",
"1736 750 LINE",
"1736 682 LINE",
"1152 682 LINE"
);
},
{
closed = 1;
nodes = (
"563 606 LINE",
"971 606 LINE",
"965 750 LINE",
"647 750 LINE"
);
}
);
width = 1914;
}
);
unicode = 00C6;
},
{
glyphname = AEacute;
lastChange = "2016-12-03 22:38:54 +0000";
layers = (
{
layerId = "41219E28-2757-4AEA-BAE1-DB5F37EB0A1D";
name = Regular;
paths = (
{
closed = 1;
nodes = (
"1879 0 LINE",
"996 0 LINE",
"981 353 LINE",
"417 353 LINE",
"212 0 LINE",
"-14 0 LINE",
"866 1456 LINE",
"1817 1456 LINE",
"1817 1304 LINE",
"1126 1304 LINE",
"1146 833 LINE",
"1736 833 LINE",
"1736 682 LINE",
"1152 682 LINE",
"1174 151 LINE",
"1879 151 LINE"
);
},
{
closed = 1;
nodes = (
"518 527 LINE",
"974 527 LINE",
"943 1260 LINE"
);
},
{
closed = 1;
nodes = (
"1029 1856 LINE",
"1253 1856 LINE",
"985 1562 LINE",
"836 1562 LINE"
);
},
{
closed = 0;
nodes = (
"1736 682 LINE",
"1152 682 LINE"
);
},
{
closed = 1;
nodes = (
"0 606 LINE",
"352 606 LINE",
"440 750 LINE",
"0 750 LINE"
);
},
{
closed = 1;
nodes = (
"1155 606 LINE",
"1914 606 LINE",
"1914 750 LINE",
"1736 750 LINE",
"1736 682 LINE",
"1152 682 LINE"
);
},
{
closed = 1;
nodes = (
"563 606 LINE",
"971 606 LINE",
"965 750 LINE",
"647 750 LINE"
);
}
);
width = 1914;
}
);
unicode = 01FC;
},
{
glyphname = B;
lastChange = "2016-12-03 22:41:44 +0000";
layers = (
{
layerId = "41219E28-2757-4AEA-BAE1-DB5F37EB0A1D";
name = Regular;
paths = (
{
closed = 1;
nodes = (
"169 0 LINE",
"169 1456 LINE",
"645 1456 LINE SMOOTH",
"794 1456 OFFCURVE",
"913 1427 OFFCURVE",
"995 1364 CURVE SMOOTH",
"1077 1300 OFFCURVE",
"1121 1204 OFFCURVE",
"1121 1068 CURVE SMOOTH",
"1121 932 OFFCURVE",
"1038 823 OFFCURVE",
"905 766 CURVE",
"986 743 OFFCURVE",
"1050 698 OFFCURVE",
"1094 638 CURVE SMOOTH",
"1137 578 OFFCURVE",
"1160 501 OFFCURVE",
"1160 420 CURVE SMOOTH",
"1160 284 OFFCURVE",
"1112 179 OFFCURVE",
"1028 108 CURVE SMOOTH",
"944 36 OFFCURVE",
"823 0 OFFCURVE",
"678 0 CURVE SMOOTH"
);
},
{
closed = 1;
nodes = (
"361 681 LINE",
"361 157 LINE",
"678 157 LINE SMOOTH",
"770 157 OFFCURVE",
"842 183 OFFCURVE",
"891 228 CURVE SMOOTH",
"940 272 OFFCURVE",
"967 338 OFFCURVE",
"967 418 CURVE SMOOTH",
"967 498 OFFCURVE",
"947 565 OFFCURVE",
"901 610 CURVE SMOOTH",
"855 655 OFFCURVE",
"784 681 OFFCURVE",
"687 681 CURVE SMOOTH"
);
},
{
closed = 1;
nodes = (
"361 835 LINE",
"651 835 LINE SMOOTH",
"734 835 OFFCURVE",
"803 857 OFFCURVE",
"852 897 CURVE SMOOTH",
"900 937 OFFCURVE",
"928 996 OFFCURVE",
"928 1069 CURVE SMOOTH",
"928 1229 OFFCURVE",
"836 1298 OFFCURVE",
"645 1298 CURVE SMOOTH",
"361 1298 LINE"
);
},
{
closed = 1;
nodes = (
"0 606 LINE",
"168 606 LINE",
"168 750 LINE",
"0 750 LINE"
);
},
{
closed = 1;
nodes = (
"1114 606 LINE",
"1275 606 LINE",
"1275 750 LINE"
);
}
);
width = 1275;
}
);
rightKerningGroup = B;
unicode = 0042;
},
{
glyphname = C;
layers = (
{
layerId = "41219E28-2757-4AEA-BAE1-DB5F37EB0A1D";
name = Regular;
paths = (
{
closed = 1;
nodes = (
"1240 462 LINE",
"1224 325 OFFCURVE",
"1174 204 OFFCURVE",
"1083 118 CURVE SMOOTH",
"992 32 OFFCURVE",
"863 -20 OFFCURVE",
"688 -20 CURVE SMOOTH",
"516 -20 OFFCURVE",
"374 47 OFFCURVE",
"275 165 CURVE SMOOTH",
"175 283 OFFCURVE",
"119 450 OFFCURVE",
"119 654 CURVE SMOOTH",
"119 800 LINE SMOOTH",
"119 1004 OFFCURVE",
"176 1173 OFFCURVE",
"277 1291 CURVE SMOOTH",
"378 1409 OFFCURVE",
"525 1476 OFFCURVE",
"705 1476 CURVE SMOOTH",
"869 1476 OFFCURVE",
"996 1426 OFFCURVE",
"1085 1340 CURVE SMOOTH",
"1173 1254 OFFCURVE",
"1225 1132 OFFCURVE",
"1240 988 CURVE",
"1047 988 LINE",
"1032 1089 OFFCURVE",
"1004 1172 OFFCURVE",
"950 1229 CURVE SMOOTH",
"896 1286 OFFCURVE",
"817 1318 OFFCURVE",
"705 1318 CURVE SMOOTH",
"576 1318 OFFCURVE",
"478 1266 OFFCURVE",
"412 1176 CURVE SMOOTH",
"346 1086 OFFCURVE",
"312 955 OFFCURVE",
"312 802 CURVE SMOOTH",
"312 654 LINE SMOOTH",
"312 511 OFFCURVE",
"342 383 OFFCURVE",
"403 289 CURVE SMOOTH",
"464 195 OFFCURVE",
"559 137 OFFCURVE",
"688 137 CURVE SMOOTH",
"811 137 OFFCURVE",
"892 167 OFFCURVE",
"948 223 CURVE SMOOTH",
"1003 278 OFFCURVE",
"1031 359 OFFCURVE",
"1047 462 CURVE"
);
}
);
width = 1333;
}
);
leftKerningGroup = C;
rightKerningGroup = C;
unicode = 0043;
},
{
glyphname = Cacute;
layers = (
{
layerId = "41219E28-2757-4AEA-BAE1-DB5F37EB0A1D";
name = Regular;
paths = (
{
closed = 1;
nodes = (
"1240 462 LINE",
"1224 325 OFFCURVE",
"1174 204 OFFCURVE",
"1083 118 CURVE SMOOTH",
"992 32 OFFCURVE",
"863 -20 OFFCURVE",
"688 -20 CURVE SMOOTH",
"516 -20 OFFCURVE",
"374 47 OFFCURVE",
"275 165 CURVE SMOOTH",
"175 283 OFFCURVE",
"119 450 OFFCURVE",
"119 654 CURVE SMOOTH",
"119 800 LINE SMOOTH",
"119 1004 OFFCURVE",
"176 1173 OFFCURVE",
"277 1291 CURVE SMOOTH",
"378 1409 OFFCURVE",
"525 1476 OFFCURVE",
"705 1476 CURVE SMOOTH",
"869 1476 OFFCURVE",
"996 1426 OFFCURVE",
"1085 1340 CURVE SMOOTH",
"1173 1254 OFFCURVE",
"1225 1132 OFFCURVE",
"1240 988 CURVE",
"1047 988 LINE",
"1032 1089 OFFCURVE",
"1004 1172 OFFCURVE",
"950 1229 CURVE SMOOTH",
"896 1286 OFFCURVE",
"817 1318 OFFCURVE",
"705 1318 CURVE SMOOTH",
"576 1318 OFFCURVE",
"478 1266 OFFCURVE",
"412 1176 CURVE SMOOTH",
"346 1086 OFFCURVE",
"312 955 OFFCURVE",
"312 802 CURVE SMOOTH",
"312 654 LINE SMOOTH",
"312 511 OFFCURVE",
"342 383 OFFCURVE",
"403 289 CURVE SMOOTH",
"464 195 OFFCURVE",
"559 137 OFFCURVE",
"688 137 CURVE SMOOTH",
"811 137 OFFCURVE",
"892 167 OFFCURVE",
"948 223 CURVE SMOOTH",
"1003 278 OFFCURVE",
"1031 359 OFFCURVE",
"1047 462 CURVE"
);
},
{
closed = 1;
nodes = (
"770 1877 LINE",
"994 1877 LINE",
"726 1583 LINE",
"577 1583 LINE"
);
}
);
width = 1333;
}
);
leftKerningGroup = C;
rightKerningGroup = C;
unicode = 0106;
},
{
glyphname = Ccaron;
layers = (
{
layerId = "41219E28-2757-4AEA-BAE1-DB5F37EB0A1D";
name = Regular;
paths = (
{
closed = 1;
nodes = (
"1240 462 LINE",
"1224 325 OFFCURVE",
"1174 204 OFFCURVE",
"1083 118 CURVE SMOOTH",
"992 32 OFFCURVE",
"863 -20 OFFCURVE",
"688 -20 CURVE SMOOTH",
"516 -20 OFFCURVE",
"374 47 OFFCURVE",
"275 165 CURVE SMOOTH",
"175 283 OFFCURVE",
"119 450 OFFCURVE",
"119 654 CURVE SMOOTH",
"119 800 LINE SMOOTH",
"119 1004 OFFCURVE",
"176 1173 OFFCURVE",
"277 1291 CURVE SMOOTH",
"378 1409 OFFCURVE",
"525 1476 OFFCURVE",
"705 1476 CURVE SMOOTH",
"869 1476 OFFCURVE",
"996 1426 OFFCURVE",
"1085 1340 CURVE SMOOTH",
"1173 1254 OFFCURVE",
"1225 1132 OFFCURVE",
"1240 988 CURVE",
"1047 988 LINE",
"1032 1089 OFFCURVE",
"1004 1172 OFFCURVE",
"950 1229 CURVE SMOOTH",
"896 1286 OFFCURVE",
"817 1318 OFFCURVE",
"705 1318 CURVE SMOOTH",
"576 1318 OFFCURVE",
"478 1266 OFFCURVE",
"412 1176 CURVE SMOOTH",
"346 1086 OFFCURVE",
"312 955 OFFCURVE",
"312 802 CURVE SMOOTH",
"312 654 LINE SMOOTH",
"312 511 OFFCURVE",
"342 383 OFFCURVE",
"403 289 CURVE SMOOTH",
"464 195 OFFCURVE",
"559 137 OFFCURVE",
"688 137 CURVE SMOOTH",
"811 137 OFFCURVE",
"892 167 OFFCURVE",
"948 223 CURVE SMOOTH",
"1003 278 OFFCURVE",
"1031 359 OFFCURVE",
"1047 462 CURVE"
);
},
{
closed = 1;
nodes = (
"678 1709 LINE",
"828 1879 LINE",
"988 1879 LINE",
"988 1869 LINE",
"734 1595 LINE",
"621 1595 LINE",
"370 1869 LINE",
"370 1879 LINE",
"527 1879 LINE"
);
}
);
width = 1333;
}
);
leftKerningGroup = C;
rightKerningGroup = C;
unicode = 010C;
},
{
glyphname = Ccedilla;
layers = (
{
layerId = "41219E28-2757-4AEA-BAE1-DB5F37EB0A1D";
name = Regular;
paths = (
{
closed = 1;
nodes = (
"1240 462 LINE",
"1224 325 OFFCURVE",
"1174 204 OFFCURVE",
"1083 118 CURVE SMOOTH",
"992 32 OFFCURVE",
"863 -20 OFFCURVE",
"688 -20 CURVE SMOOTH",
"516 -20 OFFCURVE",
"374 47 OFFCURVE",
"275 165 CURVE SMOOTH",
"175 283 OFFCURVE",
"119 450 OFFCURVE",
"119 654 CURVE SMOOTH",
"119 800 LINE SMOOTH",
"119 1004 OFFCURVE",
"176 1173 OFFCURVE",
"277 1291 CURVE SMOOTH",
"378 1409 OFFCURVE",
"525 1476 OFFCURVE",
"705 1476 CURVE SMOOTH",
"869 1476 OFFCURVE",
"996 1426 OFFCURVE",
"1085 1340 CURVE SMOOTH",
"1173 1254 OFFCURVE",
"1225 1132 OFFCURVE",
"1240 988 CURVE",
"1047 988 LINE",
"1032 1089 OFFCURVE",
"1004 1172 OFFCURVE",
"950 1229 CURVE SMOOTH",
"896 1286 OFFCURVE",
"817 1318 OFFCURVE",
"705 1318 CURVE SMOOTH",
"576 1318 OFFCURVE",
"478 1266 OFFCURVE",
"412 1176 CURVE SMOOTH",
"346 1086 OFFCURVE",
"312 955 OFFCURVE",
"312 802 CURVE SMOOTH",
"312 654 LINE SMOOTH",
"312 511 OFFCURVE",
"342 383 OFFCURVE",
"403 289 CURVE SMOOTH",
"464 195 OFFCURVE",
"559 137 OFFCURVE",
"688 137 CURVE SMOOTH",
"811 137 OFFCURVE",
"892 167 OFFCURVE",
"948 223 CURVE SMOOTH",
"1003 278 OFFCURVE",
"1031 359 OFFCURVE",
"1047 462 CURVE"
);
},
{
closed = 1;
nodes = (
"751 -9 LINE",
"739 -61 LINE",
"776 -68 OFFCURVE",
"815 -82 OFFCURVE",
"844 -109 CURVE SMOOTH",
"873 -137 OFFCURVE",
"892 -177 OFFCURVE",
"892 -234 CURVE SMOOTH",
"892 -297 OFFCURVE",
"866 -349 OFFCURVE",
"815 -386 CURVE SMOOTH",
"763 -423 OFFCURVE",
"688 -444 OFFCURVE",
"589 -444 CURVE",
"582 -337 LINE",
"627 -337 OFFCURVE",
"670 -330 OFFCURVE",
"700 -314 CURVE SMOOTH",
"730 -298 OFFCURVE",
"748 -273 OFFCURVE",
"748 -238 CURVE SMOOTH",
"748 -205 OFFCURVE",
"736 -183 OFFCURVE",
"710 -169 CURVE SMOOTH",
"684 -155 OFFCURVE",
"642 -148 OFFCURVE",
"586 -143 CURVE",
"618 -9 LINE"
);
}
);
width = 1333;
}
);
leftKerningGroup = C;
rightKerningGroup = C;
unicode = 00C7;
},
{
glyphname = Ccircumflex;
layers = (
{
layerId = "41219E28-2757-4AEA-BAE1-DB5F37EB0A1D";
name = Regular;
paths = (
{
closed = 1;
nodes = (
"1240 462 LINE",
"1224 325 OFFCURVE",
"1174 204 OFFCURVE",
"1083 118 CURVE SMOOTH",
"992 32 OFFCURVE",
"863 -20 OFFCURVE",
"688 -20 CURVE SMOOTH",
"516 -20 OFFCURVE",
"374 47 OFFCURVE",
"275 165 CURVE SMOOTH",
"175 283 OFFCURVE",
"119 450 OFFCURVE",
"119 654 CURVE SMOOTH",
"119 800 LINE SMOOTH",
"119 1004 OFFCURVE",
"176 1173 OFFCURVE",
"277 1291 CURVE SMOOTH",
"378 1409 OFFCURVE",
"525 1476 OFFCURVE",
"705 1476 CURVE SMOOTH",
"869 1476 OFFCURVE",
"996 1426 OFFCURVE",
"1085 1340 CURVE SMOOTH",
"1173 1254 OFFCURVE",
"1225 1132 OFFCURVE",
"1240 988 CURVE",
"1047 988 LINE",
"1032 1089 OFFCURVE",
"1004 1172 OFFCURVE",
"950 1229 CURVE SMOOTH",
"896 1286 OFFCURVE",
"817 1318 OFFCURVE",
"705 1318 CURVE SMOOTH",
"576 1318 OFFCURVE",
"478 1266 OFFCURVE",
"412 1176 CURVE SMOOTH",
"346 1086 OFFCURVE",
"312 955 OFFCURVE",
"312 802 CURVE SMOOTH",
"312 654 LINE SMOOTH",
"312 511 OFFCURVE",
"342 383 OFFCURVE",
"403 289 CURVE SMOOTH",
"464 195 OFFCURVE",
"559 137 OFFCURVE",
"688 137 CURVE SMOOTH",
"811 137 OFFCURVE",
"892 167 OFFCURVE",
"948 223 CURVE SMOOTH",
"1003 278 OFFCURVE",
"1031 359 OFFCURVE",
"1047 462 CURVE"
);
},
{
closed = 1;
nodes = (
"982 1605 LINE",
"982 1595 LINE",
"829 1595 LINE",
"679 1765 LINE",
"530 1595 LINE",
"377 1595 LINE",
"377 1607 LINE",
"623 1879 LINE",
"735 1879 LINE"
);
}
);
width = 1333;
}
);
leftKerningGroup = C;
rightKerningGroup = C;
unicode = 0108;
},
{
glyphname = Cdotaccent;
layers = (
{
layerId = "41219E28-2757-4AEA-BAE1-DB5F37EB0A1D";
name = Regular;
paths = (
{
closed = 1;
nodes = (
"1240 462 LINE",
"1224 325 OFFCURVE",
"1174 204 OFFCURVE",
"1083 118 CURVE SMOOTH",
"992 32 OFFCURVE",
"863 -20 OFFCURVE",
"688 -20 CURVE SMOOTH",
"516 -20 OFFCURVE",
"374 47 OFFCURVE",
"275 165 CURVE SMOOTH",
"175 283 OFFCURVE",
"119 450 OFFCURVE",
"119 654 CURVE SMOOTH",
"119 800 LINE SMOOTH",
"119 1004 OFFCURVE",
"176 1173 OFFCURVE",
"277 1291 CURVE SMOOTH",
"378 1409 OFFCURVE",
"525 1476 OFFCURVE",
"705 1476 CURVE SMOOTH",
"869 1476 OFFCURVE",
"996 1426 OFFCURVE",
"1085 1340 CURVE SMOOTH",
"1173 1254 OFFCURVE",
"1225 1132 OFFCURVE",
"1240 988 CURVE",
"1047 988 LINE",
"1032 1089 OFFCURVE",
"1004 1172 OFFCURVE",
"950 1229 CURVE SMOOTH",
"896 1286 OFFCURVE",
"817 1318 OFFCURVE",
"705 1318 CURVE SMOOTH",
"576 1318 OFFCURVE",
"478 1266 OFFCURVE",
"412 1176 CURVE SMOOTH",
"346 1086 OFFCURVE",
"312 955 OFFCURVE",
"312 802 CURVE SMOOTH",
"312 654 LINE SMOOTH",
"312 511 OFFCURVE",
"342 383 OFFCURVE",
"403 289 CURVE SMOOTH",
"464 195 OFFCURVE",
"559 137 OFFCURVE",
"688 137 CURVE SMOOTH",
"811 137 OFFCURVE",
"892 167 OFFCURVE",
"948 223 CURVE SMOOTH",
"1003 278 OFFCURVE",
"1031 359 OFFCURVE",
"1047 462 CURVE"
);
},
{
closed = 1;
nodes = (
"571 1770 OFFCURVE",
"608 1817 OFFCURVE",
"680 1817 CURVE SMOOTH",
"752 1817 OFFCURVE",
"790 1770 OFFCURVE",
"790 1710 CURVE SMOOTH",
"790 1650 OFFCURVE",
"752 1605 OFFCURVE",
"680 1605 CURVE SMOOTH",
"608 1605 OFFCURVE",
"571 1650 OFFCURVE",
"571 1710 CURVE SMOOTH"
);
}
);
width = 1333;
}
);
leftKerningGroup = C;
rightKerningGroup = C;
unicode = 010A;
},
{
glyphname = D;
layers = (
{
layerId = "41219E28-2757-4AEA-BAE1-DB5F37EB0A1D";
name = Regular;
paths = (
{
closed = 1;
nodes = (
"169 0 LINE",
"169 1456 LINE",
"580 1456 LINE SMOOTH",
"772 1456 OFFCURVE",
"932 1390 OFFCURVE",
"1045 1271 CURVE SMOOTH",
"1157 1152 OFFCURVE",
"1222 981 OFFCURVE",
"1222 770 CURVE SMOOTH",
"1222 684 LINE SMOOTH",
"1222 473 OFFCURVE",
"1158 302 OFFCURVE",
"1044 184 CURVE SMOOTH",
"930 66 OFFCURVE",
"764 0 OFFCURVE",
"563 0 CURVE SMOOTH"
);
},
{
closed = 1;
nodes = (
"361 1298 LINE",
"361 157 LINE",
"563 157 LINE SMOOTH",
"718 157 OFFCURVE",
"835 209 OFFCURVE",
"914 301 CURVE SMOOTH",
"993 393 OFFCURVE",
"1032 524 OFFCURVE",
"1032 684 CURVE SMOOTH",
"1032 773 LINE SMOOTH",
"1032 940 OFFCURVE",
"991 1071 OFFCURVE",
"914 1161 CURVE SMOOTH",
"837 1251 OFFCURVE",
"724 1298 OFFCURVE",
"580 1298 CURVE SMOOTH"
);
}
);
width = 1343;
}
);
rightKerningGroup = D;
unicode = 0044;
},
{
glyphname = Eth;
layers = (
{
layerId = "41219E28-2757-4AEA-BAE1-DB5F37EB0A1D";
name = Regular;
paths = (
{
closed = 1;
nodes = (
"199 0 LINE",
"199 666 LINE",
"37 666 LINE",
"37 817 LINE",
"199 817 LINE",
"199 1456 LINE",
"610 1456 LINE SMOOTH",
"802 1456 OFFCURVE",
"962 1390 OFFCURVE",
"1075 1271 CURVE SMOOTH",
"1187 1152 OFFCURVE",
"1252 981 OFFCURVE",
"1252 770 CURVE SMOOTH",
"1252 684 LINE SMOOTH",
"1252 473 OFFCURVE",
"1188 302 OFFCURVE",
"1074 184 CURVE SMOOTH",
"960 66 OFFCURVE",
"794 0 OFFCURVE",
"593 0 CURVE SMOOTH"
);
},
{
closed = 1;
nodes = (
"673 666 LINE",
"391 666 LINE",
"391 157 LINE",
"593 157 LINE SMOOTH",
"748 157 OFFCURVE",
"865 209 OFFCURVE",
"944 301 CURVE SMOOTH",
"1023 393 OFFCURVE",
"1062 524 OFFCURVE",
"1062 684 CURVE SMOOTH",
"1062 773 LINE SMOOTH",
"1062 940 OFFCURVE",
"1021 1071 OFFCURVE",
"944 1161 CURVE SMOOTH",
"867 1251 OFFCURVE",
"754 1298 OFFCURVE",
"610 1298 CURVE SMOOTH",
"391 1298 LINE",
"391 817 LINE",
"673 817 LINE"
);
}
);
width = 1373;
}
);
rightKerningGroup = D;
unicode = 00D0;
},
{
glyphname = Dcaron;
layers = (
{
layerId = "41219E28-2757-4AEA-BAE1-DB5F37EB0A1D";
name = Regular;
paths = (
{
closed = 1;
nodes = (
"169 0 LINE",
"169 1456 LINE",
"580 1456 LINE SMOOTH",
"772 1456 OFFCURVE",
"932 1390 OFFCURVE",
"1045 1271 CURVE SMOOTH",
"1157 1152 OFFCURVE",
"1222 981 OFFCURVE",
"1222 770 CURVE SMOOTH",
"1222 684 LINE SMOOTH",
"1222 473 OFFCURVE",
"1158 302 OFFCURVE",
"1044 184 CURVE SMOOTH",
"930 66 OFFCURVE",
"764 0 OFFCURVE",
"563 0 CURVE SMOOTH"
);
},
{
closed = 1;
nodes = (
"361 1298 LINE",
"361 157 LINE",
"563 157 LINE SMOOTH",
"718 157 OFFCURVE",
"835 209 OFFCURVE",
"914 301 CURVE SMOOTH",
"993 393 OFFCURVE",
"1032 524 OFFCURVE",
"1032 684 CURVE SMOOTH",
"1032 773 LINE SMOOTH",
"1032 940 OFFCURVE",
"991 1071 OFFCURVE",
"914 1161 CURVE SMOOTH",
"837 1251 OFFCURVE",
"724 1298 OFFCURVE",
"580 1298 CURVE SMOOTH"
);
},
{
closed = 1;
nodes = (
"607 1688 LINE",
"757 1858 LINE",
"917 1858 LINE",
"917 1848 LINE",
"663 1574 LINE",
"550 1574 LINE",
"299 1848 LINE",
"299 1858 LINE",
"456 1858 LINE"
);
}
);
width = 1343;
}
);
rightKerningGroup = D;
unicode = 010E;
},
{
glyphname = Dcroat;
layers = (
{
layerId = "41219E28-2757-4AEA-BAE1-DB5F37EB0A1D";
name = Regular;
paths = (
{
closed = 1;
nodes = (
"199 0 LINE",
"199 666 LINE",
"37 666 LINE",
"37 817 LINE",
"199 817 LINE",
"199 1456 LINE",
"610 1456 LINE SMOOTH",
"802 1456 OFFCURVE",
"962 1390 OFFCURVE",
"1075 1271 CURVE SMOOTH",
"1187 1152 OFFCURVE",
"1252 981 OFFCURVE",
"1252 770 CURVE SMOOTH",
"1252 684 LINE SMOOTH",
"1252 473 OFFCURVE",
"1188 302 OFFCURVE",
"1074 184 CURVE SMOOTH",
"960 66 OFFCURVE",
"794 0 OFFCURVE",
"593 0 CURVE SMOOTH"
);
},
{
closed = 1;
nodes = (
"673 666 LINE",
"391 666 LINE",
"391 157 LINE",
"593 157 LINE SMOOTH",
"748 157 OFFCURVE",
"865 209 OFFCURVE",
"944 301 CURVE SMOOTH",
"1023 393 OFFCURVE",
"1062 524 OFFCURVE",
"1062 684 CURVE SMOOTH",
"1062 773 LINE SMOOTH",
"1062 940 OFFCURVE",
"1021 1071 OFFCURVE",
"944 1161 CURVE SMOOTH",
"867 1251 OFFCURVE",
"754 1298 OFFCURVE",
"610 1298 CURVE SMOOTH",
"391 1298 LINE",
"391 817 LINE",
"673 817 LINE"
);
}
);
width = 1373;
}
);
rightKerningGroup = D;
unicode = 0110;
},
{
glyphname = E;
layers = (
{
layerId = "41219E28-2757-4AEA-BAE1-DB5F37EB0A1D";
name = Regular;
paths = (
{
closed = 1;
nodes = (
"992 673 LINE",
"361 673 LINE",
"361 157 LINE",
"1094 157 LINE",
"1094 0 LINE",
"169 0 LINE",
"169 1456 LINE",
"1084 1456 LINE",
"1084 1298 LINE",
"361 1298 LINE",
"361 830 LINE",
"992 830 LINE"
);
}
);
width = 1164;
}
);
rightKerningGroup = E;
unicode = 0045;
},
{
glyphname = Eacute;
layers = (
{
layerId = "41219E28-2757-4AEA-BAE1-DB5F37EB0A1D";
name = Regular;
paths = (
{
closed = 1;
nodes = (
"992 673 LINE",
"361 673 LINE",
"361 157 LINE",
"1094 157 LINE",
"1094 0 LINE",
"169 0 LINE",
"169 1456 LINE",
"1084 1456 LINE",
"1084 1298 LINE",
"361 1298 LINE",
"361 830 LINE",
"992 830 LINE"
);
},
{
closed = 1;
nodes = (
"710 1856 LINE",
"934 1856 LINE",
"666 1562 LINE",
"517 1562 LINE"
);
}
);
width = 1164;
}
);
rightKerningGroup = E;
unicode = 00C9;
},
{
glyphname = Ebreve;
layers = (
{
layerId = "41219E28-2757-4AEA-BAE1-DB5F37EB0A1D";
name = Regular;
paths = (
{
closed = 1;
nodes = (
"992 673 LINE",
"361 673 LINE",
"361 157 LINE",
"1094 157 LINE",
"1094 0 LINE",
"169 0 LINE",
"169 1456 LINE",
"1084 1456 LINE",
"1084 1298 LINE",
"361 1298 LINE",
"361 830 LINE",
"992 830 LINE"
);
},
{
closed = 1;
nodes = (
"919 1818 LINE",
"919 1739 OFFCURVE",
"891 1673 OFFCURVE",
"839 1626 CURVE SMOOTH",
"787 1578 OFFCURVE",
"712 1550 OFFCURVE",
"620 1550 CURVE SMOOTH",
"528 1550 OFFCURVE",
"453 1578 OFFCURVE",
"401 1626 CURVE SMOOTH",
"349 1673 OFFCURVE",
"320 1739 OFFCURVE",
"320 1818 CURVE",
"471 1818 LINE",
"471 1778 OFFCURVE",
"481 1741 OFFCURVE",
"505 1714 CURVE",
"528 1686 OFFCURVE",
"565 1669 OFFCURVE",
"620 1669 CURVE SMOOTH",
"673 1669 OFFCURVE",
"711 1686 OFFCURVE",
"735 1714 CURVE SMOOTH",
"759 1741 OFFCURVE",
"769 1778 OFFCURVE",
"769 1818 CURVE"
);
}
);
width = 1164;
}
);
rightKerningGroup = E;
unicode = 0114;
},
{
glyphname = Ecaron;
layers = (
{
layerId = "41219E28-2757-4AEA-BAE1-DB5F37EB0A1D";
name = Regular;
paths = (
{
closed = 1;
nodes = (
"992 673 LINE",
"361 673 LINE",
"361 157 LINE",
"1094 157 LINE",
"1094 0 LINE",
"169 0 LINE",
"169 1456 LINE",
"1084 1456 LINE",
"1084 1298 LINE",
"361 1298 LINE",
"361 830 LINE",
"992 830 LINE"
);
},
{
closed = 1;
nodes = (
"618 1688 LINE",
"768 1858 LINE",
"928 1858 LINE",
"928 1848 LINE",
"674 1574 LINE",
"561 1574 LINE",
"310 1848 LINE",
"310 1858 LINE",
"467 1858 LINE"
);
}
);
width = 1164;
}
);
rightKerningGroup = E;
unicode = 011A;
},
{
glyphname = Ecircumflex;
layers = (
{
layerId = "41219E28-2757-4AEA-BAE1-DB5F37EB0A1D";
name = Regular;
paths = (
{
closed = 1;
nodes = (
"992 673 LINE",
"361 673 LINE",
"361 157 LINE",
"1094 157 LINE",
"1094 0 LINE",
"169 0 LINE",
"169 1456 LINE",
"1084 1456 LINE",
"1084 1298 LINE",
"361 1298 LINE",
"361 830 LINE",
"992 830 LINE"
);
},
{
closed = 1;
nodes = (
"922 1584 LINE",
"922 1574 LINE",
"769 1574 LINE",
"619 1744 LINE",
"470 1574 LINE",
"317 1574 LINE",
"317 1586 LINE",
"563 1858 LINE",
"675 1858 LINE"
);
}
);
width = 1164;
}
);
rightKerningGroup = E;
unicode = 00CA;
},
{
glyphname = Ecircumflexacute;
layers = (
{
layerId = "41219E28-2757-4AEA-BAE1-DB5F37EB0A1D";
name = Regular;
paths = (
{
closed = 1;
nodes = (
"992 673 LINE",
"361 673 LINE",
"361 157 LINE",
"1094 157 LINE",
"1094 0 LINE",
"169 0 LINE",
"169 1456 LINE",
"1084 1456 LINE",
"1084 1298 LINE",
"361 1298 LINE",
"361 830 LINE",
"992 830 LINE"
);
},
{
closed = 1;
nodes = (
"544 1791 LINE",
"696 1791 LINE",
"986 1529 LINE",
"789 1529 LINE",
"620 1687 LINE",
"450 1529 LINE",
"252 1529 LINE"
);
},
{
closed = 1;
nodes = (
"1054 1962 LINE",
"1254 1962 LINE",
"1053 1703 LINE",
"912 1703 LINE"
);
}
);
width = 1164;
}
);
rightKerningGroup = E;
unicode = 1EBE;
},
{
glyphname = Ecircumflexdotbelow;
layers = (
{
layerId = "41219E28-2757-4AEA-BAE1-DB5F37EB0A1D";
name = Regular;
paths = (
{
closed = 1;
nodes = (
"992 673 LINE",
"361 673 LINE",
"361 157 LINE",
"1094 157 LINE",
"1094 0 LINE",
"169 0 LINE",
"169 1456 LINE",
"1084 1456 LINE",
"1084 1298 LINE",
"361 1298 LINE",
"361 830 LINE",
"992 830 LINE"
);
},
{
closed = 1;
nodes = (
"922 1584 LINE",
"922 1574 LINE",
"769 1574 LINE",
"619 1744 LINE",
"470 1574 LINE",
"317 1574 LINE",
"317 1586 LINE",
"563 1858 LINE",
"675 1858 LINE"
);
},
{
closed = 1;
nodes = (
"504 -175 OFFCURVE",
"541 -128 OFFCURVE",
"613 -128 CURVE SMOOTH",
"685 -128 OFFCURVE",
"723 -175 OFFCURVE",
"723 -235 CURVE SMOOTH",
"723 -295 OFFCURVE",
"685 -340 OFFCURVE",
"613 -340 CURVE SMOOTH",
"541 -340 OFFCURVE",
"504 -295 OFFCURVE",
"504 -235 CURVE SMOOTH"
);
}
);
width = 1164;
}
);
rightKerningGroup = E;
unicode = 1EC6;
},
{
glyphname = Ecircumflexgrave;
layers = (
{
layerId = "41219E28-2757-4AEA-BAE1-DB5F37EB0A1D";
name = Regular;
paths = (
{
closed = 1;
nodes = (
"992 673 LINE",
"361 673 LINE",
"361 157 LINE",
"1094 157 LINE",
"1094 0 LINE",
"169 0 LINE",
"169 1456 LINE",
"1084 1456 LINE",
"1084 1298 LINE",
"361 1298 LINE",
"361 830 LINE",
"992 830 LINE"
);
},
{
closed = 1;
nodes = (
"984 1525 LINE",
"787 1525 LINE",
"617 1683 LINE",
"447 1525 LINE",
"251 1525 LINE",
"541 1788 LINE",
"693 1788 LINE"
);
},
{
closed = 1;
nodes = (
"324 1700 LINE",
"184 1700 LINE",
"-16 1958 LINE",
"183 1958 LINE"
);
}
);
width = 1164;
}
);
rightKerningGroup = E;
unicode = 1EC0;
},
{
glyphname = Ecircumflexhookabove;
layers = (
{
layerId = "41219E28-2757-4AEA-BAE1-DB5F37EB0A1D";
name = Regular;
paths = (
{
closed = 1;
nodes = (
"992 673 LINE",
"361 673 LINE",
"361 157 LINE",
"1094 157 LINE",
"1094 0 LINE",
"169 0 LINE",
"169 1456 LINE",
"1084 1456 LINE",
"1084 1298 LINE",
"361 1298 LINE",
"361 830 LINE",
"992 830 LINE"
);
},
{
closed = 1;
nodes = (
"985 1520 LINE",
"815 1520 LINE",
"618 1706 LINE",
"421 1520 LINE",
"252 1520 LINE",
"524 1782 LINE",
"712 1782 LINE"
);
},
{
closed = 1;
nodes = (
"902 1658 LINE",
"901 1789 LINE",
"944 1792 OFFCURVE",
"976 1797 OFFCURVE",
"996 1806 CURVE SMOOTH",
"1015 1815 OFFCURVE",
"1025 1830 OFFCURVE",
"1025 1852 CURVE SMOOTH",
"1025 1876 OFFCURVE",
"1009 1893 OFFCURVE",
"984 1904 CURVE SMOOTH",
"959 1915 OFFCURVE",
"923 1919 OFFCURVE",
"884 1919 CURVE",
"889 2011 LINE",
"1060 2011 OFFCURVE",
"1151 1947 OFFCURVE",
"1151 1850 CURVE SMOOTH",
"1151 1806 OFFCURVE",
"1135 1775 OFFCURVE",
"1110 1755 CURVE SMOOTH",
"1085 1734 OFFCURVE",
"1052 1722 OFFCURVE",
"1017 1718 CURVE",
"1016 1658 LINE"
);
}
);
width = 1164;
}
);
rightKerningGroup = E;
unicode = 1EC2;
},
{
glyphname = Ecircumflextilde;
layers = (
{
layerId = "41219E28-2757-4AEA-BAE1-DB5F37EB0A1D";
name = Regular;
paths = (
{
closed = 1;
nodes = (
"992 673 LINE",
"361 673 LINE",
"361 157 LINE",
"1094 157 LINE",
"1094 0 LINE",
"169 0 LINE",
"169 1456 LINE",
"1084 1456 LINE",
"1084 1298 LINE",
"361 1298 LINE",
"361 830 LINE",
"992 830 LINE"
);
},
{
closed = 1;
nodes = (
"984 1526 LINE",
"814 1526 LINE",
"617 1684 LINE",
"420 1526 LINE",
"251 1526 LINE",
"552 1770 LINE",
"683 1770 LINE"
);
},
{
closed = 1;
nodes = (
"878 1999 LINE",
"878 1959 OFFCURVE",
"860 1920 OFFCURVE",
"831 1891 CURVE SMOOTH",
"802 1862 OFFCURVE",
"761 1843 OFFCURVE",
"717 1843 CURVE SMOOTH",
"666 1843 OFFCURVE",
"636 1861 OFFCURVE",
"608 1879 CURVE SMOOTH",
"580 1897 OFFCURVE",
"554 1914 OFFCURVE",
"513 1914 CURVE SMOOTH",
"493 1914 OFFCURVE",
"472 1905 OFFCURVE",
"456 1891 CURVE SMOOTH",
"440 1877 OFFCURVE",
"430 1858 OFFCURVE",
"430 1839 CURVE",
"353 1858 LINE",
"353 1898 OFFCURVE",
"371 1939 OFFCURVE",
"400 1969 CURVE SMOOTH",
"428 1999 OFFCURVE",
"469 2019 OFFCURVE",
"513 2019 CURVE SMOOTH",
"554 2019 OFFCURVE",
"586 2001 OFFCURVE",
"617 1984 CURVE SMOOTH",
"648 1967 OFFCURVE",
"678 1949 OFFCURVE",
"717 1949 CURVE SMOOTH",
"737 1949 OFFCURVE",
"758 1958 OFFCURVE",
"774 1972 CURVE SMOOTH",
"790 1986 OFFCURVE",
"800 2003 OFFCURVE",
"800 2022 CURVE"
);
}
);
width = 1164;
}
);
rightKerningGroup = E;
unicode = 1EC4;
},
{
glyphname = Edieresis;
layers = (
{
layerId = "41219E28-2757-4AEA-BAE1-DB5F37EB0A1D";
name = Regular;
paths = (
{
closed = 1;
nodes = (
"992 673 LINE",
"361 673 LINE",
"361 157 LINE",
"1094 157 LINE",
"1094 0 LINE",
"169 0 LINE",
"169 1456 LINE",
"1084 1456 LINE",
"1084 1298 LINE",
"361 1298 LINE",
"361 830 LINE",
"992 830 LINE"
);
},
{
closed = 1;
nodes = (
"298 1753 OFFCURVE",
"335 1799 OFFCURVE",
"407 1799 CURVE SMOOTH",
"479 1799 OFFCURVE",
"517 1753 OFFCURVE",
"517 1693 CURVE SMOOTH",
"517 1633 OFFCURVE",
"479 1588 OFFCURVE",
"407 1588 CURVE SMOOTH",
"335 1588 OFFCURVE",
"298 1633 OFFCURVE",
"298 1693 CURVE SMOOTH"
);
},
{
closed = 1;
nodes = (
"728 1751 OFFCURVE",
"765 1798 OFFCURVE",
"837 1798 CURVE SMOOTH",
"909 1798 OFFCURVE",
"947 1751 OFFCURVE",
"947 1691 CURVE SMOOTH",
"947 1631 OFFCURVE",
"909 1586 OFFCURVE",
"837 1586 CURVE SMOOTH",
"765 1586 OFFCURVE",
"728 1631 OFFCURVE",
"728 1691 CURVE SMOOTH"
);
}
);
width = 1164;
}
);
rightKerningGroup = E;
unicode = 00CB;
},
{
glyphname = Edotaccent;
layers = (
{
layerId = "41219E28-2757-4AEA-BAE1-DB5F37EB0A1D";
name = Regular;
paths = (
{
closed = 1;
nodes = (
"992 673 LINE",
"361 673 LINE",
"361 157 LINE",
"1094 157 LINE",
"1094 0 LINE",
"169 0 LINE",
"169 1456 LINE",
"1084 1456 LINE",
"1084 1298 LINE",
"361 1298 LINE",
"361 830 LINE",
"992 830 LINE"
);
},
{
closed = 1;
nodes = (
"511 1749 OFFCURVE",
"548 1796 OFFCURVE",
"620 1796 CURVE SMOOTH",
"692 1796 OFFCURVE",
"730 1749 OFFCURVE",
"730 1689 CURVE SMOOTH",
"730 1629 OFFCURVE",
"692 1584 OFFCURVE",
"620 1584 CURVE SMOOTH",
"548 1584 OFFCURVE",
"511 1629 OFFCURVE",
"511 1689 CURVE SMOOTH"
);
}
);
width = 1164;
}
);
rightKerningGroup = E;
unicode = 0116;
},
{
glyphname = Edotbelow;
layers = (
{
layerId = "41219E28-2757-4AEA-BAE1-DB5F37EB0A1D";
name = Regular;
paths = (
{
closed = 1;
nodes = (
"992 673 LINE",
"361 673 LINE",
"361 157 LINE",
"1094 157 LINE",
"1094 0 LINE",
"169 0 LINE",
"169 1456 LINE",
"1084 1456 LINE",
"1084 1298 LINE",
"361 1298 LINE",
"361 830 LINE",
"992 830 LINE"
);
},
{
closed = 1;
nodes = (
"504 -175 OFFCURVE",
"541 -128 OFFCURVE",
"613 -128 CURVE SMOOTH",
"685 -128 OFFCURVE",
"723 -175 OFFCURVE",
"723 -235 CURVE SMOOTH",
"723 -295 OFFCURVE",
"685 -340 OFFCURVE",
"613 -340 CURVE SMOOTH",
"541 -340 OFFCURVE",
"504 -295 OFFCURVE",
"504 -235 CURVE SMOOTH"
);
}
);
width = 1164;
}
);
rightKerningGroup = E;
unicode = 1EB8;
},
{
glyphname = Egrave;
layers = (
{
layerId = "41219E28-2757-4AEA-BAE1-DB5F37EB0A1D";
name = Regular;
paths = (
{
closed = 1;
nodes = (
"992 673 LINE",
"361 673 LINE",
"361 157 LINE",
"1094 157 LINE",
"1094 0 LINE",
"169 0 LINE",
"169 1456 LINE",
"1084 1456 LINE",
"1084 1298 LINE",
"361 1298 LINE",
"361 830 LINE",
"992 830 LINE"
);
},
{
closed = 1;
nodes = (
"725 1562 LINE",
"566 1562 LINE",
"308 1856 LINE",
"531 1856 LINE"
);
}
);
width = 1164;
}
);
rightKerningGroup = E;
unicode = 00C8;
},
{
glyphname = Ehookabove;
layers = (
{
layerId = "41219E28-2757-4AEA-BAE1-DB5F37EB0A1D";
name = Regular;
paths = (
{
closed = 1;
nodes = (
"992 673 LINE",
"361 673 LINE",
"361 157 LINE",
"1094 157 LINE",
"1094 0 LINE",
"169 0 LINE",
"169 1456 LINE",
"1084 1456 LINE",
"1084 1298 LINE",
"361 1298 LINE",
"361 830 LINE",
"992 830 LINE"
);
},
{
closed = 1;
nodes = (
"557 1579 LINE",
"556 1732 LINE",
"606 1735 OFFCURVE",
"643 1742 OFFCURVE",
"666 1752 CURVE SMOOTH",
"689 1762 OFFCURVE",
"701 1780 OFFCURVE",
"701 1806 CURVE SMOOTH",
"701 1834 OFFCURVE",
"683 1854 OFFCURVE",
"653 1866 CURVE SMOOTH",
"623 1878 OFFCURVE",
"580 1884 OFFCURVE",
"535 1884 CURVE",
"542 1990 LINE",
"741 1990 OFFCURVE",
"845 1915 OFFCURVE",
"845 1802 CURVE SMOOTH",
"845 1751 OFFCURVE",
"825 1716 OFFCURVE",
"797 1692 CURVE SMOOTH",
"768 1668 OFFCURVE",
"729 1655 OFFCURVE",
"690 1650 CURVE",
"689 1579 LINE"
);
}
);
width = 1164;
}
);
rightKerningGroup = E;
unicode = 1EBA;
},
{
glyphname = Emacron;
layers = (
{
layerId = "41219E28-2757-4AEA-BAE1-DB5F37EB0A1D";
name = Regular;
paths = (
{
closed = 1;
nodes = (
"992 673 LINE",
"361 673 LINE",
"361 157 LINE",
"1094 157 LINE",
"1094 0 LINE",
"169 0 LINE",
"169 1456 LINE",
"1084 1456 LINE",
"1084 1298 LINE",
"361 1298 LINE",
"361 830 LINE",
"992 830 LINE"
);
},
{
closed = 1;
nodes = (
"980 1643 LINE",
"266 1643 LINE",
"266 1786 LINE",
"980 1786 LINE"
);
}
);
width = 1164;
}
);
rightKerningGroup = E;
unicode = 0112;
},
{
glyphname = Eogonek;
layers = (
{
layerId = "41219E28-2757-4AEA-BAE1-DB5F37EB0A1D";
name = Regular;
paths = (
{
closed = 1;
nodes = (
"992 673 LINE",
"361 673 LINE",
"361 157 LINE",
"1094 157 LINE",
"1094 0 LINE",
"1021 0 LINE",
"978 -32 OFFCURVE",
"935 -65 OFFCURVE",
"903 -102 CURVE SMOOTH",
"871 -139 OFFCURVE",
"850 -178 OFFCURVE",
"850 -222 CURVE SMOOTH",
"850 -266 OFFCURVE",
"869 -294 OFFCURVE",
"928 -294 CURVE SMOOTH",
"972 -294 OFFCURVE",
"1007 -279 OFFCURVE",
"1028 -268 CURVE",
"1041 -389 LINE",
"1009 -409 OFFCURVE",
"961 -433 OFFCURVE",
"881 -433 CURVE SMOOTH",
"826 -433 OFFCURVE",
"779 -417 OFFCURVE",
"745 -385 CURVE SMOOTH",
"711 -353 OFFCURVE",
"689 -306 OFFCURVE",
"689 -243 CURVE SMOOTH",
"689 -159 OFFCURVE",
"736 -73 OFFCURVE",
"844 0 CURVE",
"169 0 LINE",
"169 1456 LINE",
"1084 1456 LINE",
"1084 1298 LINE",
"361 1298 LINE",
"361 830 LINE",
"992 830 LINE"
);
}
);
width = 1164;
}
);
rightKerningGroup = E;
unicode = 0118;
},
{
glyphname = Etilde;
layers = (
{
layerId = "41219E28-2757-4AEA-BAE1-DB5F37EB0A1D";
name = Regular;
paths = (
{
closed = 1;
nodes = (
"992 673 LINE",
"361 673 LINE",
"361 157 LINE",
"1094 157 LINE",
"1094 0 LINE",
"169 0 LINE",
"169 1456 LINE",
"1084 1456 LINE",
"1084 1298 LINE",
"361 1298 LINE",
"361 830 LINE",
"992 830 LINE"
);
},
{
closed = 1;
nodes = (
"974 1826 LINE",
"974 1753 OFFCURVE",
"951 1692 OFFCURVE",
"912 1650 CURVE SMOOTH",
"872 1608 OFFCURVE",
"819 1584 OFFCURVE",
"759 1584 CURVE SMOOTH",
"691 1584 OFFCURVE",
"651 1608 OFFCURVE",
"615 1632 CURVE SMOOTH",
"579 1655 OFFCURVE",
"546 1679 OFFCURVE",
"490 1679 CURVE SMOOTH",
"462 1679 OFFCURVE",
"438 1667 OFFCURVE",
"420 1647 CURVE SMOOTH",
"402 1627 OFFCURVE",
"391 1599 OFFCURVE",
"391 1567 CURVE",
"267 1574 LINE",
"267 1647 OFFCURVE",
"291 1709 OFFCURVE",
"329 1753 CURVE SMOOTH",
"367 1796 OFFCURVE",
"421 1821 OFFCURVE",
"481 1821 CURVE SMOOTH",
"538 1821 OFFCURVE",
"579 1797 OFFCURVE",
"619 1773 CURVE SMOOTH",
"658 1749 OFFCURVE",
"697 1725 OFFCURVE",
"750 1725 CURVE SMOOTH",
"778 1725 OFFCURVE",
"803 1737 OFFCURVE",
"821 1758 CURVE SMOOTH",
"839 1778 OFFCURVE",
"850 1806 OFFCURVE",
"850 1838 CURVE"
);
}
);
width = 1164;
}
);
rightKerningGroup = E;
unicode = 1EBC;
},
{
glyphname = F;
layers = (
{
layerId = "41219E28-2757-4AEA-BAE1-DB5F37EB0A1D";
name = Regular;
paths = (
{
closed = 1;
nodes = (
"972 643 LINE",
"361 643 LINE",
"361 0 LINE",
"169 0 LINE",
"169 1456 LINE",
"1071 1456 LINE",
"1071 1298 LINE",
"361 1298 LINE",
"361 800 LINE",
"972 800 LINE"
);
}
);
width = 1132;
}
);
unicode = 0046;
},
{
glyphname = G;
layers = (
{
layerId = "41219E28-2757-4AEA-BAE1-DB5F37EB0A1D";
name = Regular;
paths = (
{
closed = 1;
nodes = (
"1244 191 LINE",
"1216 151 OFFCURVE",
"1169 99 OFFCURVE",
"1089 56 CURVE SMOOTH",
"1008 13 OFFCURVE",
"893 -20 OFFCURVE",
"729 -20 CURVE SMOOTH",
"552 -20 OFFCURVE",
"400 45 OFFCURVE",
"293 163 CURVE SMOOTH",
"185 281 OFFCURVE",
"122 454 OFFCURVE",
"122 671 CURVE SMOOTH",
"122 785 LINE SMOOTH",
"122 1002 OFFCURVE",
"174 1174 OFFCURVE",
"274 1293 CURVE SMOOTH",
"373 1412 OFFCURVE",
"519 1476 OFFCURVE",
"707 1476 CURVE SMOOTH",
"874 1476 OFFCURVE",
"998 1429 OFFCURVE",
"1086 1350 CURVE SMOOTH",
"1174 1270 OFFCURVE",
"1225 1158 OFFCURVE",
"1244 1029 CURVE",
"1052 1029 LINE",
"1037 1108 OFFCURVE",
"1008 1180 OFFCURVE",
"953 1233 CURVE SMOOTH",
"898 1285 OFFCURVE",
"820 1318 OFFCURVE",
"708 1318 CURVE SMOOTH",
"572 1318 OFFCURVE",
"474 1267 OFFCURVE",
"410 1175 CURVE SMOOTH",
"346 1083 OFFCURVE",
"315 951 OFFCURVE",
"315 787 CURVE SMOOTH",
"315 671 LINE SMOOTH",
"315 503 OFFCURVE",
"357 370 OFFCURVE",
"430 278 CURVE SMOOTH",
"502 186 OFFCURVE",
"606 137 OFFCURVE",
"730 137 CURVE SMOOTH",
"834 137 OFFCURVE",
"905 153 OFFCURVE",
"955 174 CURVE SMOOTH",
"1005 194 OFFCURVE",
"1033 221 OFFCURVE",
"1053 242 CURVE",
"1053 569 LINE",
"716 569 LINE",
"716 725 LINE",
"1244 725 LINE"
);
}
);
width = 1395;
}
);
leftKerningGroup = C;
unicode = 0047;
},
{
glyphname = Gbreve;
layers = (
{
layerId = "41219E28-2757-4AEA-BAE1-DB5F37EB0A1D";
name = Regular;
paths = (
{
closed = 1;
nodes = (
"1244 191 LINE",
"1216 151 OFFCURVE",
"1169 99 OFFCURVE",
"1089 56 CURVE SMOOTH",
"1008 13 OFFCURVE",
"893 -20 OFFCURVE",
"729 -20 CURVE SMOOTH",
"552 -20 OFFCURVE",
"400 45 OFFCURVE",
"293 163 CURVE SMOOTH",
"185 281 OFFCURVE",
"122 454 OFFCURVE",
"122 671 CURVE SMOOTH",
"122 785 LINE SMOOTH",
"122 1002 OFFCURVE",
"174 1174 OFFCURVE",
"274 1293 CURVE SMOOTH",
"373 1412 OFFCURVE",
"519 1476 OFFCURVE",
"707 1476 CURVE SMOOTH",
"874 1476 OFFCURVE",
"998 1429 OFFCURVE",
"1086 1350 CURVE SMOOTH",
"1174 1270 OFFCURVE",
"1225 1158 OFFCURVE",
"1244 1029 CURVE",
"1052 1029 LINE",
"1037 1108 OFFCURVE",
"1008 1180 OFFCURVE",
"953 1233 CURVE SMOOTH",
"898 1285 OFFCURVE",
"820 1318 OFFCURVE",
"708 1318 CURVE SMOOTH",
"572 1318 OFFCURVE",
"474 1267 OFFCURVE",
"410 1175 CURVE SMOOTH",
"346 1083 OFFCURVE",
"315 951 OFFCURVE",
"315 787 CURVE SMOOTH",
"315 671 LINE SMOOTH",
"315 503 OFFCURVE",
"357 370 OFFCURVE",
"430 278 CURVE SMOOTH",
"502 186 OFFCURVE",
"606 137 OFFCURVE",
"730 137 CURVE SMOOTH",
"834 137 OFFCURVE",
"905 153 OFFCURVE",
"955 174 CURVE SMOOTH",
"1005 194 OFFCURVE",
"1033 221 OFFCURVE",
"1053 242 CURVE",
"1053 569 LINE",
"716 569 LINE",
"716 725 LINE",
"1244 725 LINE"
);
},
{
closed = 1;
nodes = (
"971 1839 LINE",
"971 1760 OFFCURVE",
"943 1694 OFFCURVE",
"891 1647 CURVE SMOOTH",
"839 1599 OFFCURVE",
"764 1571 OFFCURVE",
"672 1571 CURVE SMOOTH",
"580 1571 OFFCURVE",
"505 1599 OFFCURVE",
"453 1647 CURVE SMOOTH",
"401 1694 OFFCURVE",
"372 1760 OFFCURVE",
"372 1839 CURVE",
"523 1839 LINE",
"523 1799 OFFCURVE",
"533 1762 OFFCURVE",
"557 1735 CURVE",
"580 1707 OFFCURVE",
"617 1690 OFFCURVE",
"672 1690 CURVE SMOOTH",
"725 1690 OFFCURVE",
"763 1707 OFFCURVE",
"787 1735 CURVE SMOOTH",
"811 1762 OFFCURVE",
"821 1799 OFFCURVE",
"821 1839 CURVE"
);
}
);
width = 1395;
}
);
leftKerningGroup = C;
unicode = 011E;
},
{
glyphname = Gcircumflex;
layers = (
{
layerId = "41219E28-2757-4AEA-BAE1-DB5F37EB0A1D";
name = Regular;
paths = (
{
closed = 1;
nodes = (
"1244 191 LINE",
"1216 151 OFFCURVE",
"1169 99 OFFCURVE",
"1089 56 CURVE SMOOTH",
"1008 13 OFFCURVE",
"893 -20 OFFCURVE",
"729 -20 CURVE SMOOTH",
"552 -20 OFFCURVE",
"400 45 OFFCURVE",
"293 163 CURVE SMOOTH",
"185 281 OFFCURVE",
"122 454 OFFCURVE",
"122 671 CURVE SMOOTH",
"122 785 LINE SMOOTH",
"122 1002 OFFCURVE",
"174 1174 OFFCURVE",
"274 1293 CURVE SMOOTH",
"373 1412 OFFCURVE",
"519 1476 OFFCURVE",
"707 1476 CURVE SMOOTH",
"874 1476 OFFCURVE",
"998 1429 OFFCURVE",
"1086 1350 CURVE SMOOTH",
"1174 1270 OFFCURVE",
"1225 1158 OFFCURVE",
"1244 1029 CURVE",
"1052 1029 LINE",
"1037 1108 OFFCURVE",
"1008 1180 OFFCURVE",
"953 1233 CURVE SMOOTH",
"898 1285 OFFCURVE",
"820 1318 OFFCURVE",
"708 1318 CURVE SMOOTH",
"572 1318 OFFCURVE",
"474 1267 OFFCURVE",
"410 1175 CURVE SMOOTH",
"346 1083 OFFCURVE",
"315 951 OFFCURVE",
"315 787 CURVE SMOOTH",
"315 671 LINE SMOOTH",
"315 503 OFFCURVE",
"357 370 OFFCURVE",
"430 278 CURVE SMOOTH",
"502 186 OFFCURVE",
"606 137 OFFCURVE",
"730 137 CURVE SMOOTH",
"834 137 OFFCURVE",
"905 153 OFFCURVE",
"955 174 CURVE SMOOTH",
"1005 194 OFFCURVE",
"1033 221 OFFCURVE",
"1053 242 CURVE",
"1053 569 LINE",
"716 569 LINE",
"716 725 LINE",
"1244 725 LINE"
);
},
{
closed = 1;
nodes = (
"974 1605 LINE",
"974 1595 LINE",
"821 1595 LINE",
"671 1765 LINE",
"522 1595 LINE",
"369 1595 LINE",
"369 1607 LINE",
"615 1879 LINE",
"727 1879 LINE"
);
}
);
width = 1395;
}
);
leftKerningGroup = C;
unicode = 011C;
},
{
glyphname = Gcommaaccent;
layers = (
{
layerId = "41219E28-2757-4AEA-BAE1-DB5F37EB0A1D";
name = Regular;
paths = (
{
closed = 1;
nodes = (
"1244 191 LINE",
"1216 151 OFFCURVE",
"1169 99 OFFCURVE",
"1089 56 CURVE SMOOTH",
"1008 13 OFFCURVE",
"893 -20 OFFCURVE",
"729 -20 CURVE SMOOTH",
"552 -20 OFFCURVE",
"400 45 OFFCURVE",
"293 163 CURVE SMOOTH",
"185 281 OFFCURVE",
"122 454 OFFCURVE",
"122 671 CURVE SMOOTH",
"122 785 LINE SMOOTH",
"122 1002 OFFCURVE",
"174 1174 OFFCURVE",
"274 1293 CURVE SMOOTH",
"373 1412 OFFCURVE",
"519 1476 OFFCURVE",
"707 1476 CURVE SMOOTH",
"874 1476 OFFCURVE",
"998 1429 OFFCURVE",
"1086 1350 CURVE SMOOTH",
"1174 1270 OFFCURVE",
"1225 1158 OFFCURVE",
"1244 1029 CURVE",
"1052 1029 LINE",
"1037 1108 OFFCURVE",
"1008 1180 OFFCURVE",
"953 1233 CURVE SMOOTH",
"898 1285 OFFCURVE",
"820 1318 OFFCURVE",
"708 1318 CURVE SMOOTH",
"572 1318 OFFCURVE",
"474 1267 OFFCURVE",
"410 1175 CURVE SMOOTH",
"346 1083 OFFCURVE",
"315 951 OFFCURVE",
"315 787 CURVE SMOOTH",
"315 671 LINE SMOOTH",
"315 503 OFFCURVE",
"357 370 OFFCURVE",
"430 278 CURVE SMOOTH",
"502 186 OFFCURVE",
"606 137 OFFCURVE",
"730 137 CURVE SMOOTH",
"834 137 OFFCURVE",
"905 153 OFFCURVE",
"955 174 CURVE SMOOTH",
"1005 194 OFFCURVE",
"1033 221 OFFCURVE",
"1053 242 CURVE",
"1053 569 LINE",
"716 569 LINE",
"716 725 LINE",
"1244 725 LINE"
);
},
{
closed = 1;
nodes = (
"762 -201 LINE SMOOTH",
"762 -254 OFFCURVE",
"750 -314 OFFCURVE",
"726 -371 CURVE SMOOTH",
"702 -428 OFFCURVE",
"665 -482 OFFCURVE",
"616 -522 CURVE",
"511 -450 LINE",
"562 -373 OFFCURVE",
"585 -296 OFFCURVE",
"585 -204 CURVE SMOOTH",
"585 -122 LINE",
"762 -122 LINE"
);
}
);
width = 1395;
}
);
leftKerningGroup = C;
unicode = 0122;
},
{
glyphname = Gdotaccent;
layers = (
{
layerId = "41219E28-2757-4AEA-BAE1-DB5F37EB0A1D";
name = Regular;
paths = (
{
closed = 1;
nodes = (
"1244 191 LINE",
"1216 151 OFFCURVE",
"1169 99 OFFCURVE",
"1089 56 CURVE SMOOTH",
"1008 13 OFFCURVE",
"893 -20 OFFCURVE",
"729 -20 CURVE SMOOTH",
"552 -20 OFFCURVE",
"400 45 OFFCURVE",
"293 163 CURVE SMOOTH",
"185 281 OFFCURVE",
"122 454 OFFCURVE",
"122 671 CURVE SMOOTH",
"122 785 LINE SMOOTH",
"122 1002 OFFCURVE",
"174 1174 OFFCURVE",
"274 1293 CURVE SMOOTH",
"373 1412 OFFCURVE",
"519 1476 OFFCURVE",
"707 1476 CURVE SMOOTH",
"874 1476 OFFCURVE",
"998 1429 OFFCURVE",
"1086 1350 CURVE SMOOTH",
"1174 1270 OFFCURVE",
"1225 1158 OFFCURVE",
"1244 1029 CURVE",
"1052 1029 LINE",
"1037 1108 OFFCURVE",
"1008 1180 OFFCURVE",
"953 1233 CURVE SMOOTH",
"898 1285 OFFCURVE",
"820 1318 OFFCURVE",
"708 1318 CURVE SMOOTH",
"572 1318 OFFCURVE",
"474 1267 OFFCURVE",
"410 1175 CURVE SMOOTH",
"346 1083 OFFCURVE",
"315 951 OFFCURVE",
"315 787 CURVE SMOOTH",
"315 671 LINE SMOOTH",
"315 503 OFFCURVE",
"357 370 OFFCURVE",
"430 278 CURVE SMOOTH",
"502 186 OFFCURVE",
"606 137 OFFCURVE",
"730 137 CURVE SMOOTH",
"834 137 OFFCURVE",
"905 153 OFFCURVE",
"955 174 CURVE SMOOTH",
"1005 194 OFFCURVE",
"1033 221 OFFCURVE",
"1053 242 CURVE",
"1053 569 LINE",
"716 569 LINE",
"716 725 LINE",
"1244 725 LINE"
);
},
{
closed = 1;
nodes = (
"563 1770 OFFCURVE",
"600 1817 OFFCURVE",
"672 1817 CURVE SMOOTH",
"744 1817 OFFCURVE",
"782 1770 OFFCURVE",
"782 1710 CURVE SMOOTH",
"782 1650 OFFCURVE",
"744 1605 OFFCURVE",
"672 1605 CURVE SMOOTH",
"600 1605 OFFCURVE",
"563 1650 OFFCURVE",
"563 1710 CURVE SMOOTH"
);
}
);
width = 1395;
}
);
leftKerningGroup = C;
unicode = 0120;
},
{
glyphname = H;
layers = (
{
layerId = "41219E28-2757-4AEA-BAE1-DB5F37EB0A1D";
name = Regular;
paths = (
{
closed = 1;
nodes = (
"1288 0 LINE",
"1095 0 LINE",
"1095 673 LINE",
"361 673 LINE",
"361 0 LINE",
"169 0 LINE",
"169 1456 LINE",
"361 1456 LINE",
"361 830 LINE",
"1095 830 LINE",
"1095 1456 LINE",
"1288 1456 LINE"
);
}
);
width = 1460;
}
);
rightKerningGroup = H;
unicode = 0048;
},
{
glyphname = Hbar;
layers = (
{
layerId = "41219E28-2757-4AEA-BAE1-DB5F37EB0A1D";
name = Regular;
paths = (
{
closed = 1;
nodes = (
"1282 1167 LINE",
"1417 1167 LINE",
"1417 1024 LINE",
"1282 1024 LINE",
"1282 0 LINE",
"1089 0 LINE",
"1089 673 LINE",
"355 673 LINE",
"355 0 LINE",
"163 0 LINE",
"163 1024 LINE",
"30 1024 LINE",
"30 1167 LINE",
"163 1167 LINE",
"163 1456 LINE",
"355 1456 LINE",
"355 1167 LINE",
"1089 1167 LINE",
"1089 1456 LINE",
"1282 1456 LINE"
);
},
{
closed = 1;
nodes = (
"355 830 LINE",
"1089 830 LINE",
"1089 1024 LINE",
"355 1024 LINE"
);
}
);
width = 1435;
}
);
unicode = 0126;
},
{
glyphname = Hcircumflex;
layers = (
{
layerId = "41219E28-2757-4AEA-BAE1-DB5F37EB0A1D";
name = Regular;
paths = (
{
closed = 1;
nodes = (
"1288 0 LINE",
"1095 0 LINE",
"1095 673 LINE",
"361 673 LINE",
"361 0 LINE",
"169 0 LINE",
"169 1456 LINE",
"361 1456 LINE",
"361 830 LINE",
"1095 830 LINE",
"1095 1456 LINE",
"1288 1456 LINE"
);
},
{
closed = 1;
nodes = (
"1015 1584 LINE",
"1015 1574 LINE",
"862 1574 LINE",
"712 1744 LINE",
"563 1574 LINE",
"410 1574 LINE",
"410 1586 LINE",
"656 1858 LINE",
"768 1858 LINE"
);
}
);
width = 1460;
}
);
rightKerningGroup = H;
unicode = 0124;
},
{
glyphname = I;
layers = (
{
layerId = "41219E28-2757-4AEA-BAE1-DB5F37EB0A1D";
name = Regular;
paths = (
{
closed = 1;
nodes = (
"375 0 LINE",
"183 0 LINE",
"183 1456 LINE",
"375 1456 LINE"
);
}
);
width = 557;
}
);
rightKerningGroup = H;
unicode = 0049;
},
{
glyphname = IJ;
layers = (
{
layerId = "41219E28-2757-4AEA-BAE1-DB5F37EB0A1D";
name = Regular;
paths = (
{
closed = 1;
nodes = (
"375 0 LINE",
"183 0 LINE",
"183 1456 LINE",
"375 1456 LINE"
);
},
{
closed = 1;
nodes = (
"1336 1456 LINE",
"1529 1456 LINE",
"1529 425 LINE SMOOTH",
"1529 281 OFFCURVE",
"1482 169 OFFCURVE",
"1400 94 CURVE SMOOTH",
"1318 19 OFFCURVE",
"1202 -20 OFFCURVE",
"1069 -20 CURVE SMOOTH",
"934 -20 OFFCURVE",
"820 14 OFFCURVE",
"739 84 CURVE SMOOTH",
"658 154 OFFCURVE",
"610 259 OFFCURVE",
"610 402 CURVE",
"802 402 LINE",
"802 310 OFFCURVE",
"830 244 OFFCURVE",
"877 201 CURVE SMOOTH",
"924 157 OFFCURVE",
"990 137 OFFCURVE",
"1069 137 CURVE SMOOTH",
"1145 137 OFFCURVE",
"1212 162 OFFCURVE",
"1260 210 CURVE SMOOTH",
"1308 258 OFFCURVE",
"1336 330 OFFCURVE",
"1336 425 CURVE SMOOTH"
);
}
);
width = 1687;
}
);
unicode = 0132;
},
{
glyphname = Iacute;
layers = (
{
layerId = "41219E28-2757-4AEA-BAE1-DB5F37EB0A1D";
name = Regular;
paths = (
{
closed = 1;
nodes = (
"375 0 LINE",
"183 0 LINE",
"183 1456 LINE",
"375 1456 LINE"
);
},
{
closed = 1;
nodes = (
"369 1856 LINE",
"593 1856 LINE",
"325 1562 LINE",
"176 1562 LINE"
);
}
);
width = 557;
}
);
rightKerningGroup = H;
unicode = 00CD;
},
{
glyphname = Ibreve;
layers = (
{
layerId = "41219E28-2757-4AEA-BAE1-DB5F37EB0A1D";
name = Regular;
paths = (
{
closed = 1;
nodes = (
"375 0 LINE",
"183 0 LINE",
"183 1456 LINE",
"375 1456 LINE"
);
},
{
closed = 1;
nodes = (
"579 1818 LINE",
"579 1739 OFFCURVE",
"551 1673 OFFCURVE",
"499 1626 CURVE SMOOTH",
"447 1578 OFFCURVE",
"372 1550 OFFCURVE",
"280 1550 CURVE SMOOTH",
"188 1550 OFFCURVE",
"113 1578 OFFCURVE",
"61 1626 CURVE SMOOTH",
"9 1673 OFFCURVE",
"-20 1739 OFFCURVE",
"-20 1818 CURVE",
"131 1818 LINE",
"131 1778 OFFCURVE",
"141 1741 OFFCURVE",
"165 1714 CURVE",
"188 1686 OFFCURVE",
"225 1669 OFFCURVE",
"280 1669 CURVE SMOOTH",
"333 1669 OFFCURVE",
"371 1686 OFFCURVE",
"395 1714 CURVE SMOOTH",
"419 1741 OFFCURVE",
"429 1778 OFFCURVE",
"429 1818 CURVE"
);
}
);
width = 557;
}
);
rightKerningGroup = H;
unicode = 012C;
},
{
glyphname = Icircumflex;
layers = (
{
layerId = "41219E28-2757-4AEA-BAE1-DB5F37EB0A1D";
name = Regular;
paths = (
{
closed = 1;
nodes = (
"375 0 LINE",
"183 0 LINE",
"183 1456 LINE",
"375 1456 LINE"
);
},
{
closed = 1;
nodes = (
"582 1584 LINE",
"582 1574 LINE",
"429 1574 LINE",
"279 1744 LINE",
"130 1574 LINE",
"-23 1574 LINE",
"-23 1586 LINE",
"223 1858 LINE",
"335 1858 LINE"
);
}
);
width = 557;
}
);
rightKerningGroup = H;
unicode = 00CE;
},
{
glyphname = Idieresis;
layers = (
{
layerId = "41219E28-2757-4AEA-BAE1-DB5F37EB0A1D";
name = Regular;
paths = (
{
closed = 1;
nodes = (
"375 0 LINE",
"183 0 LINE",
"183 1456 LINE",
"375 1456 LINE"
);
},
{
closed = 1;
nodes = (
"-42 1753 OFFCURVE",
"-5 1799 OFFCURVE",
"67 1799 CURVE SMOOTH",
"139 1799 OFFCURVE",
"177 1753 OFFCURVE",
"177 1693 CURVE SMOOTH",
"177 1633 OFFCURVE",
"139 1588 OFFCURVE",
"67 1588 CURVE SMOOTH",
"-5 1588 OFFCURVE",
"-42 1633 OFFCURVE",
"-42 1693 CURVE SMOOTH"
);
},
{
closed = 1;
nodes = (
"388 1751 OFFCURVE",
"425 1798 OFFCURVE",
"497 1798 CURVE SMOOTH",
"569 1798 OFFCURVE",
"607 1751 OFFCURVE",
"607 1691 CURVE SMOOTH",
"607 1631 OFFCURVE",
"569 1586 OFFCURVE",
"497 1586 CURVE SMOOTH",
"425 1586 OFFCURVE",
"388 1631 OFFCURVE",
"388 1691 CURVE SMOOTH"
);
}
);
width = 557;
}
);
rightKerningGroup = H;
unicode = 00CF;
},
{
glyphname = Idotaccent;
layers = (
{
layerId = "41219E28-2757-4AEA-BAE1-DB5F37EB0A1D";
name = Regular;
paths = (
{
closed = 1;
nodes = (
"375 0 LINE",
"183 0 LINE",
"183 1456 LINE",
"375 1456 LINE"
);
},
{
closed = 1;
nodes = (
"170 1749 OFFCURVE",
"207 1796 OFFCURVE",
"279 1796 CURVE SMOOTH",
"351 1796 OFFCURVE",
"389 1749 OFFCURVE",
"389 1689 CURVE SMOOTH",
"389 1629 OFFCURVE",
"351 1584 OFFCURVE",
"279 1584 CURVE SMOOTH",
"207 1584 OFFCURVE",
"170 1629 OFFCURVE",
"170 1689 CURVE SMOOTH"
);
}
);
width = 557;
}
);
rightKerningGroup = H;
unicode = 0130;
},
{
glyphname = Idotbelow;
layers = (
{
layerId = "41219E28-2757-4AEA-BAE1-DB5F37EB0A1D";
name = Regular;
paths = (
{
closed = 1;
nodes = (
"375 0 LINE",
"183 0 LINE",
"183 1456 LINE",
"375 1456 LINE"
);
},
{
closed = 1;
nodes = (
"163 -176 OFFCURVE",
"200 -129 OFFCURVE",
"272 -129 CURVE SMOOTH",
"344 -129 OFFCURVE",
"382 -176 OFFCURVE",
"382 -236 CURVE SMOOTH",
"382 -296 OFFCURVE",
"344 -341 OFFCURVE",
"272 -341 CURVE SMOOTH",
"200 -341 OFFCURVE",
"163 -296 OFFCURVE",
"163 -236 CURVE SMOOTH"
);
}
);
width = 557;
}
);
rightKerningGroup = H;
unicode = 1ECA;
},
{
glyphname = Igrave;
layers = (
{
layerId = "41219E28-2757-4AEA-BAE1-DB5F37EB0A1D";
name = Regular;
paths = (
{
closed = 1;
nodes = (
"375 0 LINE",
"183 0 LINE",
"183 1456 LINE",
"375 1456 LINE"
);
},
{
closed = 1;
nodes = (
"385 1562 LINE",
"226 1562 LINE",
"-32 1856 LINE",
"191 1856 LINE"
);
}
);
width = 557;
}
);
rightKerningGroup = H;
unicode = 00CC;
},
{
glyphname = Ihookabove;
layers = (
{
layerId = "41219E28-2757-4AEA-BAE1-DB5F37EB0A1D";
name = Regular;
paths = (
{
closed = 1;
nodes = (
"375 0 LINE",
"183 0 LINE",
"183 1456 LINE",
"375 1456 LINE"
);
},
{
closed = 1;
nodes = (
"216 1579 LINE",
"215 1732 LINE",
"265 1735 OFFCURVE",
"302 1742 OFFCURVE",
"325 1752 CURVE SMOOTH",
"348 1762 OFFCURVE",
"360 1780 OFFCURVE",
"360 1806 CURVE SMOOTH",
"360 1834 OFFCURVE",
"342 1854 OFFCURVE",
"312 1866 CURVE SMOOTH",
"282 1878 OFFCURVE",
"239 1884 OFFCURVE",
"194 1884 CURVE",
"201 1990 LINE",
"400 1990 OFFCURVE",
"504 1915 OFFCURVE",
"504 1802 CURVE SMOOTH",
"504 1751 OFFCURVE",
"484 1716 OFFCURVE",
"456 1692 CURVE SMOOTH",
"427 1668 OFFCURVE",
"388 1655 OFFCURVE",
"349 1650 CURVE",
"348 1579 LINE"
);
}
);
width = 557;
}
);
rightKerningGroup = H;
unicode = 1EC8;
},
{
glyphname = Imacron;
layers = (
{
layerId = "41219E28-2757-4AEA-BAE1-DB5F37EB0A1D";
name = Regular;
paths = (
{
closed = 1;
nodes = (
"375 0 LINE",
"183 0 LINE",
"183 1456 LINE",
"375 1456 LINE"
);
},
{
closed = 1;
nodes = (
"640 1643 LINE",
"-74 1643 LINE",
"-74 1786 LINE",
"640 1786 LINE"
);
}
);
width = 557;
}
);
rightKerningGroup = H;
unicode = 012A;
},
{
glyphname = Iogonek;
layers = (
{
layerId = "41219E28-2757-4AEA-BAE1-DB5F37EB0A1D";
name = Regular;
paths = (
{
closed = 1;
nodes = (
"375 0 LINE",
"341 0 LINE",
"298 -32 OFFCURVE",
"255 -65 OFFCURVE",
"223 -102 CURVE SMOOTH",
"191 -139 OFFCURVE",
"170 -178 OFFCURVE",
"170 -222 CURVE SMOOTH",
"170 -266 OFFCURVE",
"189 -294 OFFCURVE",
"248 -294 CURVE SMOOTH",
"292 -294 OFFCURVE",
"327 -279 OFFCURVE",
"348 -268 CURVE",
"361 -389 LINE",
"329 -409 OFFCURVE",
"281 -433 OFFCURVE",
"201 -433 CURVE SMOOTH",
"146 -433 OFFCURVE",
"99 -417 OFFCURVE",
"65 -385 CURVE SMOOTH",
"31 -353 OFFCURVE",
"9 -306 OFFCURVE",
"9 -243 CURVE SMOOTH",
"9 -154 OFFCURVE",
"60 -65 OFFCURVE",
"183 11 CURVE",
"183 1456 LINE",
"375 1456 LINE"
);
}
);
width = 557;
}
);
rightKerningGroup = H;
unicode = 012E;
},
{
glyphname = Itilde;
layers = (
{
layerId = "41219E28-2757-4AEA-BAE1-DB5F37EB0A1D";
name = Regular;
paths = (
{
closed = 1;
nodes = (
"375 0 LINE",
"183 0 LINE",
"183 1456 LINE",
"375 1456 LINE"
);
},
{
closed = 1;
nodes = (
"634 1826 LINE",
"634 1753 OFFCURVE",
"611 1692 OFFCURVE",
"572 1650 CURVE SMOOTH",
"532 1608 OFFCURVE",
"479 1584 OFFCURVE",
"419 1584 CURVE SMOOTH",
"351 1584 OFFCURVE",
"311 1608 OFFCURVE",
"275 1632 CURVE SMOOTH",
"239 1655 OFFCURVE",
"206 1679 OFFCURVE",
"150 1679 CURVE SMOOTH",
"122 1679 OFFCURVE",
"98 1667 OFFCURVE",
"80 1647 CURVE SMOOTH",
"62 1627 OFFCURVE",
"51 1599 OFFCURVE",
"51 1567 CURVE",
"-73 1574 LINE",
"-73 1647 OFFCURVE",
"-49 1709 OFFCURVE",
"-11 1753 CURVE SMOOTH",
"27 1796 OFFCURVE",
"81 1821 OFFCURVE",
"141 1821 CURVE SMOOTH",
"198 1821 OFFCURVE",
"239 1797 OFFCURVE",
"279 1773 CURVE SMOOTH",
"318 1749 OFFCURVE",
"357 1725 OFFCURVE",
"410 1725 CURVE SMOOTH",
"438 1725 OFFCURVE",
"463 1737 OFFCURVE",
"481 1758 CURVE SMOOTH",
"499 1778 OFFCURVE",
"510 1806 OFFCURVE",
"510 1838 CURVE"
);
}
);
width = 557;
}
);
rightKerningGroup = H;
unicode = 0128;
},
{
glyphname = J;
layers = (
{
layerId = "41219E28-2757-4AEA-BAE1-DB5F37EB0A1D";
name = Regular;
paths = (
{
closed = 1;
nodes = (
"779 1456 LINE",
"972 1456 LINE",
"972 425 LINE SMOOTH",
"972 281 OFFCURVE",
"925 169 OFFCURVE",
"843 94 CURVE SMOOTH",
"761 19 OFFCURVE",
"645 -20 OFFCURVE",
"512 -20 CURVE SMOOTH",
"377 -20 OFFCURVE",
"263 14 OFFCURVE",
"182 84 CURVE SMOOTH",
"101 154 OFFCURVE",
"53 259 OFFCURVE",
"53 402 CURVE",
"245 402 LINE",
"245 310 OFFCURVE",
"273 244 OFFCURVE",
"320 201 CURVE SMOOTH",
"367 157 OFFCURVE",
"433 137 OFFCURVE",
"512 137 CURVE SMOOTH",
"588 137 OFFCURVE",
"655 162 OFFCURVE",
"703 210 CURVE SMOOTH",
"751 258 OFFCURVE",
"779 330 OFFCURVE",
"779 425 CURVE SMOOTH"
);
}
);
width = 1130;
}
);
leftKerningGroup = J;
rightKerningGroup = J;
unicode = 004A;
},
{
glyphname = Jcircumflex;
layers = (
{
layerId = "41219E28-2757-4AEA-BAE1-DB5F37EB0A1D";
name = Regular;
paths = (
{
closed = 1;
nodes = (
"779 1456 LINE",
"972 1456 LINE",
"972 425 LINE SMOOTH",
"972 281 OFFCURVE",
"925 169 OFFCURVE",
"843 94 CURVE SMOOTH",
"761 19 OFFCURVE",
"645 -20 OFFCURVE",
"512 -20 CURVE SMOOTH",
"377 -20 OFFCURVE",
"263 14 OFFCURVE",
"182 84 CURVE SMOOTH",
"101 154 OFFCURVE",
"53 259 OFFCURVE",
"53 402 CURVE",
"245 402 LINE",
"245 310 OFFCURVE",
"273 244 OFFCURVE",
"320 201 CURVE SMOOTH",
"367 157 OFFCURVE",
"433 137 OFFCURVE",
"512 137 CURVE SMOOTH",
"588 137 OFFCURVE",
"655 162 OFFCURVE",
"703 210 CURVE SMOOTH",
"751 258 OFFCURVE",
"779 330 OFFCURVE",
"779 425 CURVE SMOOTH"
);
},
{
closed = 1;
nodes = (
"1154 1571 LINE",
"1154 1561 LINE",
"1001 1561 LINE",
"851 1731 LINE",
"702 1561 LINE",
"549 1561 LINE",
"549 1573 LINE",
"795 1845 LINE",
"907 1845 LINE"
);
}
);
width = 1130;
}
);
leftKerningGroup = J;
rightKerningGroup = J;
unicode = 0134;
},
{
glyphname = K;
layers = (
{
layerId = "41219E28-2757-4AEA-BAE1-DB5F37EB0A1D";
name = Regular;
paths = (
{
closed = 1;
nodes = (
"539 677 LINE",
"361 492 LINE",
"361 0 LINE",
"169 0 LINE",
"169 1456 LINE",
"361 1456 LINE",
"361 736 LINE",
"519 912 LINE",
"1008 1456 LINE",
"1240 1456 LINE",
"667 813 LINE",
"1285 0 LINE",
"1055 0 LINE"
);
}
);
width = 1284;
}
);
rightKerningGroup = K;
unicode = 004B;
},
{
glyphname = Kcommaaccent;
layers = (
{
layerId = "41219E28-2757-4AEA-BAE1-DB5F37EB0A1D";
name = Regular;
paths = (
{
closed = 1;
nodes = (
"539 677 LINE",
"361 492 LINE",
"361 0 LINE",
"169 0 LINE",
"169 1456 LINE",
"361 1456 LINE",
"361 736 LINE",
"519 912 LINE",
"1008 1456 LINE",
"1240 1456 LINE",
"667 813 LINE",
"1285 0 LINE",
"1055 0 LINE"
);
},
{
closed = 1;
nodes = (
"747 -103 LINE SMOOTH",
"747 -156 OFFCURVE",
"735 -216 OFFCURVE",
"711 -273 CURVE SMOOTH",
"687 -330 OFFCURVE",
"650 -384 OFFCURVE",
"601 -424 CURVE",
"496 -352 LINE",
"547 -275 OFFCURVE",
"570 -198 OFFCURVE",
"570 -106 CURVE SMOOTH",
"570 -24 LINE",
"747 -24 LINE"
);
}
);
width = 1284;
}
);
rightKerningGroup = K;
unicode = 0136;
},
{
glyphname = L;
layers = (
{
layerId = "41219E28-2757-4AEA-BAE1-DB5F37EB0A1D";
name = Regular;
paths = (
{
closed = 1;
nodes = (
"362 157 LINE",
"1052 157 LINE",
"1052 0 LINE",
"169 0 LINE",
"169 1456 LINE",
"362 1456 LINE"
);
}
);
width = 1102;
}
);
rightKerningGroup = L;
unicode = 004C;
},
{
glyphname = Lacute;
layers = (
{
layerId = "41219E28-2757-4AEA-BAE1-DB5F37EB0A1D";
name = Regular;
paths = (
{
closed = 1;
nodes = (
"362 157 LINE",
"1052 157 LINE",
"1052 0 LINE",
"169 0 LINE",
"169 1456 LINE",
"362 1456 LINE"
);
},
{
closed = 1;
nodes = (
"354 1839 LINE",
"578 1839 LINE",
"310 1545 LINE",
"161 1545 LINE"
);
}
);
width = 1102;
}
);
rightKerningGroup = L;
unicode = 0139;
},
{
glyphname = Lcaron;
layers = (
{
layerId = "41219E28-2757-4AEA-BAE1-DB5F37EB0A1D";
name = Regular;
paths = (
{
closed = 1;
nodes = (
"362 157 LINE",
"1052 157 LINE",
"1052 0 LINE",
"169 0 LINE",
"169 1456 LINE",
"362 1456 LINE"
);
},
{
closed = 1;
nodes = (
"858 1328 LINE SMOOTH",
"858 1267 OFFCURVE",
"843 1199 OFFCURVE",
"813 1135 CURVE SMOOTH",
"783 1071 OFFCURVE",
"740 1011 OFFCURVE",
"684 966 CURVE",
"579 1038 LINE",
"642 1126 OFFCURVE",
"675 1216 OFFCURVE",
"675 1325 CURVE SMOOTH",
"675 1456 LINE",
"858 1456 LINE"
);
}
);
width = 1102;
}
);
rightKerningGroup = L;
unicode = 013D;
},
{
glyphname = Lcommaaccent;
layers = (
{
layerId = "41219E28-2757-4AEA-BAE1-DB5F37EB0A1D";
name = Regular;
paths = (
{
closed = 1;
nodes = (
"362 157 LINE",
"1052 157 LINE",
"1052 0 LINE",
"169 0 LINE",
"169 1456 LINE",
"362 1456 LINE"
);
},
{
closed = 1;
nodes = (
"707 -182 LINE SMOOTH",
"707 -235 OFFCURVE",
"695 -295 OFFCURVE",
"671 -352 CURVE SMOOTH",
"647 -409 OFFCURVE",
"610 -463 OFFCURVE",
"561 -503 CURVE",
"456 -431 LINE",
"507 -354 OFFCURVE",
"530 -277 OFFCURVE",
"530 -185 CURVE SMOOTH",
"530 -103 LINE",
"707 -103 LINE"
);
}
);
width = 1102;
}
);
rightKerningGroup = L;
unicode = 013B;
},
{
glyphname = Ldot;
layers = (
{
layerId = "41219E28-2757-4AEA-BAE1-DB5F37EB0A1D";
name = Regular;
paths = (
{
closed = 1;
nodes = (
"362 157 LINE",
"1052 157 LINE",
"1052 0 LINE",
"169 0 LINE",
"169 1456 LINE",
"362 1456 LINE"
);
},
{
closed = 1;
nodes = (
"585 856 OFFCURVE",
"622 903 OFFCURVE",
"694 903 CURVE SMOOTH",
"766 903 OFFCURVE",
"804 856 OFFCURVE",
"804 796 CURVE SMOOTH",
"804 736 OFFCURVE",
"766 691 OFFCURVE",
"694 691 CURVE SMOOTH",
"622 691 OFFCURVE",
"585 736 OFFCURVE",
"585 796 CURVE SMOOTH"
);
}
);
width = 1102;
}
);
rightKerningGroup = L;
unicode = 013F;
},
{
glyphname = Lslash;
layers = (
{
layerId = "41219E28-2757-4AEA-BAE1-DB5F37EB0A1D";
name = Regular;
paths = (
{
closed = 1;
nodes = (
"361 844 LINE",
"624 928 LINE",
"624 766 LINE",
"361 682 LINE",
"361 157 LINE",
"1051 157 LINE",
"1051 0 LINE",
"168 0 LINE",
"168 621 LINE",
"35 579 LINE",
"35 741 LINE",
"168 783 LINE",
"168 1456 LINE",
"361 1456 LINE"
);
}
);
width = 1103;
}
);
unicode = 0141;
},
{
glyphname = M;
layers = (
{
layerId = "41219E28-2757-4AEA-BAE1-DB5F37EB0A1D";
name = Regular;
paths = (
{
closed = 1;
nodes = (
"417 1456 LINE",
"893 268 LINE",
"1369 1456 LINE",
"1618 1456 LINE",
"1618 0 LINE",
"1426 0 LINE",
"1426 567 LINE",
"1444 1179 LINE",
"966 0 LINE",
"819 0 LINE",
"342 1176 LINE",
"361 567 LINE",
"361 0 LINE",
"169 0 LINE",
"169 1456 LINE"
);
}
);
width = 1788;
}
);
rightKerningGroup = H;
unicode = 004D;
},
{
glyphname = Macute;
layers = (
{
layerId = "41219E28-2757-4AEA-BAE1-DB5F37EB0A1D";
name = Regular;
paths = (
{
closed = 1;
nodes = (
"417 1456 LINE",
"893 268 LINE",
"1369 1456 LINE",
"1618 1456 LINE",
"1618 0 LINE",
"1426 0 LINE",
"1426 567 LINE",
"1444 1179 LINE",
"966 0 LINE",
"819 0 LINE",
"342 1176 LINE",
"361 567 LINE",
"361 0 LINE",
"169 0 LINE",
"169 1456 LINE"
);
},
{
closed = 1;
nodes = (
"981 1844 LINE",
"1205 1844 LINE",
"937 1550 LINE",
"788 1550 LINE"
);
}
);
width = 1788;
}
);
rightKerningGroup = H;
unicode = 1E3E;
},
{
glyphname = N;
layers = (
{
layerId = "41219E28-2757-4AEA-BAE1-DB5F37EB0A1D";
name = Regular;
paths = (
{
closed = 1;
nodes = (
"1288 0 LINE",
"1095 0 LINE",
"362 1122 LINE",
"362 0 LINE",
"169 0 LINE",
"169 1456 LINE",
"362 1456 LINE",
"1097 329 LINE",
"1097 1456 LINE",
"1288 1456 LINE"
);
}
);
width = 1460;
}
);
rightKerningGroup = H;
unicode = 004E;
},
{
glyphname = Nacute;
layers = (
{
layerId = "41219E28-2757-4AEA-BAE1-DB5F37EB0A1D";
name = Regular;
paths = (
{
closed = 1;
nodes = (
"1288 0 LINE",
"1095 0 LINE",
"362 1122 LINE",
"362 0 LINE",
"169 0 LINE",
"169 1456 LINE",
"362 1456 LINE",
"1097 329 LINE",
"1097 1456 LINE",
"1288 1456 LINE"
);
},
{
closed = 1;
nodes = (
"817 1844 LINE",
"1041 1844 LINE",
"773 1550 LINE",
"624 1550 LINE"
);
}
);
width = 1460;
}
);
rightKerningGroup = H;
unicode = 0143;
},
{
glyphname = Ncaron;
layers = (
{
layerId = "41219E28-2757-4AEA-BAE1-DB5F37EB0A1D";
name = Regular;
paths = (
{
closed = 1;
nodes = (
"1288 0 LINE",
"1095 0 LINE",
"362 1122 LINE",
"362 0 LINE",
"169 0 LINE",
"169 1456 LINE",
"362 1456 LINE",
"1097 329 LINE",
"1097 1456 LINE",
"1288 1456 LINE"
);
},
{
closed = 1;
nodes = (
"725 1676 LINE",
"875 1846 LINE",
"1035 1846 LINE",
"1035 1836 LINE",
"781 1562 LINE",
"668 1562 LINE",
"417 1836 LINE",
"417 1846 LINE",
"574 1846 LINE"
);
}
);
width = 1460;
}
);
rightKerningGroup = H;
unicode = 0147;
},
{
glyphname = Ncommaaccent;
layers = (
{
layerId = "41219E28-2757-4AEA-BAE1-DB5F37EB0A1D";
name = Regular;
paths = (
{
closed = 1;
nodes = (
"1288 0 LINE",
"1095 0 LINE",
"362 1122 LINE",
"362 0 LINE",
"169 0 LINE",
"169 1456 LINE",
"362 1456 LINE",
"1097 329 LINE",
"1097 1456 LINE",
"1288 1456 LINE"
);
},
{
closed = 1;
nodes = (
"807 -182 LINE SMOOTH",
"807 -235 OFFCURVE",
"795 -295 OFFCURVE",
"771 -352 CURVE SMOOTH",
"747 -409 OFFCURVE",
"710 -463 OFFCURVE",
"661 -503 CURVE",
"556 -431 LINE",
"607 -354 OFFCURVE",
"630 -277 OFFCURVE",
"630 -185 CURVE SMOOTH",
"630 -103 LINE",
"807 -103 LINE"
);
}
);
width = 1460;
}
);
rightKerningGroup = H;
unicode = 0145;
},
{
glyphname = Eng;
layers = (
{
layerId = "41219E28-2757-4AEA-BAE1-DB5F37EB0A1D";
name = Regular;
paths = (
{
closed = 1;
nodes = (
"1265 1456 LINE",
"1265 -84 LINE SMOOTH",
"1265 -199 OFFCURVE",
"1234 -286 OFFCURVE",
"1178 -346 CURVE SMOOTH",
"1122 -406 OFFCURVE",
"1039 -437 OFFCURVE",
"938 -437 CURVE SMOOTH",
"895 -437 OFFCURVE",
"863 -432 OFFCURVE",
"823 -419 CURVE",
"837 -265 LINE",
"848 -269 OFFCURVE",
"867 -272 OFFCURVE",
"887 -275 CURVE SMOOTH",
"906 -278 OFFCURVE",
"924 -279 OFFCURVE",
"935 -279 CURVE SMOOTH",
"1023 -279 OFFCURVE",
"1071 -207 OFFCURVE",
"1071 -84 CURVE SMOOTH",
"1071 0 LINE",
"354 1130 LINE",
"354 0 LINE",
"162 0 LINE",
"162 1456 LINE",
"354 1456 LINE",
"1071 328 LINE",
"1071 1456 LINE"
);
}
);
width = 1419;
}
);
unicode = 014A;
},
{
glyphname = Ntilde;
layers = (
{
layerId = "41219E28-2757-4AEA-BAE1-DB5F37EB0A1D";
name = Regular;
paths = (
{
closed = 1;
nodes = (
"1288 0 LINE",
"1095 0 LINE",
"362 1122 LINE",
"362 0 LINE",
"169 0 LINE",
"169 1456 LINE",
"362 1456 LINE",
"1097 329 LINE",
"1097 1456 LINE",
"1288 1456 LINE"
);
},
{
closed = 1;
nodes = (
"1081 1814 LINE",
"1081 1741 OFFCURVE",
"1058 1680 OFFCURVE",
"1019 1638 CURVE SMOOTH",
"979 1596 OFFCURVE",
"926 1572 OFFCURVE",
"866 1572 CURVE SMOOTH",
"798 1572 OFFCURVE",
"758 1596 OFFCURVE",
"722 1620 CURVE SMOOTH",
"686 1643 OFFCURVE",
"653 1667 OFFCURVE",
"597 1667 CURVE SMOOTH",
"569 1667 OFFCURVE",
"545 1655 OFFCURVE",
"527 1635 CURVE SMOOTH",
"509 1615 OFFCURVE",
"498 1587 OFFCURVE",
"498 1555 CURVE",
"374 1562 LINE",
"374 1635 OFFCURVE",
"398 1697 OFFCURVE",
"436 1741 CURVE SMOOTH",
"474 1784 OFFCURVE",
"528 1809 OFFCURVE",
"588 1809 CURVE SMOOTH",
"645 1809 OFFCURVE",
"686 1785 OFFCURVE",
"726 1761 CURVE SMOOTH",
"765 1737 OFFCURVE",
"804 1713 OFFCURVE",
"857 1713 CURVE SMOOTH",
"885 1713 OFFCURVE",
"910 1725 OFFCURVE",
"928 1746 CURVE SMOOTH",
"946 1766 OFFCURVE",
"957 1794 OFFCURVE",
"957 1826 CURVE"
);
}
);
width = 1460;
}
);
rightKerningGroup = H;
unicode = 00D1;
},
{
glyphname = O;
layers = (
{
layerId = "41219E28-2757-4AEA-BAE1-DB5F37EB0A1D";
name = Regular;
paths = (
{
closed = 1;
nodes = (
"1289 681 LINE SMOOTH",
"1289 462 OFFCURVE",
"1231 288 OFFCURVE",
"1130 167 CURVE SMOOTH",
"1029 46 OFFCURVE",
"882 -20 OFFCURVE",
"705 -20 CURVE SMOOTH",
"533 -20 OFFCURVE",
"386 46 OFFCURVE",
"282 167 CURVE SMOOTH",
"178 288 OFFCURVE",
"118 462 OFFCURVE",
"118 681 CURVE SMOOTH",
"118 773 LINE SMOOTH",
"118 990 OFFCURVE",
"178 1167 OFFCURVE",
"281 1288 CURVE SMOOTH",
"384 1409 OFFCURVE",
"531 1476 OFFCURVE",
"703 1476 CURVE SMOOTH",
"880 1476 OFFCURVE",
"1028 1409 OFFCURVE",
"1130 1288 CURVE SMOOTH",
"1232 1167 OFFCURVE",
"1289 990 OFFCURVE",
"1289 773 CURVE SMOOTH"
);
},
{
closed = 1;
nodes = (
"1098 775 LINE SMOOTH",
"1098 948 OFFCURVE",
"1062 1082 OFFCURVE",
"994 1173 CURVE SMOOTH",
"926 1264 OFFCURVE",
"827 1311 OFFCURVE",
"703 1311 CURVE SMOOTH",
"584 1311 OFFCURVE",
"485 1264 OFFCURVE",
"417 1173 CURVE SMOOTH",
"348 1082 OFFCURVE",
"309 948 OFFCURVE",
"309 775 CURVE SMOOTH",
"309 681 LINE SMOOTH",
"309 506 OFFCURVE",
"349 373 OFFCURVE",
"418 282 CURVE SMOOTH",
"487 190 OFFCURVE",
"586 143 OFFCURVE",
"705 143 CURVE SMOOTH",
"830 143 OFFCURVE",
"928 190 OFFCURVE",
"996 282 CURVE SMOOTH",
"1063 373 OFFCURVE",
"1098 506 OFFCURVE",
"1098 681 CURVE SMOOTH"
);
}
);
width = 1408;
}
);
leftKerningGroup = C;
rightKerningGroup = D;
unicode = 004F;
},
{
glyphname = Oacute;
layers = (
{
layerId = "41219E28-2757-4AEA-BAE1-DB5F37EB0A1D";
name = Regular;
paths = (
{
closed = 1;
nodes = (
"1289 681 LINE SMOOTH",
"1289 462 OFFCURVE",
"1231 288 OFFCURVE",
"1130 167 CURVE SMOOTH",
"1029 46 OFFCURVE",
"882 -20 OFFCURVE",
"705 -20 CURVE SMOOTH",
"533 -20 OFFCURVE",
"386 46 OFFCURVE",
"282 167 CURVE SMOOTH",
"178 288 OFFCURVE",
"118 462 OFFCURVE",
"118 681 CURVE SMOOTH",
"118 773 LINE SMOOTH",
"118 990 OFFCURVE",
"178 1167 OFFCURVE",
"281 1288 CURVE SMOOTH",
"384 1409 OFFCURVE",
"531 1476 OFFCURVE",
"703 1476 CURVE SMOOTH",
"880 1476 OFFCURVE",
"1028 1409 OFFCURVE",
"1130 1288 CURVE SMOOTH",
"1232 1167 OFFCURVE",
"1289 990 OFFCURVE",
"1289 773 CURVE SMOOTH"
);
},
{
closed = 1;
nodes = (
"1098 775 LINE SMOOTH",
"1098 948 OFFCURVE",
"1062 1082 OFFCURVE",
"994 1173 CURVE SMOOTH",
"926 1264 OFFCURVE",
"827 1311 OFFCURVE",
"703 1311 CURVE SMOOTH",
"584 1311 OFFCURVE",
"485 1264 OFFCURVE",
"417 1173 CURVE SMOOTH",
"348 1082 OFFCURVE",
"309 948 OFFCURVE",
"309 775 CURVE SMOOTH",
"309 681 LINE SMOOTH",
"309 506 OFFCURVE",
"349 373 OFFCURVE",
"418 282 CURVE SMOOTH",
"487 190 OFFCURVE",
"586 143 OFFCURVE",
"705 143 CURVE SMOOTH",
"830 143 OFFCURVE",
"928 190 OFFCURVE",
"996 282 CURVE SMOOTH",
"1063 373 OFFCURVE",
"1098 506 OFFCURVE",
"1098 681 CURVE SMOOTH"
);
},
{
closed = 1;
nodes = (
"797 1846 LINE",
"1021 1846 LINE",
"753 1552 LINE",
"604 1552 LINE"
);
}
);
width = 1408;
}
);
leftKerningGroup = C;
rightKerningGroup = D;
unicode = 00D3;
},
{
glyphname = Obreve;
layers = (
{
layerId = "41219E28-2757-4AEA-BAE1-DB5F37EB0A1D";
name = Regular;
paths = (
{
closed = 1;
nodes = (
"1289 681 LINE SMOOTH",
"1289 462 OFFCURVE",
"1231 288 OFFCURVE",
"1130 167 CURVE SMOOTH",
"1029 46 OFFCURVE",
"882 -20 OFFCURVE",
"705 -20 CURVE SMOOTH",
"533 -20 OFFCURVE",
"386 46 OFFCURVE",
"282 167 CURVE SMOOTH",
"178 288 OFFCURVE",
"118 462 OFFCURVE",
"118 681 CURVE SMOOTH",
"118 773 LINE SMOOTH",
"118 990 OFFCURVE",
"178 1167 OFFCURVE",
"281 1288 CURVE SMOOTH",
"384 1409 OFFCURVE",
"531 1476 OFFCURVE",
"703 1476 CURVE SMOOTH",
"880 1476 OFFCURVE",
"1028 1409 OFFCURVE",
"1130 1288 CURVE SMOOTH",
"1232 1167 OFFCURVE",
"1289 990 OFFCURVE",
"1289 773 CURVE SMOOTH"
);
},
{
closed = 1;
nodes = (
"1098 775 LINE SMOOTH",
"1098 948 OFFCURVE",
"1062 1082 OFFCURVE",
"994 1173 CURVE SMOOTH",
"926 1264 OFFCURVE",
"827 1311 OFFCURVE",
"703 1311 CURVE SMOOTH",
"584 1311 OFFCURVE",
"485 1264 OFFCURVE",
"417 1173 CURVE SMOOTH",
"348 1082 OFFCURVE",
"309 948 OFFCURVE",
"309 775 CURVE SMOOTH",
"309 681 LINE SMOOTH",
"309 506 OFFCURVE",
"349 373 OFFCURVE",
"418 282 CURVE SMOOTH",
"487 190 OFFCURVE",
"586 143 OFFCURVE",
"705 143 CURVE SMOOTH",
"830 143 OFFCURVE",
"928 190 OFFCURVE",
"996 282 CURVE SMOOTH",
"1063 373 OFFCURVE",
"1098 506 OFFCURVE",
"1098 681 CURVE SMOOTH"
);
},
{
closed = 1;
nodes = (
"1006 1808 LINE",
"1006 1729 OFFCURVE",
"978 1663 OFFCURVE",
"926 1616 CURVE SMOOTH",
"874 1568 OFFCURVE",
"799 1540 OFFCURVE",
"707 1540 CURVE SMOOTH",
"615 1540 OFFCURVE",
"540 1568 OFFCURVE",
"488 1616 CURVE SMOOTH",
"436 1663 OFFCURVE",
"407 1729 OFFCURVE",
"407 1808 CURVE",
"558 1808 LINE",
"558 1768 OFFCURVE",
"568 1731 OFFCURVE",
"592 1704 CURVE",
"615 1676 OFFCURVE",
"652 1659 OFFCURVE",
"707 1659 CURVE SMOOTH",
"760 1659 OFFCURVE",
"798 1676 OFFCURVE",
"822 1704 CURVE SMOOTH",
"846 1731 OFFCURVE",
"856 1768 OFFCURVE",
"856 1808 CURVE"
);
}
);
width = 1408;
}
);
leftKerningGroup = C;
rightKerningGroup = D;
unicode = 014E;
},
{
glyphname = Ocircumflex;
layers = (
{
layerId = "41219E28-2757-4AEA-BAE1-DB5F37EB0A1D";
name = Regular;
paths = (
{
closed = 1;
nodes = (
"1289 681 LINE SMOOTH",
"1289 462 OFFCURVE",
"1231 288 OFFCURVE",
"1130 167 CURVE SMOOTH",
"1029 46 OFFCURVE",
"882 -20 OFFCURVE",
"705 -20 CURVE SMOOTH",
"533 -20 OFFCURVE",
"386 46 OFFCURVE",
"282 167 CURVE SMOOTH",
"178 288 OFFCURVE",
"118 462 OFFCURVE",
"118 681 CURVE SMOOTH",
"118 773 LINE SMOOTH",
"118 990 OFFCURVE",
"178 1167 OFFCURVE",
"281 1288 CURVE SMOOTH",
"384 1409 OFFCURVE",
"531 1476 OFFCURVE",
"703 1476 CURVE SMOOTH",
"880 1476 OFFCURVE",
"1028 1409 OFFCURVE",
"1130 1288 CURVE SMOOTH",
"1232 1167 OFFCURVE",
"1289 990 OFFCURVE",
"1289 773 CURVE SMOOTH"
);
},
{
closed = 1;
nodes = (
"1098 775 LINE SMOOTH",
"1098 948 OFFCURVE",
"1062 1082 OFFCURVE",
"994 1173 CURVE SMOOTH",
"926 1264 OFFCURVE",
"827 1311 OFFCURVE",
"703 1311 CURVE SMOOTH",
"584 1311 OFFCURVE",
"485 1264 OFFCURVE",
"417 1173 CURVE SMOOTH",
"348 1082 OFFCURVE",
"309 948 OFFCURVE",
"309 775 CURVE SMOOTH",
"309 681 LINE SMOOTH",
"309 506 OFFCURVE",
"349 373 OFFCURVE",
"418 282 CURVE SMOOTH",
"487 190 OFFCURVE",
"586 143 OFFCURVE",
"705 143 CURVE SMOOTH",
"830 143 OFFCURVE",
"928 190 OFFCURVE",
"996 282 CURVE SMOOTH",
"1063 373 OFFCURVE",
"1098 506 OFFCURVE",
"1098 681 CURVE SMOOTH"
);
},
{
closed = 1;
nodes = (
"1009 1574 LINE",
"1009 1564 LINE",
"856 1564 LINE",
"706 1734 LINE",
"557 1564 LINE",
"404 1564 LINE",
"404 1576 LINE",
"650 1848 LINE",
"762 1848 LINE"
);
}
);
width = 1408;
}
);
leftKerningGroup = C;
rightKerningGroup = D;
unicode = 00D4;
},
{
glyphname = Ocircumflexacute;
layers = (
{
layerId = "41219E28-2757-4AEA-BAE1-DB5F37EB0A1D";
name = Regular;
paths = (
{
closed = 1;
nodes = (
"1289 681 LINE SMOOTH",
"1289 462 OFFCURVE",
"1231 288 OFFCURVE",
"1130 167 CURVE SMOOTH",
"1029 46 OFFCURVE",
"882 -20 OFFCURVE",
"705 -20 CURVE SMOOTH",
"533 -20 OFFCURVE",
"386 46 OFFCURVE",
"282 167 CURVE SMOOTH",
"178 288 OFFCURVE",
"118 462 OFFCURVE",
"118 681 CURVE SMOOTH",
"118 773 LINE SMOOTH",
"118 990 OFFCURVE",
"178 1167 OFFCURVE",
"281 1288 CURVE SMOOTH",
"384 1409 OFFCURVE",
"531 1476 OFFCURVE",
"703 1476 CURVE SMOOTH",
"880 1476 OFFCURVE",
"1028 1409 OFFCURVE",
"1130 1288 CURVE SMOOTH",
"1232 1167 OFFCURVE",
"1289 990 OFFCURVE",
"1289 773 CURVE SMOOTH"
);
},
{
closed = 1;
nodes = (
"1098 775 LINE SMOOTH",
"1098 948 OFFCURVE",
"1062 1082 OFFCURVE",
"994 1173 CURVE SMOOTH",
"926 1264 OFFCURVE",
"827 1311 OFFCURVE",
"703 1311 CURVE SMOOTH",
"584 1311 OFFCURVE",
"485 1264 OFFCURVE",
"417 1173 CURVE SMOOTH",
"348 1082 OFFCURVE",
"309 948 OFFCURVE",
"309 775 CURVE SMOOTH",
"309 681 LINE SMOOTH",
"309 506 OFFCURVE",
"349 373 OFFCURVE",
"418 282 CURVE SMOOTH",
"487 190 OFFCURVE",
"586 143 OFFCURVE",
"705 143 CURVE SMOOTH",
"830 143 OFFCURVE",
"928 190 OFFCURVE",
"996 282 CURVE SMOOTH",
"1063 373 OFFCURVE",
"1098 506 OFFCURVE",
"1098 681 CURVE SMOOTH"
);
},
{
closed = 1;
nodes = (
"631 1781 LINE",
"783 1781 LINE",
"1073 1519 LINE",
"876 1519 LINE",
"707 1677 LINE",
"537 1519 LINE",
"339 1519 LINE"
);
},
{
closed = 1;
nodes = (
"1141 1952 LINE",
"1341 1952 LINE",
"1140 1693 LINE",
"999 1693 LINE"
);
}
);
width = 1408;
}
);
leftKerningGroup = C;
rightKerningGroup = D;
unicode = 1ED0;
},
{
glyphname = Ocircumflexdotbelow;
layers = (
{
layerId = "41219E28-2757-4AEA-BAE1-DB5F37EB0A1D";
name = Regular;
paths = (
{
closed = 1;
nodes = (
"1289 681 LINE SMOOTH",
"1289 462 OFFCURVE",
"1231 288 OFFCURVE",
"1130 167 CURVE SMOOTH",
"1029 46 OFFCURVE",
"882 -20 OFFCURVE",
"705 -20 CURVE SMOOTH",
"533 -20 OFFCURVE",
"386 46 OFFCURVE",
"282 167 CURVE SMOOTH",
"178 288 OFFCURVE",
"118 462 OFFCURVE",
"118 681 CURVE SMOOTH",
"118 773 LINE SMOOTH",
"118 990 OFFCURVE",
"178 1167 OFFCURVE",
"281 1288 CURVE SMOOTH",
"384 1409 OFFCURVE",
"531 1476 OFFCURVE",
"703 1476 CURVE SMOOTH",
"880 1476 OFFCURVE",
"1028 1409 OFFCURVE",
"1130 1288 CURVE SMOOTH",
"1232 1167 OFFCURVE",
"1289 990 OFFCURVE",
"1289 773 CURVE SMOOTH"
);
},
{
closed = 1;
nodes = (
"1098 775 LINE SMOOTH",
"1098 948 OFFCURVE",
"1062 1082 OFFCURVE",
"994 1173 CURVE SMOOTH",
"926 1264 OFFCURVE",
"827 1311 OFFCURVE",
"703 1311 CURVE SMOOTH",
"584 1311 OFFCURVE",
"485 1264 OFFCURVE",
"417 1173 CURVE SMOOTH",
"348 1082 OFFCURVE",
"309 948 OFFCURVE",
"309 775 CURVE SMOOTH",
"309 681 LINE SMOOTH",
"309 506 OFFCURVE",
"349 373 OFFCURVE",
"418 282 CURVE SMOOTH",
"487 190 OFFCURVE",
"586 143 OFFCURVE",
"705 143 CURVE SMOOTH",
"830 143 OFFCURVE",
"928 190 OFFCURVE",
"996 282 CURVE SMOOTH",
"1063 373 OFFCURVE",
"1098 506 OFFCURVE",
"1098 681 CURVE SMOOTH"
);
},
{
closed = 1;
nodes = (
"1009 1574 LINE",
"1009 1564 LINE",
"856 1564 LINE",
"706 1734 LINE",
"557 1564 LINE",
"404 1564 LINE",
"404 1576 LINE",
"650 1848 LINE",
"762 1848 LINE"
);
},
{
closed = 1;
nodes = (
"592 -185 OFFCURVE",
"629 -138 OFFCURVE",
"701 -138 CURVE SMOOTH",
"773 -138 OFFCURVE",
"811 -185 OFFCURVE",
"811 -245 CURVE SMOOTH",
"811 -305 OFFCURVE",
"773 -350 OFFCURVE",
"701 -350 CURVE SMOOTH",
"629 -350 OFFCURVE",
"592 -305 OFFCURVE",
"592 -245 CURVE SMOOTH"
);
}
);
width = 1408;
}
);
leftKerningGroup = C;
rightKerningGroup = D;
unicode = 1ED8;
},
{
glyphname = Ocircumflexgrave;
layers = (
{
layerId = "41219E28-2757-4AEA-BAE1-DB5F37EB0A1D";
name = Regular;
paths = (
{
closed = 1;
nodes = (
"1289 681 LINE SMOOTH",
"1289 462 OFFCURVE",
"1231 288 OFFCURVE",
"1130 167 CURVE SMOOTH",
"1029 46 OFFCURVE",
"882 -20 OFFCURVE",
"705 -20 CURVE SMOOTH",
"533 -20 OFFCURVE",
"386 46 OFFCURVE",
"282 167 CURVE SMOOTH",
"178 288 OFFCURVE",
"118 462 OFFCURVE",
"118 681 CURVE SMOOTH",
"118 773 LINE SMOOTH",
"118 990 OFFCURVE",
"178 1167 OFFCURVE",
"281 1288 CURVE SMOOTH",
"384 1409 OFFCURVE",
"531 1476 OFFCURVE",
"703 1476 CURVE SMOOTH",
"880 1476 OFFCURVE",
"1028 1409 OFFCURVE",
"1130 1288 CURVE SMOOTH",
"1232 1167 OFFCURVE",
"1289 990 OFFCURVE",
"1289 773 CURVE SMOOTH"
);
},
{
closed = 1;
nodes = (
"1098 775 LINE SMOOTH",
"1098 948 OFFCURVE",
"1062 1082 OFFCURVE",
"994 1173 CURVE SMOOTH",
"926 1264 OFFCURVE",
"827 1311 OFFCURVE",
"703 1311 CURVE SMOOTH",
"584 1311 OFFCURVE",
"485 1264 OFFCURVE",
"417 1173 CURVE SMOOTH",
"348 1082 OFFCURVE",
"309 948 OFFCURVE",
"309 775 CURVE SMOOTH",
"309 681 LINE SMOOTH",
"309 506 OFFCURVE",
"349 373 OFFCURVE",
"418 282 CURVE SMOOTH",
"487 190 OFFCURVE",
"586 143 OFFCURVE",
"705 143 CURVE SMOOTH",
"830 143 OFFCURVE",
"928 190 OFFCURVE",
"996 282 CURVE SMOOTH",
"1063 373 OFFCURVE",
"1098 506 OFFCURVE",
"1098 681 CURVE SMOOTH"
);
},
{
closed = 1;
nodes = (
"1071 1515 LINE",
"874 1515 LINE",
"704 1673 LINE",
"534 1515 LINE",
"338 1515 LINE",
"628 1778 LINE",
"780 1778 LINE"
);
},
{
closed = 1;
nodes = (
"411 1690 LINE",
"271 1690 LINE",
"71 1948 LINE",
"270 1948 LINE"
);
}
);
width = 1408;
}
);
leftKerningGroup = C;
rightKerningGroup = D;
unicode = 1ED2;
},
{
glyphname = Ocircumflexhookabove;
layers = (
{
layerId = "41219E28-2757-4AEA-BAE1-DB5F37EB0A1D";
name = Regular;
paths = (
{
closed = 1;
nodes = (
"1289 681 LINE SMOOTH",
"1289 462 OFFCURVE",
"1231 288 OFFCURVE",
"1130 167 CURVE SMOOTH",
"1029 46 OFFCURVE",
"882 -20 OFFCURVE",
"705 -20 CURVE SMOOTH",
"533 -20 OFFCURVE",
"386 46 OFFCURVE",
"282 167 CURVE SMOOTH",
"178 288 OFFCURVE",
"118 462 OFFCURVE",
"118 681 CURVE SMOOTH",
"118 773 LINE SMOOTH",
"118 990 OFFCURVE",
"178 1167 OFFCURVE",
"281 1288 CURVE SMOOTH",
"384 1409 OFFCURVE",
"531 1476 OFFCURVE",
"703 1476 CURVE SMOOTH",
"880 1476 OFFCURVE",
"1028 1409 OFFCURVE",
"1130 1288 CURVE SMOOTH",
"1232 1167 OFFCURVE",
"1289 990 OFFCURVE",
"1289 773 CURVE SMOOTH"
);
},
{
closed = 1;
nodes = (
"1098 775 LINE SMOOTH",
"1098 948 OFFCURVE",
"1062 1082 OFFCURVE",
"994 1173 CURVE SMOOTH",
"926 1264 OFFCURVE",
"827 1311 OFFCURVE",
"703 1311 CURVE SMOOTH",
"584 1311 OFFCURVE",
"485 1264 OFFCURVE",
"417 1173 CURVE SMOOTH",
"348 1082 OFFCURVE",
"309 948 OFFCURVE",
"309 775 CURVE SMOOTH",
"309 681 LINE SMOOTH",
"309 506 OFFCURVE",
"349 373 OFFCURVE",
"418 282 CURVE SMOOTH",
"487 190 OFFCURVE",
"586 143 OFFCURVE",
"705 143 CURVE SMOOTH",
"830 143 OFFCURVE",
"928 190 OFFCURVE",
"996 282 CURVE SMOOTH",
"1063 373 OFFCURVE",
"1098 506 OFFCURVE",
"1098 681 CURVE SMOOTH"
);
},
{
closed = 1;
nodes = (
"1072 1510 LINE",
"902 1510 LINE",
"705 1696 LINE",
"508 1510 LINE",
"339 1510 LINE",
"611 1772 LINE",
"799 1772 LINE"
);
},
{
closed = 1;
nodes = (
"989 1648 LINE",
"988 1779 LINE",
"1031 1782 OFFCURVE",
"1063 1787 OFFCURVE",
"1083 1796 CURVE SMOOTH",
"1102 1805 OFFCURVE",
"1112 1820 OFFCURVE",
"1112 1842 CURVE SMOOTH",
"1112 1866 OFFCURVE",
"1096 1883 OFFCURVE",
"1071 1894 CURVE SMOOTH",
"1046 1905 OFFCURVE",
"1010 1909 OFFCURVE",
"971 1909 CURVE",
"976 2001 LINE",
"1147 2001 OFFCURVE",
"1238 1937 OFFCURVE",
"1238 1840 CURVE SMOOTH",
"1238 1796 OFFCURVE",
"1222 1765 OFFCURVE",
"1197 1745 CURVE SMOOTH",
"1172 1724 OFFCURVE",
"1139 1712 OFFCURVE",
"1104 1708 CURVE",
"1103 1648 LINE"
);
}
);
width = 1408;
}
);
leftKerningGroup = C;
rightKerningGroup = D;
unicode = 1ED4;
},
{
glyphname = Ocircumflextilde;
layers = (
{
layerId = "41219E28-2757-4AEA-BAE1-DB5F37EB0A1D";
name = Regular;
paths = (
{
closed = 1;
nodes = (
"1289 681 LINE SMOOTH",
"1289 462 OFFCURVE",
"1231 288 OFFCURVE",
"1130 167 CURVE SMOOTH",
"1029 46 OFFCURVE",
"882 -20 OFFCURVE",
"705 -20 CURVE SMOOTH",
"533 -20 OFFCURVE",
"386 46 OFFCURVE",
"282 167 CURVE SMOOTH",
"178 288 OFFCURVE",
"118 462 OFFCURVE",
"118 681 CURVE SMOOTH",
"118 773 LINE SMOOTH",
"118 990 OFFCURVE",
"178 1167 OFFCURVE",
"281 1288 CURVE SMOOTH",
"384 1409 OFFCURVE",
"531 1476 OFFCURVE",
"703 1476 CURVE SMOOTH",
"880 1476 OFFCURVE",
"1028 1409 OFFCURVE",
"1130 1288 CURVE SMOOTH",
"1232 1167 OFFCURVE",
"1289 990 OFFCURVE",
"1289 773 CURVE SMOOTH"
);
},
{
closed = 1;
nodes = (
"1098 775 LINE SMOOTH",
"1098 948 OFFCURVE",
"1062 1082 OFFCURVE",
"994 1173 CURVE SMOOTH",
"926 1264 OFFCURVE",
"827 1311 OFFCURVE",
"703 1311 CURVE SMOOTH",
"584 1311 OFFCURVE",
"485 1264 OFFCURVE",
"417 1173 CURVE SMOOTH",
"348 1082 OFFCURVE",
"309 948 OFFCURVE",
"309 775 CURVE SMOOTH",
"309 681 LINE SMOOTH",
"309 506 OFFCURVE",
"349 373 OFFCURVE",
"418 282 CURVE SMOOTH",
"487 190 OFFCURVE",
"586 143 OFFCURVE",
"705 143 CURVE SMOOTH",
"830 143 OFFCURVE",
"928 190 OFFCURVE",
"996 282 CURVE SMOOTH",
"1063 373 OFFCURVE",
"1098 506 OFFCURVE",
"1098 681 CURVE SMOOTH"
);
},
{
closed = 1;
nodes = (
"1071 1516 LINE",
"901 1516 LINE",
"704 1674 LINE",
"507 1516 LINE",
"338 1516 LINE",
"639 1760 LINE",
"770 1760 LINE"
);
},
{
closed = 1;
nodes = (
"965 1989 LINE",
"965 1949 OFFCURVE",
"947 1910 OFFCURVE",
"918 1881 CURVE SMOOTH",
"889 1852 OFFCURVE",
"848 1833 OFFCURVE",
"804 1833 CURVE SMOOTH",
"753 1833 OFFCURVE",
"723 1851 OFFCURVE",
"695 1869 CURVE SMOOTH",
"667 1887 OFFCURVE",
"641 1904 OFFCURVE",
"600 1904 CURVE SMOOTH",
"580 1904 OFFCURVE",
"559 1895 OFFCURVE",
"543 1881 CURVE SMOOTH",
"527 1867 OFFCURVE",
"517 1848 OFFCURVE",
"517 1829 CURVE",
"440 1848 LINE",
"440 1888 OFFCURVE",
"458 1929 OFFCURVE",
"487 1959 CURVE SMOOTH",
"515 1989 OFFCURVE",
"556 2009 OFFCURVE",
"600 2009 CURVE SMOOTH",
"641 2009 OFFCURVE",
"673 1991 OFFCURVE",
"704 1974 CURVE SMOOTH",
"735 1957 OFFCURVE",
"765 1939 OFFCURVE",
"804 1939 CURVE SMOOTH",
"824 1939 OFFCURVE",
"845 1948 OFFCURVE",
"861 1962 CURVE SMOOTH",
"877 1976 OFFCURVE",
"887 1993 OFFCURVE",
"887 2012 CURVE"
);
}
);
width = 1408;
}
);
leftKerningGroup = C;
rightKerningGroup = D;
unicode = 1ED6;
},
{
glyphname = Odieresis;
layers = (
{
layerId = "41219E28-2757-4AEA-BAE1-DB5F37EB0A1D";
name = Regular;
paths = (
{
closed = 1;
nodes = (
"1289 681 LINE SMOOTH",
"1289 462 OFFCURVE",
"1231 288 OFFCURVE",
"1130 167 CURVE SMOOTH",
"1029 46 OFFCURVE",
"882 -20 OFFCURVE",
"705 -20 CURVE SMOOTH",
"533 -20 OFFCURVE",
"386 46 OFFCURVE",
"282 167 CURVE SMOOTH",
"178 288 OFFCURVE",
"118 462 OFFCURVE",
"118 681 CURVE SMOOTH",
"118 773 LINE SMOOTH",
"118 990 OFFCURVE",
"178 1167 OFFCURVE",
"281 1288 CURVE SMOOTH",
"384 1409 OFFCURVE",
"531 1476 OFFCURVE",
"703 1476 CURVE SMOOTH",
"880 1476 OFFCURVE",
"1028 1409 OFFCURVE",
"1130 1288 CURVE SMOOTH",
"1232 1167 OFFCURVE",
"1289 990 OFFCURVE",
"1289 773 CURVE SMOOTH"
);
},
{
closed = 1;
nodes = (
"1098 775 LINE SMOOTH",
"1098 948 OFFCURVE",
"1062 1082 OFFCURVE",
"994 1173 CURVE SMOOTH",
"926 1264 OFFCURVE",
"827 1311 OFFCURVE",
"703 1311 CURVE SMOOTH",
"584 1311 OFFCURVE",
"485 1264 OFFCURVE",
"417 1173 CURVE SMOOTH",
"348 1082 OFFCURVE",
"309 948 OFFCURVE",
"309 775 CURVE SMOOTH",
"309 681 LINE SMOOTH",
"309 506 OFFCURVE",
"349 373 OFFCURVE",
"418 282 CURVE SMOOTH",
"487 190 OFFCURVE",
"586 143 OFFCURVE",
"705 143 CURVE SMOOTH",
"830 143 OFFCURVE",
"928 190 OFFCURVE",
"996 282 CURVE SMOOTH",
"1063 373 OFFCURVE",
"1098 506 OFFCURVE",
"1098 681 CURVE SMOOTH"
);
},
{
closed = 1;
nodes = (
"385 1743 OFFCURVE",
"422 1789 OFFCURVE",
"494 1789 CURVE SMOOTH",
"566 1789 OFFCURVE",
"604 1743 OFFCURVE",
"604 1683 CURVE SMOOTH",
"604 1623 OFFCURVE",
"566 1578 OFFCURVE",
"494 1578 CURVE SMOOTH",
"422 1578 OFFCURVE",
"385 1623 OFFCURVE",
"385 1683 CURVE SMOOTH"
);
},
{
closed = 1;
nodes = (
"815 1741 OFFCURVE",
"852 1788 OFFCURVE",
"924 1788 CURVE SMOOTH",
"996 1788 OFFCURVE",
"1034 1741 OFFCURVE",
"1034 1681 CURVE SMOOTH",
"1034 1621 OFFCURVE",
"996 1576 OFFCURVE",
"924 1576 CURVE SMOOTH",
"852 1576 OFFCURVE",
"815 1621 OFFCURVE",
"815 1681 CURVE SMOOTH"
);
}
);
width = 1408;
}
);
leftKerningGroup = C;
rightKerningGroup = D;
unicode = 00D6;
},
{
glyphname = Odotbelow;
layers = (
{
layerId = "41219E28-2757-4AEA-BAE1-DB5F37EB0A1D";
name = Regular;
paths = (
{
closed = 1;
nodes = (
"1289 681 LINE SMOOTH",
"1289 462 OFFCURVE",
"1231 288 OFFCURVE",
"1130 167 CURVE SMOOTH",
"1029 46 OFFCURVE",
"882 -20 OFFCURVE",
"705 -20 CURVE SMOOTH",
"533 -20 OFFCURVE",
"386 46 OFFCURVE",
"282 167 CURVE SMOOTH",
"178 288 OFFCURVE",
"118 462 OFFCURVE",
"118 681 CURVE SMOOTH",
"118 773 LINE SMOOTH",
"118 990 OFFCURVE",
"178 1167 OFFCURVE",
"281 1288 CURVE SMOOTH",
"384 1409 OFFCURVE",
"531 1476 OFFCURVE",
"703 1476 CURVE SMOOTH",
"880 1476 OFFCURVE",
"1028 1409 OFFCURVE",
"1130 1288 CURVE SMOOTH",
"1232 1167 OFFCURVE",
"1289 990 OFFCURVE",
"1289 773 CURVE SMOOTH"
);
},
{
closed = 1;
nodes = (
"1098 775 LINE SMOOTH",
"1098 948 OFFCURVE",
"1062 1082 OFFCURVE",
"994 1173 CURVE SMOOTH",
"926 1264 OFFCURVE",
"827 1311 OFFCURVE",
"703 1311 CURVE SMOOTH",
"584 1311 OFFCURVE",
"485 1264 OFFCURVE",
"417 1173 CURVE SMOOTH",
"348 1082 OFFCURVE",
"309 948 OFFCURVE",
"309 775 CURVE SMOOTH",
"309 681 LINE SMOOTH",
"309 506 OFFCURVE",
"349 373 OFFCURVE",
"418 282 CURVE SMOOTH",
"487 190 OFFCURVE",
"586 143 OFFCURVE",
"705 143 CURVE SMOOTH",
"830 143 OFFCURVE",
"928 190 OFFCURVE",
"996 282 CURVE SMOOTH",
"1063 373 OFFCURVE",
"1098 506 OFFCURVE",
"1098 681 CURVE SMOOTH"
);
},
{
closed = 1;
nodes = (
"592 -185 OFFCURVE",
"629 -138 OFFCURVE",
"701 -138 CURVE SMOOTH",
"773 -138 OFFCURVE",
"811 -185 OFFCURVE",
"811 -245 CURVE SMOOTH",
"811 -305 OFFCURVE",
"773 -350 OFFCURVE",
"701 -350 CURVE SMOOTH",
"629 -350 OFFCURVE",
"592 -305 OFFCURVE",
"592 -245 CURVE SMOOTH"
);
}
);
width = 1408;
}
);
leftKerningGroup = C;
rightKerningGroup = D;
unicode = 1ECC;
},
{
glyphname = Ograve;
layers = (
{
layerId = "41219E28-2757-4AEA-BAE1-DB5F37EB0A1D";
name = Regular;
paths = (
{
closed = 1;
nodes = (
"1289 681 LINE SMOOTH",
"1289 462 OFFCURVE",
"1231 288 OFFCURVE",
"1130 167 CURVE SMOOTH",
"1029 46 OFFCURVE",
"882 -20 OFFCURVE",
"705 -20 CURVE SMOOTH",
"533 -20 OFFCURVE",
"386 46 OFFCURVE",
"282 167 CURVE SMOOTH",
"178 288 OFFCURVE",
"118 462 OFFCURVE",
"118 681 CURVE SMOOTH",
"118 773 LINE SMOOTH",
"118 990 OFFCURVE",
"178 1167 OFFCURVE",
"281 1288 CURVE SMOOTH",
"384 1409 OFFCURVE",
"531 1476 OFFCURVE",
"703 1476 CURVE SMOOTH",
"880 1476 OFFCURVE",
"1028 1409 OFFCURVE",
"1130 1288 CURVE SMOOTH",
"1232 1167 OFFCURVE",
"1289 990 OFFCURVE",
"1289 773 CURVE SMOOTH"
);
},
{
closed = 1;
nodes = (
"1098 775 LINE SMOOTH",
"1098 948 OFFCURVE",
"1062 1082 OFFCURVE",
"994 1173 CURVE SMOOTH",
"926 1264 OFFCURVE",
"827 1311 OFFCURVE",
"703 1311 CURVE SMOOTH",
"584 1311 OFFCURVE",
"485 1264 OFFCURVE",
"417 1173 CURVE SMOOTH",
"348 1082 OFFCURVE",
"309 948 OFFCURVE",
"309 775 CURVE SMOOTH",
"309 681 LINE SMOOTH",
"309 506 OFFCURVE",
"349 373 OFFCURVE",
"418 282 CURVE SMOOTH",
"487 190 OFFCURVE",
"586 143 OFFCURVE",
"705 143 CURVE SMOOTH",
"830 143 OFFCURVE",
"928 190 OFFCURVE",
"996 282 CURVE SMOOTH",
"1063 373 OFFCURVE",
"1098 506 OFFCURVE",
"1098 681 CURVE SMOOTH"
);
},
{
closed = 1;
nodes = (
"812 1552 LINE",
"653 1552 LINE",
"395 1846 LINE",
"618 1846 LINE"
);
}
);
width = 1408;
}
);
leftKerningGroup = C;
rightKerningGroup = D;
unicode = 00D2;
},
{
glyphname = Ohookabove;
layers = (
{
layerId = "41219E28-2757-4AEA-BAE1-DB5F37EB0A1D";
name = Regular;
paths = (
{
closed = 1;
nodes = (
"1289 681 LINE SMOOTH",
"1289 462 OFFCURVE",
"1231 288 OFFCURVE",
"1130 167 CURVE SMOOTH",
"1029 46 OFFCURVE",
"882 -20 OFFCURVE",
"705 -20 CURVE SMOOTH",
"533 -20 OFFCURVE",
"386 46 OFFCURVE",
"282 167 CURVE SMOOTH",
"178 288 OFFCURVE",
"118 462 OFFCURVE",
"118 681 CURVE SMOOTH",
"118 773 LINE SMOOTH",
"118 990 OFFCURVE",
"178 1167 OFFCURVE",
"281 1288 CURVE SMOOTH",
"384 1409 OFFCURVE",
"531 1476 OFFCURVE",
"703 1476 CURVE SMOOTH",
"880 1476 OFFCURVE",
"1028 1409 OFFCURVE",
"1130 1288 CURVE SMOOTH",
"1232 1167 OFFCURVE",
"1289 990 OFFCURVE",
"1289 773 CURVE SMOOTH"
);
},
{
closed = 1;
nodes = (
"1098 775 LINE SMOOTH",
"1098 948 OFFCURVE",
"1062 1082 OFFCURVE",
"994 1173 CURVE SMOOTH",
"926 1264 OFFCURVE",
"827 1311 OFFCURVE",
"703 1311 CURVE SMOOTH",
"584 1311 OFFCURVE",
"485 1264 OFFCURVE",
"417 1173 CURVE SMOOTH",
"348 1082 OFFCURVE",
"309 948 OFFCURVE",
"309 775 CURVE SMOOTH",
"309 681 LINE SMOOTH",
"309 506 OFFCURVE",
"349 373 OFFCURVE",
"418 282 CURVE SMOOTH",
"487 190 OFFCURVE",
"586 143 OFFCURVE",
"705 143 CURVE SMOOTH",
"830 143 OFFCURVE",
"928 190 OFFCURVE",
"996 282 CURVE SMOOTH",
"1063 373 OFFCURVE",
"1098 506 OFFCURVE",
"1098 681 CURVE SMOOTH"
);
},
{
closed = 1;
nodes = (
"644 1569 LINE",
"643 1722 LINE",
"693 1725 OFFCURVE",
"730 1732 OFFCURVE",
"753 1742 CURVE SMOOTH",
"776 1752 OFFCURVE",
"788 1770 OFFCURVE",
"788 1796 CURVE SMOOTH",
"788 1824 OFFCURVE",
"770 1844 OFFCURVE",
"740 1856 CURVE SMOOTH",
"710 1868 OFFCURVE",
"667 1874 OFFCURVE",
"622 1874 CURVE",
"629 1980 LINE",
"828 1980 OFFCURVE",
"932 1905 OFFCURVE",
"932 1792 CURVE SMOOTH",
"932 1741 OFFCURVE",
"912 1706 OFFCURVE",
"884 1682 CURVE SMOOTH",
"855 1658 OFFCURVE",
"816 1645 OFFCURVE",
"777 1640 CURVE",
"776 1569 LINE"
);
}
);
width = 1408;
}
);
leftKerningGroup = C;
rightKerningGroup = D;
unicode = 1ECE;
},
{
glyphname = Ohorn;
layers = (
{
layerId = "41219E28-2757-4AEA-BAE1-DB5F37EB0A1D";
name = Regular;
paths = (
{
closed = 1;
nodes = (
"1272 681 LINE SMOOTH",
"1272 462 OFFCURVE",
"1214 288 OFFCURVE",
"1113 167 CURVE SMOOTH",
"1012 46 OFFCURVE",
"865 -20 OFFCURVE",
"688 -20 CURVE SMOOTH",
"516 -20 OFFCURVE",
"369 46 OFFCURVE",
"265 167 CURVE SMOOTH",
"161 288 OFFCURVE",
"101 462 OFFCURVE",
"101 681 CURVE SMOOTH",
"101 773 LINE SMOOTH",
"101 990 OFFCURVE",
"161 1167 OFFCURVE",
"264 1288 CURVE SMOOTH",
"367 1409 OFFCURVE",
"514 1476 OFFCURVE",
"686 1476 CURVE SMOOTH",
"847 1476 OFFCURVE",
"981 1421 OFFCURVE",
"1081 1321 CURVE",
"1150 1326 OFFCURVE",
"1198 1354 OFFCURVE",
"1228 1400 CURVE SMOOTH",
"1258 1446 OFFCURVE",
"1270 1511 OFFCURVE",
"1270 1592 CURVE",
"1437 1592 LINE",
"1437 1375 OFFCURVE",
"1350 1238 OFFCURVE",
"1173 1198 CURVE",
"1237 1085 OFFCURVE",
"1272 944 OFFCURVE",
"1272 773 CURVE SMOOTH"
);
},
{
closed = 1;
nodes = (
"1081 775 LINE SMOOTH",
"1081 948 OFFCURVE",
"1045 1082 OFFCURVE",
"977 1173 CURVE SMOOTH",
"909 1264 OFFCURVE",
"810 1311 OFFCURVE",
"686 1311 CURVE SMOOTH",
"567 1311 OFFCURVE",
"468 1264 OFFCURVE",
"400 1173 CURVE SMOOTH",
"331 1082 OFFCURVE",
"292 948 OFFCURVE",
"292 775 CURVE SMOOTH",
"292 681 LINE SMOOTH",
"292 506 OFFCURVE",
"332 373 OFFCURVE",
"401 282 CURVE SMOOTH",
"470 190 OFFCURVE",
"569 143 OFFCURVE",
"688 143 CURVE SMOOTH",
"813 143 OFFCURVE",
"911 190 OFFCURVE",
"979 282 CURVE SMOOTH",
"1046 373 OFFCURVE",
"1081 506 OFFCURVE",
"1081 681 CURVE SMOOTH"
);
}
);
width = 1407;
}
);
leftKerningGroup = C;
unicode = 01A0;
},
{
glyphname = Ohornacute;
layers = (
{
layerId = "41219E28-2757-4AEA-BAE1-DB5F37EB0A1D";
name = Regular;
paths = (
{
closed = 1;
nodes = (
"1272 681 LINE SMOOTH",
"1272 462 OFFCURVE",
"1214 288 OFFCURVE",
"1113 167 CURVE SMOOTH",
"1012 46 OFFCURVE",
"865 -20 OFFCURVE",
"688 -20 CURVE SMOOTH",
"516 -20 OFFCURVE",
"369 46 OFFCURVE",
"265 167 CURVE SMOOTH",
"161 288 OFFCURVE",
"101 462 OFFCURVE",
"101 681 CURVE SMOOTH",
"101 773 LINE SMOOTH",
"101 990 OFFCURVE",
"161 1167 OFFCURVE",
"264 1288 CURVE SMOOTH",
"367 1409 OFFCURVE",
"514 1476 OFFCURVE",
"686 1476 CURVE SMOOTH",
"847 1476 OFFCURVE",
"981 1421 OFFCURVE",
"1081 1321 CURVE",
"1150 1326 OFFCURVE",
"1198 1354 OFFCURVE",
"1228 1400 CURVE SMOOTH",
"1258 1446 OFFCURVE",
"1270 1511 OFFCURVE",
"1270 1592 CURVE",
"1437 1592 LINE",
"1437 1375 OFFCURVE",
"1350 1238 OFFCURVE",
"1173 1198 CURVE",
"1237 1085 OFFCURVE",
"1272 944 OFFCURVE",
"1272 773 CURVE SMOOTH"
);
},
{
closed = 1;
nodes = (
"1081 775 LINE SMOOTH",
"1081 948 OFFCURVE",
"1045 1082 OFFCURVE",
"977 1173 CURVE SMOOTH",
"909 1264 OFFCURVE",
"810 1311 OFFCURVE",
"686 1311 CURVE SMOOTH",
"567 1311 OFFCURVE",
"468 1264 OFFCURVE",
"400 1173 CURVE SMOOTH",
"331 1082 OFFCURVE",
"292 948 OFFCURVE",
"292 775 CURVE SMOOTH",
"292 681 LINE SMOOTH",
"292 506 OFFCURVE",
"332 373 OFFCURVE",
"401 282 CURVE SMOOTH",
"470 190 OFFCURVE",
"569 143 OFFCURVE",
"688 143 CURVE SMOOTH",
"813 143 OFFCURVE",
"911 190 OFFCURVE",
"979 282 CURVE SMOOTH",
"1046 373 OFFCURVE",
"1081 506 OFFCURVE",
"1081 681 CURVE SMOOTH"
);
},
{
closed = 1;
nodes = (
"794 1839 LINE",
"1018 1839 LINE",
"750 1545 LINE",
"601 1545 LINE"
);
}
);
width = 1407;
}
);
leftKerningGroup = C;
unicode = 1EDA;
},
{
glyphname = Ohorndotbelow;
layers = (
{
layerId = "41219E28-2757-4AEA-BAE1-DB5F37EB0A1D";
name = Regular;
paths = (
{
closed = 1;
nodes = (
"1272 681 LINE SMOOTH",
"1272 462 OFFCURVE",
"1214 288 OFFCURVE",
"1113 167 CURVE SMOOTH",
"1012 46 OFFCURVE",
"865 -20 OFFCURVE",
"688 -20 CURVE SMOOTH",
"516 -20 OFFCURVE",
"369 46 OFFCURVE",
"265 167 CURVE SMOOTH",
"161 288 OFFCURVE",
"101 462 OFFCURVE",
"101 681 CURVE SMOOTH",
"101 773 LINE SMOOTH",
"101 990 OFFCURVE",
"161 1167 OFFCURVE",
"264 1288 CURVE SMOOTH",
"367 1409 OFFCURVE",
"514 1476 OFFCURVE",
"686 1476 CURVE SMOOTH",
"847 1476 OFFCURVE",
"981 1421 OFFCURVE",
"1081 1321 CURVE",
"1150 1326 OFFCURVE",
"1198 1354 OFFCURVE",
"1228 1400 CURVE SMOOTH",
"1258 1446 OFFCURVE",
"1270 1511 OFFCURVE",
"1270 1592 CURVE",
"1437 1592 LINE",
"1437 1375 OFFCURVE",
"1350 1238 OFFCURVE",
"1173 1198 CURVE",
"1237 1085 OFFCURVE",
"1272 944 OFFCURVE",
"1272 773 CURVE SMOOTH"
);
},
{
closed = 1;
nodes = (
"1081 775 LINE SMOOTH",
"1081 948 OFFCURVE",
"1045 1082 OFFCURVE",
"977 1173 CURVE SMOOTH",
"909 1264 OFFCURVE",
"810 1311 OFFCURVE",
"686 1311 CURVE SMOOTH",
"567 1311 OFFCURVE",
"468 1264 OFFCURVE",
"400 1173 CURVE SMOOTH",
"331 1082 OFFCURVE",
"292 948 OFFCURVE",
"292 775 CURVE SMOOTH",
"292 681 LINE SMOOTH",
"292 506 OFFCURVE",
"332 373 OFFCURVE",
"401 282 CURVE SMOOTH",
"470 190 OFFCURVE",
"569 143 OFFCURVE",
"688 143 CURVE SMOOTH",
"813 143 OFFCURVE",
"911 190 OFFCURVE",
"979 282 CURVE SMOOTH",
"1046 373 OFFCURVE",
"1081 506 OFFCURVE",
"1081 681 CURVE SMOOTH"
);
},
{
closed = 1;
nodes = (
"577 -185 OFFCURVE",
"614 -138 OFFCURVE",
"686 -138 CURVE SMOOTH",
"758 -138 OFFCURVE",
"796 -185 OFFCURVE",
"796 -245 CURVE SMOOTH",
"796 -305 OFFCURVE",
"758 -350 OFFCURVE",
"686 -350 CURVE SMOOTH",
"614 -350 OFFCURVE",
"577 -305 OFFCURVE",
"577 -245 CURVE SMOOTH"
);
}
);
width = 1407;
}
);
leftKerningGroup = C;
unicode = 1EE2;
},
{
glyphname = Ohorngrave;
layers = (
{
layerId = "41219E28-2757-4AEA-BAE1-DB5F37EB0A1D";
name = Regular;
paths = (
{
closed = 1;
nodes = (
"1272 681 LINE SMOOTH",
"1272 462 OFFCURVE",
"1214 288 OFFCURVE",
"1113 167 CURVE SMOOTH",
"1012 46 OFFCURVE",
"865 -20 OFFCURVE",
"688 -20 CURVE SMOOTH",
"516 -20 OFFCURVE",
"369 46 OFFCURVE",
"265 167 CURVE SMOOTH",
"161 288 OFFCURVE",
"101 462 OFFCURVE",
"101 681 CURVE SMOOTH",
"101 773 LINE SMOOTH",
"101 990 OFFCURVE",
"161 1167 OFFCURVE",
"264 1288 CURVE SMOOTH",
"367 1409 OFFCURVE",
"514 1476 OFFCURVE",
"686 1476 CURVE SMOOTH",
"847 1476 OFFCURVE",
"981 1421 OFFCURVE",
"1081 1321 CURVE",
"1150 1326 OFFCURVE",
"1198 1354 OFFCURVE",
"1228 1400 CURVE SMOOTH",
"1258 1446 OFFCURVE",
"1270 1511 OFFCURVE",
"1270 1592 CURVE",
"1437 1592 LINE",
"1437 1375 OFFCURVE",
"1350 1238 OFFCURVE",
"1173 1198 CURVE",
"1237 1085 OFFCURVE",
"1272 944 OFFCURVE",
"1272 773 CURVE SMOOTH"
);
},
{
closed = 1;
nodes = (
"1081 775 LINE SMOOTH",
"1081 948 OFFCURVE",
"1045 1082 OFFCURVE",
"977 1173 CURVE SMOOTH",
"909 1264 OFFCURVE",
"810 1311 OFFCURVE",
"686 1311 CURVE SMOOTH",
"567 1311 OFFCURVE",
"468 1264 OFFCURVE",
"400 1173 CURVE SMOOTH",
"331 1082 OFFCURVE",
"292 948 OFFCURVE",
"292 775 CURVE SMOOTH",
"292 681 LINE SMOOTH",
"292 506 OFFCURVE",
"332 373 OFFCURVE",
"401 282 CURVE SMOOTH",
"470 190 OFFCURVE",
"569 143 OFFCURVE",
"688 143 CURVE SMOOTH",
"813 143 OFFCURVE",
"911 190 OFFCURVE",
"979 282 CURVE SMOOTH",
"1046 373 OFFCURVE",
"1081 506 OFFCURVE",
"1081 681 CURVE SMOOTH"
);
},
{
closed = 1;
nodes = (
"809 1545 LINE",
"650 1545 LINE",
"392 1839 LINE",
"615 1839 LINE"
);
}
);
width = 1407;
}
);
leftKerningGroup = C;
unicode = 1EDC;
},
{
glyphname = Ohornhookabove;
layers = (
{
layerId = "41219E28-2757-4AEA-BAE1-DB5F37EB0A1D";
name = Regular;
paths = (
{
closed = 1;
nodes = (
"1272 681 LINE SMOOTH",
"1272 462 OFFCURVE",
"1214 288 OFFCURVE",
"1113 167 CURVE SMOOTH",
"1012 46 OFFCURVE",
"865 -20 OFFCURVE",
"688 -20 CURVE SMOOTH",
"516 -20 OFFCURVE",
"369 46 OFFCURVE",
"265 167 CURVE SMOOTH",
"161 288 OFFCURVE",
"101 462 OFFCURVE",
"101 681 CURVE SMOOTH",
"101 773 LINE SMOOTH",
"101 990 OFFCURVE",
"161 1167 OFFCURVE",
"264 1288 CURVE SMOOTH",
"367 1409 OFFCURVE",
"514 1476 OFFCURVE",
"686 1476 CURVE SMOOTH",
"847 1476 OFFCURVE",
"981 1421 OFFCURVE",
"1081 1321 CURVE",
"1150 1326 OFFCURVE",
"1198 1354 OFFCURVE",
"1228 1400 CURVE SMOOTH",
"1258 1446 OFFCURVE",
"1270 1511 OFFCURVE",
"1270 1592 CURVE",
"1437 1592 LINE",
"1437 1375 OFFCURVE",
"1350 1238 OFFCURVE",
"1173 1198 CURVE",
"1237 1085 OFFCURVE",
"1272 944 OFFCURVE",
"1272 773 CURVE SMOOTH"
);
},
{
closed = 1;
nodes = (
"1081 775 LINE SMOOTH",
"1081 948 OFFCURVE",
"1045 1082 OFFCURVE",
"977 1173 CURVE SMOOTH",
"909 1264 OFFCURVE",
"810 1311 OFFCURVE",
"686 1311 CURVE SMOOTH",
"567 1311 OFFCURVE",
"468 1264 OFFCURVE",
"400 1173 CURVE SMOOTH",
"331 1082 OFFCURVE",
"292 948 OFFCURVE",
"292 775 CURVE SMOOTH",
"292 681 LINE SMOOTH",
"292 506 OFFCURVE",
"332 373 OFFCURVE",
"401 282 CURVE SMOOTH",
"470 190 OFFCURVE",
"569 143 OFFCURVE",
"688 143 CURVE SMOOTH",
"813 143 OFFCURVE",
"911 190 OFFCURVE",
"979 282 CURVE SMOOTH",
"1046 373 OFFCURVE",
"1081 506 OFFCURVE",
"1081 681 CURVE SMOOTH"
);
},
{
closed = 1;
nodes = (
"641 1562 LINE",
"640 1715 LINE",
"690 1718 OFFCURVE",
"727 1725 OFFCURVE",
"750 1735 CURVE SMOOTH",
"773 1745 OFFCURVE",
"785 1763 OFFCURVE",
"785 1789 CURVE SMOOTH",
"785 1817 OFFCURVE",
"767 1837 OFFCURVE",
"737 1849 CURVE SMOOTH",
"707 1861 OFFCURVE",
"664 1867 OFFCURVE",
"619 1867 CURVE",
"626 1973 LINE",
"825 1973 OFFCURVE",
"929 1898 OFFCURVE",
"929 1785 CURVE SMOOTH",
"929 1734 OFFCURVE",
"909 1699 OFFCURVE",
"881 1675 CURVE SMOOTH",
"852 1651 OFFCURVE",
"813 1638 OFFCURVE",
"774 1633 CURVE",
"773 1562 LINE"
);
}
);
width = 1407;
}
);
leftKerningGroup = C;
unicode = 1EDE;
},
{
glyphname = Ohorntilde;
layers = (
{
layerId = "41219E28-2757-4AEA-BAE1-DB5F37EB0A1D";
name = Regular;
paths = (
{
closed = 1;
nodes = (
"1272 681 LINE SMOOTH",
"1272 462 OFFCURVE",
"1214 288 OFFCURVE",
"1113 167 CURVE SMOOTH",
"1012 46 OFFCURVE",
"865 -20 OFFCURVE",
"688 -20 CURVE SMOOTH",
"516 -20 OFFCURVE",
"369 46 OFFCURVE",
"265 167 CURVE SMOOTH",
"161 288 OFFCURVE",
"101 462 OFFCURVE",
"101 681 CURVE SMOOTH",
"101 773 LINE SMOOTH",
"101 990 OFFCURVE",
"161 1167 OFFCURVE",
"264 1288 CURVE SMOOTH",
"367 1409 OFFCURVE",
"514 1476 OFFCURVE",
"686 1476 CURVE SMOOTH",
"847 1476 OFFCURVE",
"981 1421 OFFCURVE",
"1081 1321 CURVE",
"1150 1326 OFFCURVE",
"1198 1354 OFFCURVE",
"1228 1400 CURVE SMOOTH",
"1258 1446 OFFCURVE",
"1270 1511 OFFCURVE",
"1270 1592 CURVE",
"1437 1592 LINE",
"1437 1375 OFFCURVE",
"1350 1238 OFFCURVE",
"1173 1198 CURVE",
"1237 1085 OFFCURVE",
"1272 944 OFFCURVE",
"1272 773 CURVE SMOOTH"
);
},
{
closed = 1;
nodes = (
"1081 775 LINE SMOOTH",
"1081 948 OFFCURVE",
"1045 1082 OFFCURVE",
"977 1173 CURVE SMOOTH",
"909 1264 OFFCURVE",
"810 1311 OFFCURVE",
"686 1311 CURVE SMOOTH",
"567 1311 OFFCURVE",
"468 1264 OFFCURVE",
"400 1173 CURVE SMOOTH",
"331 1082 OFFCURVE",
"292 948 OFFCURVE",
"292 775 CURVE SMOOTH",
"292 681 LINE SMOOTH",
"292 506 OFFCURVE",
"332 373 OFFCURVE",
"401 282 CURVE SMOOTH",
"470 190 OFFCURVE",
"569 143 OFFCURVE",
"688 143 CURVE SMOOTH",
"813 143 OFFCURVE",
"911 190 OFFCURVE",
"979 282 CURVE SMOOTH",
"1046 373 OFFCURVE",
"1081 506 OFFCURVE",
"1081 681 CURVE SMOOTH"
);
},
{
closed = 1;
nodes = (
"1058 1809 LINE",
"1058 1736 OFFCURVE",
"1035 1675 OFFCURVE",
"996 1633 CURVE SMOOTH",
"956 1591 OFFCURVE",
"903 1567 OFFCURVE",
"843 1567 CURVE SMOOTH",
"775 1567 OFFCURVE",
"735 1591 OFFCURVE",
"699 1615 CURVE SMOOTH",
"663 1638 OFFCURVE",
"630 1662 OFFCURVE",
"574 1662 CURVE SMOOTH",
"546 1662 OFFCURVE",
"522 1650 OFFCURVE",
"504 1630 CURVE SMOOTH",
"486 1610 OFFCURVE",
"475 1582 OFFCURVE",
"475 1550 CURVE",
"351 1557 LINE",
"351 1630 OFFCURVE",
"375 1692 OFFCURVE",
"413 1736 CURVE SMOOTH",
"451 1779 OFFCURVE",
"505 1804 OFFCURVE",
"565 1804 CURVE SMOOTH",
"622 1804 OFFCURVE",
"663 1780 OFFCURVE",
"703 1756 CURVE SMOOTH",
"742 1732 OFFCURVE",
"781 1708 OFFCURVE",
"834 1708 CURVE SMOOTH",
"862 1708 OFFCURVE",
"887 1720 OFFCURVE",
"905 1741 CURVE SMOOTH",
"923 1761 OFFCURVE",
"934 1789 OFFCURVE",
"934 1821 CURVE"
);
}
);
width = 1407;
}
);
leftKerningGroup = C;
unicode = 1EE0;
},
{
glyphname = Ohungarumlaut;
layers = (
{
layerId = "41219E28-2757-4AEA-BAE1-DB5F37EB0A1D";
name = Regular;
paths = (
{
closed = 1;
nodes = (
"1289 681 LINE SMOOTH",
"1289 462 OFFCURVE",
"1231 288 OFFCURVE",
"1130 167 CURVE SMOOTH",
"1029 46 OFFCURVE",
"882 -20 OFFCURVE",
"705 -20 CURVE SMOOTH",
"533 -20 OFFCURVE",
"386 46 OFFCURVE",
"282 167 CURVE SMOOTH",
"178 288 OFFCURVE",
"118 462 OFFCURVE",
"118 681 CURVE SMOOTH",
"118 773 LINE SMOOTH",
"118 990 OFFCURVE",
"178 1167 OFFCURVE",
"281 1288 CURVE SMOOTH",
"384 1409 OFFCURVE",
"531 1476 OFFCURVE",
"703 1476 CURVE SMOOTH",
"880 1476 OFFCURVE",
"1028 1409 OFFCURVE",
"1130 1288 CURVE SMOOTH",
"1232 1167 OFFCURVE",
"1289 990 OFFCURVE",
"1289 773 CURVE SMOOTH"
);
},
{
closed = 1;
nodes = (
"1098 775 LINE SMOOTH",
"1098 948 OFFCURVE",
"1062 1082 OFFCURVE",
"994 1173 CURVE SMOOTH",
"926 1264 OFFCURVE",
"827 1311 OFFCURVE",
"703 1311 CURVE SMOOTH",
"584 1311 OFFCURVE",
"485 1264 OFFCURVE",
"417 1173 CURVE SMOOTH",
"348 1082 OFFCURVE",
"309 948 OFFCURVE",
"309 775 CURVE SMOOTH",
"309 681 LINE SMOOTH",
"309 506 OFFCURVE",
"349 373 OFFCURVE",
"418 282 CURVE SMOOTH",
"487 190 OFFCURVE",
"586 143 OFFCURVE",
"705 143 CURVE SMOOTH",
"830 143 OFFCURVE",
"928 190 OFFCURVE",
"996 282 CURVE SMOOTH",
"1063 373 OFFCURVE",
"1098 506 OFFCURVE",
"1098 681 CURVE SMOOTH"
);
},
{
closed = 1;
nodes = (
"968 1847 LINE",
"1175 1847 LINE",
"906 1544 LINE",
"737 1544 LINE"
);
},
{
closed = 1;
nodes = (
"628 1847 LINE",
"825 1847 LINE",
"607 1544 LINE",
"457 1544 LINE"
);
}
);
width = 1408;
}
);
leftKerningGroup = C;
rightKerningGroup = D;
unicode = 0150;
},
{
glyphname = Omacron;
layers = (
{
layerId = "41219E28-2757-4AEA-BAE1-DB5F37EB0A1D";
name = Regular;
paths = (
{
closed = 1;
nodes = (
"1289 681 LINE SMOOTH",
"1289 462 OFFCURVE",
"1231 288 OFFCURVE",
"1130 167 CURVE SMOOTH",
"1029 46 OFFCURVE",
"882 -20 OFFCURVE",
"705 -20 CURVE SMOOTH",
"533 -20 OFFCURVE",
"386 46 OFFCURVE",
"282 167 CURVE SMOOTH",
"178 288 OFFCURVE",
"118 462 OFFCURVE",
"118 681 CURVE SMOOTH",
"118 773 LINE SMOOTH",
"118 990 OFFCURVE",
"178 1167 OFFCURVE",
"281 1288 CURVE SMOOTH",
"384 1409 OFFCURVE",
"531 1476 OFFCURVE",
"703 1476 CURVE SMOOTH",
"880 1476 OFFCURVE",
"1028 1409 OFFCURVE",
"1130 1288 CURVE SMOOTH",
"1232 1167 OFFCURVE",
"1289 990 OFFCURVE",
"1289 773 CURVE SMOOTH"
);
},
{
closed = 1;
nodes = (
"1098 775 LINE SMOOTH",
"1098 948 OFFCURVE",
"1062 1082 OFFCURVE",
"994 1173 CURVE SMOOTH",
"926 1264 OFFCURVE",
"827 1311 OFFCURVE",
"703 1311 CURVE SMOOTH",
"584 1311 OFFCURVE",
"485 1264 OFFCURVE",
"417 1173 CURVE SMOOTH",
"348 1082 OFFCURVE",
"309 948 OFFCURVE",
"309 775 CURVE SMOOTH",
"309 681 LINE SMOOTH",
"309 506 OFFCURVE",
"349 373 OFFCURVE",
"418 282 CURVE SMOOTH",
"487 190 OFFCURVE",
"586 143 OFFCURVE",
"705 143 CURVE SMOOTH",
"830 143 OFFCURVE",
"928 190 OFFCURVE",
"996 282 CURVE SMOOTH",
"1063 373 OFFCURVE",
"1098 506 OFFCURVE",
"1098 681 CURVE SMOOTH"
);
},
{
closed = 1;
nodes = (
"1067 1633 LINE",
"353 1633 LINE",
"353 1776 LINE",
"1067 1776 LINE"
);
}
);
width = 1408;
}
);
leftKerningGroup = C;
rightKerningGroup = D;
unicode = 014C;
},
{
glyphname = Oslash;
layers = (
{
layerId = "41219E28-2757-4AEA-BAE1-DB5F37EB0A1D";
name = Regular;
paths = (
{
closed = 1;
nodes = (
"1289 681 LINE SMOOTH",
"1289 462 OFFCURVE",
"1231 288 OFFCURVE",
"1130 167 CURVE SMOOTH",
"1029 46 OFFCURVE",
"882 -20 OFFCURVE",
"705 -20 CURVE SMOOTH",
"591 -20 OFFCURVE",
"490 7 OFFCURVE",
"403 62 CURVE",
"307 -93 LINE",
"164 -93 LINE",
"308 138 LINE",
"188 259 OFFCURVE",
"118 444 OFFCURVE",
"118 681 CURVE SMOOTH",
"118 773 LINE SMOOTH",
"118 990 OFFCURVE",
"178 1167 OFFCURVE",
"281 1288 CURVE SMOOTH",
"384 1409 OFFCURVE",
"531 1476 OFFCURVE",
"703 1476 CURVE SMOOTH",
"848 1476 OFFCURVE",
"970 1432 OFFCURVE",
"1066 1351 CURVE",
"1169 1516 LINE",
"1309 1516 LINE",
"1150 1261 LINE",
"1239 1140 OFFCURVE",
"1289 976 OFFCURVE",
"1289 773 CURVE SMOOTH"
);
},
{
closed = 1;
nodes = (
"309 681 LINE SMOOTH",
"309 514 OFFCURVE",
"343 387 OFFCURVE",
"407 296 CURVE",
"971 1200 LINE",
"904 1274 OFFCURVE",
"815 1311 OFFCURVE",
"703 1311 CURVE SMOOTH",
"584 1311 OFFCURVE",
"485 1264 OFFCURVE",
"417 1173 CURVE SMOOTH",
"348 1082 OFFCURVE",
"309 948 OFFCURVE",
"309 775 CURVE SMOOTH"
);
},
{
closed = 1;
nodes = (
"1098 775 LINE SMOOTH",
"1098 900 OFFCURVE",
"1078 1004 OFFCURVE",
"1042 1088 CURVE",
"494 207 LINE",
"553 164 OFFCURVE",
"623 143 OFFCURVE",
"705 143 CURVE SMOOTH",
"830 143 OFFCURVE",
"928 190 OFFCURVE",
"996 282 CURVE SMOOTH",
"1063 373 OFFCURVE",
"1098 506 OFFCURVE",
"1098 681 CURVE SMOOTH"
);
}
);
width = 1409;
}
);
leftKerningGroup = C;
unicode = 00D8;
},
{
glyphname = Oslashacute;
layers = (
{
layerId = "41219E28-2757-4AEA-BAE1-DB5F37EB0A1D";
name = Regular;
paths = (
{
closed = 1;
nodes = (
"1289 681 LINE SMOOTH",
"1289 462 OFFCURVE",
"1231 288 OFFCURVE",
"1130 167 CURVE SMOOTH",
"1029 46 OFFCURVE",
"882 -20 OFFCURVE",
"705 -20 CURVE SMOOTH",
"591 -20 OFFCURVE",
"490 7 OFFCURVE",
"403 62 CURVE",
"307 -93 LINE",
"164 -93 LINE",
"308 138 LINE",
"188 259 OFFCURVE",
"118 444 OFFCURVE",
"118 681 CURVE SMOOTH",
"118 773 LINE SMOOTH",
"118 990 OFFCURVE",
"178 1167 OFFCURVE",
"281 1288 CURVE SMOOTH",
"384 1409 OFFCURVE",
"531 1476 OFFCURVE",
"703 1476 CURVE SMOOTH",
"848 1476 OFFCURVE",
"970 1432 OFFCURVE",
"1066 1351 CURVE",
"1169 1516 LINE",
"1309 1516 LINE",
"1150 1261 LINE",
"1239 1140 OFFCURVE",
"1289 976 OFFCURVE",
"1289 773 CURVE SMOOTH"
);
},
{
closed = 1;
nodes = (
"309 681 LINE SMOOTH",
"309 514 OFFCURVE",
"343 387 OFFCURVE",
"407 296 CURVE",
"971 1200 LINE",
"904 1274 OFFCURVE",
"815 1311 OFFCURVE",
"703 1311 CURVE SMOOTH",
"584 1311 OFFCURVE",
"485 1264 OFFCURVE",
"417 1173 CURVE SMOOTH",
"348 1082 OFFCURVE",
"309 948 OFFCURVE",
"309 775 CURVE SMOOTH"
);
},
{
closed = 1;
nodes = (
"1098 775 LINE SMOOTH",
"1098 900 OFFCURVE",
"1078 1004 OFFCURVE",
"1042 1088 CURVE",
"494 207 LINE",
"553 164 OFFCURVE",
"623 143 OFFCURVE",
"705 143 CURVE SMOOTH",
"830 143 OFFCURVE",
"928 190 OFFCURVE",
"996 282 CURVE SMOOTH",
"1063 373 OFFCURVE",
"1098 506 OFFCURVE",
"1098 681 CURVE SMOOTH"
);
},
{
closed = 1;
nodes = (
"806 1918 LINE",
"1030 1918 LINE",
"762 1624 LINE",
"613 1624 LINE"
);
}
);
width = 1409;
}
);
leftKerningGroup = C;
unicode = 01FE;
},
{
glyphname = Otilde;
layers = (
{
layerId = "41219E28-2757-4AEA-BAE1-DB5F37EB0A1D";
name = Regular;
paths = (
{
closed = 1;
nodes = (
"1289 681 LINE SMOOTH",
"1289 462 OFFCURVE",
"1231 288 OFFCURVE",
"1130 167 CURVE SMOOTH",
"1029 46 OFFCURVE",
"882 -20 OFFCURVE",
"705 -20 CURVE SMOOTH",
"533 -20 OFFCURVE",
"386 46 OFFCURVE",
"282 167 CURVE SMOOTH",
"178 288 OFFCURVE",
"118 462 OFFCURVE",
"118 681 CURVE SMOOTH",
"118 773 LINE SMOOTH",
"118 990 OFFCURVE",
"178 1167 OFFCURVE",
"281 1288 CURVE SMOOTH",
"384 1409 OFFCURVE",
"531 1476 OFFCURVE",
"703 1476 CURVE SMOOTH",
"880 1476 OFFCURVE",
"1028 1409 OFFCURVE",
"1130 1288 CURVE SMOOTH",
"1232 1167 OFFCURVE",
"1289 990 OFFCURVE",
"1289 773 CURVE SMOOTH"
);
},
{
closed = 1;
nodes = (
"1098 775 LINE SMOOTH",
"1098 948 OFFCURVE",
"1062 1082 OFFCURVE",
"994 1173 CURVE SMOOTH",
"926 1264 OFFCURVE",
"827 1311 OFFCURVE",
"703 1311 CURVE SMOOTH",
"584 1311 OFFCURVE",
"485 1264 OFFCURVE",
"417 1173 CURVE SMOOTH",
"348 1082 OFFCURVE",
"309 948 OFFCURVE",
"309 775 CURVE SMOOTH",
"309 681 LINE SMOOTH",
"309 506 OFFCURVE",
"349 373 OFFCURVE",
"418 282 CURVE SMOOTH",
"487 190 OFFCURVE",
"586 143 OFFCURVE",
"705 143 CURVE SMOOTH",
"830 143 OFFCURVE",
"928 190 OFFCURVE",
"996 282 CURVE SMOOTH",
"1063 373 OFFCURVE",
"1098 506 OFFCURVE",
"1098 681 CURVE SMOOTH"
);
},
{
closed = 1;
nodes = (
"1061 1816 LINE",
"1061 1743 OFFCURVE",
"1038 1682 OFFCURVE",
"999 1640 CURVE SMOOTH",
"959 1598 OFFCURVE",
"906 1574 OFFCURVE",
"846 1574 CURVE SMOOTH",
"778 1574 OFFCURVE",
"738 1598 OFFCURVE",
"702 1622 CURVE SMOOTH",
"666 1645 OFFCURVE",
"633 1669 OFFCURVE",
"577 1669 CURVE SMOOTH",
"549 1669 OFFCURVE",
"525 1657 OFFCURVE",
"507 1637 CURVE SMOOTH",
"489 1617 OFFCURVE",
"478 1589 OFFCURVE",
"478 1557 CURVE",
"354 1564 LINE",
"354 1637 OFFCURVE",
"378 1699 OFFCURVE",
"416 1743 CURVE SMOOTH",
"454 1786 OFFCURVE",
"508 1811 OFFCURVE",
"568 1811 CURVE SMOOTH",
"625 1811 OFFCURVE",
"666 1787 OFFCURVE",
"706 1763 CURVE SMOOTH",
"745 1739 OFFCURVE",
"784 1715 OFFCURVE",
"837 1715 CURVE SMOOTH",
"865 1715 OFFCURVE",
"890 1727 OFFCURVE",
"908 1748 CURVE SMOOTH",
"926 1768 OFFCURVE",
"937 1796 OFFCURVE",
"937 1828 CURVE"
);
}
);
width = 1408;
}
);
leftKerningGroup = C;
rightKerningGroup = D;
unicode = 00D5;
},
{
glyphname = OE;
layers = (
{
layerId = "41219E28-2757-4AEA-BAE1-DB5F37EB0A1D";
name = Regular;
paths = (
{
closed = 1;
nodes = (
"1801 0 LINE",
"954 0 LINE",
"863 -11 OFFCURVE",
"765 -21 OFFCURVE",
"662 -21 CURVE SMOOTH",
"497 -21 OFFCURVE",
"358 40 OFFCURVE",
"260 145 CURVE SMOOTH",
"162 250 OFFCURVE",
"105 400 OFFCURVE",
"105 576 CURVE SMOOTH",
"105 880 LINE SMOOTH",
"105 1056 OFFCURVE",
"161 1206 OFFCURVE",
"258 1311 CURVE SMOOTH",
"355 1416 OFFCURVE",
"495 1477 OFFCURVE",
"660 1477 CURVE SMOOTH",
"763 1477 OFFCURVE",
"863 1467 OFFCURVE",
"954 1456 CURVE",
"1791 1456 LINE",
"1791 1298 LINE",
"1068 1298 LINE",
"1068 830 LINE",
"1699 830 LINE",
"1699 673 LINE",
"1068 673 LINE",
"1068 157 LINE",
"1801 157 LINE"
);
},
{
closed = 1;
nodes = (
"735 131 OFFCURVE",
"808 136 OFFCURVE",
"876 145 CURVE",
"876 1310 LINE",
"808 1319 OFFCURVE",
"736 1325 OFFCURVE",
"660 1325 CURVE SMOOTH",
"547 1325 OFFCURVE",
"454 1287 OFFCURVE",
"390 1212 CURVE SMOOTH",
"326 1137 OFFCURVE",
"290 1027 OFFCURVE",
"290 882 CURVE SMOOTH",
"290 576 LINE SMOOTH",
"290 431 OFFCURVE",
"326 320 OFFCURVE",
"391 245 CURVE SMOOTH",
"455 169 OFFCURVE",
"549 131 OFFCURVE",
"662 131 CURVE SMOOTH"
);
}
);
width = 1953;
}
);
leftKerningGroup = C;
unicode = 0152;
},
{
glyphname = P;
layers = (
{
layerId = "41219E28-2757-4AEA-BAE1-DB5F37EB0A1D";
name = Regular;
paths = (
{
closed = 1;
nodes = (
"361 570 LINE",
"361 0 LINE",
"169 0 LINE",
"169 1456 LINE",
"706 1456 LINE SMOOTH",
"871 1456 OFFCURVE",
"999 1410 OFFCURVE",
"1085 1331 CURVE SMOOTH",
"1171 1251 OFFCURVE",
"1216 1140 OFFCURVE",
"1216 1011 CURVE SMOOTH",
"1216 871 OFFCURVE",
"1171 760 OFFCURVE",
"1085 685 CURVE SMOOTH",
"999 610 OFFCURVE",
"871 570 OFFCURVE",
"706 570 CURVE SMOOTH"
);
},
{
closed = 1;
nodes = (
"361 727 LINE",
"706 727 LINE SMOOTH",
"818 727 OFFCURVE",
"898 757 OFFCURVE",
"950 807 CURVE SMOOTH",
"1001 857 OFFCURVE",
"1024 926 OFFCURVE",
"1024 1009 CURVE SMOOTH",
"1024 1084 OFFCURVE",
"1001 1157 OFFCURVE",
"950 1210 CURVE SMOOTH",
"898 1263 OFFCURVE",
"818 1298 OFFCURVE",
"706 1298 CURVE SMOOTH",
"361 1298 LINE"
);
}
);
width = 1292;
}
);
rightKerningGroup = P;
unicode = 0050;
},
{
glyphname = Thorn;
layers = (
{
layerId = "41219E28-2757-4AEA-BAE1-DB5F37EB0A1D";
name = Regular;
paths = (
{
closed = 1;
nodes = (
"352 1456 LINE",
"352 1163 LINE",
"629 1163 LINE SMOOTH",
"786 1163 OFFCURVE",
"908 1118 OFFCURVE",
"991 1042 CURVE SMOOTH",
"1074 966 OFFCURVE",
"1117 859 OFFCURVE",
"1117 738 CURVE SMOOTH",
"1117 615 OFFCURVE",
"1074 509 OFFCURVE",
"991 434 CURVE SMOOTH",
"908 358 OFFCURVE",
"786 313 OFFCURVE",
"629 313 CURVE SMOOTH",
"352 313 LINE",
"352 0 LINE",
"166 0 LINE",
"166 1456 LINE"
);
},
{
closed = 1;
nodes = (
"352 1011 LINE",
"352 465 LINE",
"629 465 LINE SMOOTH",
"737 465 OFFCURVE",
"812 498 OFFCURVE",
"861 550 CURVE SMOOTH",
"909 601 OFFCURVE",
"931 668 OFFCURVE",
"931 736 CURVE SMOOTH",
"931 805 OFFCURVE",
"909 874 OFFCURVE",
"861 926 CURVE SMOOTH",
"812 977 OFFCURVE",
"737 1011 OFFCURVE",
"629 1011 CURVE SMOOTH"
);
}
);
width = 1210;
}
);
unicode = 00DE;
},
{
glyphname = Q;
layers = (
{
layerId = "41219E28-2757-4AEA-BAE1-DB5F37EB0A1D";
name = Regular;
paths = (
{
closed = 1;
nodes = (
"1281 681 LINE SMOOTH",
"1281 400 OFFCURVE",
"1187 194 OFFCURVE",
"1026 79 CURVE",
"1286 -125 LINE",
"1155 -246 LINE",
"848 -2 LINE",
"800 -14 OFFCURVE",
"749 -20 OFFCURVE",
"696 -20 CURVE SMOOTH",
"524 -20 OFFCURVE",
"377 46 OFFCURVE",
"273 167 CURVE SMOOTH",
"169 288 OFFCURVE",
"109 462 OFFCURVE",
"109 681 CURVE SMOOTH",
"109 773 LINE SMOOTH",
"109 990 OFFCURVE",
"169 1167 OFFCURVE",
"272 1288 CURVE SMOOTH",
"375 1409 OFFCURVE",
"522 1476 OFFCURVE",
"694 1476 CURVE SMOOTH",
"871 1476 OFFCURVE",
"1018 1409 OFFCURVE",
"1121 1288 CURVE SMOOTH",
"1224 1167 OFFCURVE",
"1281 990 OFFCURVE",
"1281 773 CURVE SMOOTH"
);
},
{
closed = 1;
nodes = (
"1089 775 LINE SMOOTH",
"1089 948 OFFCURVE",
"1053 1082 OFFCURVE",
"986 1173 CURVE SMOOTH",
"918 1264 OFFCURVE",
"819 1311 OFFCURVE",
"694 1311 CURVE SMOOTH",
"575 1311 OFFCURVE",
"477 1264 OFFCURVE",
"409 1173 CURVE SMOOTH",
"340 1082 OFFCURVE",
"301 948 OFFCURVE",
"301 775 CURVE SMOOTH",
"301 681 LINE SMOOTH",
"301 506 OFFCURVE",
"341 373 OFFCURVE",
"410 282 CURVE SMOOTH",
"478 190 OFFCURVE",
"577 143 OFFCURVE",
"696 143 CURVE SMOOTH",
"821 143 OFFCURVE",
"919 190 OFFCURVE",
"987 282 CURVE SMOOTH",
"1054 373 OFFCURVE",
"1089 506 OFFCURVE",
"1089 681 CURVE SMOOTH"
);
}
);
width = 1408;
}
);
leftKerningGroup = C;
unicode = 0051;
},
{
glyphname = R;
layers = (
{
layerId = "41219E28-2757-4AEA-BAE1-DB5F37EB0A1D";
name = Regular;
paths = (
{
closed = 1;
nodes = (
"703 589 LINE",
"361 589 LINE",
"361 0 LINE",
"168 0 LINE",
"168 1456 LINE",
"650 1456 LINE SMOOTH",
"978 1456 OFFCURVE",
"1161 1303 OFFCURVE",
"1161 1018 CURVE SMOOTH",
"1161 837 OFFCURVE",
"1058 697 OFFCURVE",
"883 630 CURVE",
"1225 12 LINE",
"1225 0 LINE",
"1019 0 LINE"
);
},
{
closed = 1;
nodes = (
"361 746 LINE",
"656 746 LINE SMOOTH",
"760 746 OFFCURVE",
"838 777 OFFCURVE",
"890 826 CURVE SMOOTH",
"942 874 OFFCURVE",
"968 942 OFFCURVE",
"968 1018 CURVE SMOOTH",
"968 1102 OFFCURVE",
"944 1172 OFFCURVE",
"892 1221 CURVE SMOOTH",
"840 1270 OFFCURVE",
"761 1298 OFFCURVE",
"650 1298 CURVE SMOOTH",
"361 1298 LINE"
);
}
);
width = 1261;
}
);
unicode = 0052;
},
{
glyphname = Racute;
layers = (
{
layerId = "41219E28-2757-4AEA-BAE1-DB5F37EB0A1D";
name = Regular;
paths = (
{
closed = 1;
nodes = (
"703 589 LINE",
"361 589 LINE",
"361 0 LINE",
"168 0 LINE",
"168 1456 LINE",
"650 1456 LINE SMOOTH",
"978 1456 OFFCURVE",
"1161 1303 OFFCURVE",
"1161 1018 CURVE SMOOTH",
"1161 837 OFFCURVE",
"1058 697 OFFCURVE",
"883 630 CURVE",
"1225 12 LINE",
"1225 0 LINE",
"1019 0 LINE"
);
},
{
closed = 1;
nodes = (
"361 746 LINE",
"656 746 LINE SMOOTH",
"760 746 OFFCURVE",
"838 777 OFFCURVE",
"890 826 CURVE SMOOTH",
"942 874 OFFCURVE",
"968 942 OFFCURVE",
"968 1018 CURVE SMOOTH",
"968 1102 OFFCURVE",
"944 1172 OFFCURVE",
"892 1221 CURVE SMOOTH",
"840 1270 OFFCURVE",
"761 1298 OFFCURVE",
"650 1298 CURVE SMOOTH",
"361 1298 LINE"
);
},
{
closed = 1;
nodes = (
"700 1844 LINE",
"924 1844 LINE",
"656 1550 LINE",
"507 1550 LINE"
);
}
);
width = 1261;
}
);
unicode = 0154;
},
{
glyphname = Rcaron;
layers = (
{
layerId = "41219E28-2757-4AEA-BAE1-DB5F37EB0A1D";
name = Regular;
paths = (
{
closed = 1;
nodes = (
"703 589 LINE",
"361 589 LINE",
"361 0 LINE",
"168 0 LINE",
"168 1456 LINE",
"650 1456 LINE SMOOTH",
"978 1456 OFFCURVE",
"1161 1303 OFFCURVE",
"1161 1018 CURVE SMOOTH",
"1161 837 OFFCURVE",
"1058 697 OFFCURVE",
"883 630 CURVE",
"1225 12 LINE",
"1225 0 LINE",
"1019 0 LINE"
);
},
{
closed = 1;
nodes = (
"361 746 LINE",
"656 746 LINE SMOOTH",
"760 746 OFFCURVE",
"838 777 OFFCURVE",
"890 826 CURVE SMOOTH",
"942 874 OFFCURVE",
"968 942 OFFCURVE",
"968 1018 CURVE SMOOTH",
"968 1102 OFFCURVE",
"944 1172 OFFCURVE",
"892 1221 CURVE SMOOTH",
"840 1270 OFFCURVE",
"761 1298 OFFCURVE",
"650 1298 CURVE SMOOTH",
"361 1298 LINE"
);
},
{
closed = 1;
nodes = (
"608 1676 LINE",
"758 1846 LINE",
"918 1846 LINE",
"918 1836 LINE",
"664 1562 LINE",
"551 1562 LINE",
"300 1836 LINE",
"300 1846 LINE",
"457 1846 LINE"
);
}
);
width = 1261;
}
);
unicode = 0158;
},
{
glyphname = Rcommaaccent;
layers = (
{
layerId = "41219E28-2757-4AEA-BAE1-DB5F37EB0A1D";
name = Regular;
paths = (
{
closed = 1;
nodes = (
"703 589 LINE",
"361 589 LINE",
"361 0 LINE",
"168 0 LINE",
"168 1456 LINE",
"650 1456 LINE SMOOTH",
"978 1456 OFFCURVE",
"1161 1303 OFFCURVE",
"1161 1018 CURVE SMOOTH",
"1161 837 OFFCURVE",
"1058 697 OFFCURVE",
"883 630 CURVE",
"1225 12 LINE",
"1225 0 LINE",
"1019 0 LINE"
);
},
{
closed = 1;
nodes = (
"361 746 LINE",
"656 746 LINE SMOOTH",
"760 746 OFFCURVE",
"838 777 OFFCURVE",
"890 826 CURVE SMOOTH",
"942 874 OFFCURVE",
"968 942 OFFCURVE",
"968 1018 CURVE SMOOTH",
"968 1102 OFFCURVE",
"944 1172 OFFCURVE",
"892 1221 CURVE SMOOTH",
"840 1270 OFFCURVE",
"761 1298 OFFCURVE",
"650 1298 CURVE SMOOTH",
"361 1298 LINE"
);
},
{
closed = 1;
nodes = (
"698 -182 LINE SMOOTH",
"698 -235 OFFCURVE",
"686 -295 OFFCURVE",
"662 -352 CURVE SMOOTH",
"638 -409 OFFCURVE",
"601 -463 OFFCURVE",
"552 -503 CURVE",
"447 -431 LINE",
"498 -354 OFFCURVE",
"521 -277 OFFCURVE",
"521 -185 CURVE SMOOTH",
"521 -103 LINE",
"698 -103 LINE"
);
}
);
width = 1261;
}
);
unicode = 0156;
},
{
glyphname = S;
layers = (
{
layerId = "41219E28-2757-4AEA-BAE1-DB5F37EB0A1D";
name = Regular;
paths = (
{
closed = 1;
nodes = (
"945 436 OFFCURVE",
"927 486 OFFCURVE",
"875 530 CURVE SMOOTH",
"822 573 OFFCURVE",
"735 609 OFFCURVE",
"598 649 CURVE SMOOTH",
"454 690 OFFCURVE",
"336 742 OFFCURVE",
"254 811 CURVE SMOOTH",
"172 879 OFFCURVE",
"126 966 OFFCURVE",
"126 1079 CURVE SMOOTH",
"126 1192 OFFCURVE",
"175 1291 OFFCURVE",
"262 1363 CURVE SMOOTH",
"349 1434 OFFCURVE",
"472 1476 OFFCURVE",
"621 1476 CURVE SMOOTH",
"785 1476 OFFCURVE",
"914 1422 OFFCURVE",
"1002 1341 CURVE SMOOTH",
"1089 1260 OFFCURVE",
"1135 1148 OFFCURVE",
"1135 1035 CURVE",
"942 1035 LINE",
"942 1116 OFFCURVE",
"916 1187 OFFCURVE",
"863 1238 CURVE SMOOTH",
"810 1289 OFFCURVE",
"730 1318 OFFCURVE",
"621 1318 CURVE SMOOTH",
"518 1318 OFFCURVE",
"442 1293 OFFCURVE",
"393 1251 CURVE SMOOTH",
"344 1209 OFFCURVE",
"320 1150 OFFCURVE",
"320 1082 CURVE SMOOTH",
"320 1021 OFFCURVE",
"345 971 OFFCURVE",
"400 928 CURVE SMOOTH",
"455 885 OFFCURVE",
"540 850 OFFCURVE",
"660 817 CURVE SMOOTH",
"825 770 OFFCURVE",
"945 715 OFFCURVE",
"1023 643 CURVE SMOOTH",
"1101 571 OFFCURVE",
"1138 483 OFFCURVE",
"1138 370 CURVE SMOOTH",
"1138 251 OFFCURVE",
"1088 154 OFFCURVE",
"1000 86 CURVE SMOOTH",
"911 18 OFFCURVE",
"784 -20 OFFCURVE",
"631 -20 CURVE SMOOTH",
"542 -20 OFFCURVE",
"451 -3 OFFCURVE",
"369 30 CURVE SMOOTH",
"287 63 OFFCURVE",
"215 113 OFFCURVE",
"163 178 CURVE SMOOTH",
"111 243 OFFCURVE",
"80 325 OFFCURVE",
"80 422 CURVE",
"273 422 LINE",
"273 322 OFFCURVE",
"316 252 OFFCURVE",
"382 205 CURVE SMOOTH",
"448 158 OFFCURVE",
"536 137 OFFCURVE",
"631 137 CURVE SMOOTH",
"834 137 OFFCURVE",
"945 225 OFFCURVE",
"945 368 CURVE SMOOTH"
);
}
);
width = 1215;
}
);
leftKerningGroup = S;
unicode = 0053;
},
{
glyphname = Sacute;
layers = (
{
layerId = "41219E28-2757-4AEA-BAE1-DB5F37EB0A1D";
name = Regular;
paths = (
{
closed = 1;
nodes = (
"945 436 OFFCURVE",
"927 486 OFFCURVE",
"875 530 CURVE SMOOTH",
"822 573 OFFCURVE",
"735 609 OFFCURVE",
"598 649 CURVE SMOOTH",
"454 690 OFFCURVE",
"336 742 OFFCURVE",
"254 811 CURVE SMOOTH",
"172 879 OFFCURVE",
"126 966 OFFCURVE",
"126 1079 CURVE SMOOTH",
"126 1192 OFFCURVE",
"175 1291 OFFCURVE",
"262 1363 CURVE SMOOTH",
"349 1434 OFFCURVE",
"472 1476 OFFCURVE",
"621 1476 CURVE SMOOTH",
"785 1476 OFFCURVE",
"914 1422 OFFCURVE",
"1002 1341 CURVE SMOOTH",
"1089 1260 OFFCURVE",
"1135 1148 OFFCURVE",
"1135 1035 CURVE",
"942 1035 LINE",
"942 1116 OFFCURVE",
"916 1187 OFFCURVE",
"863 1238 CURVE SMOOTH",
"810 1289 OFFCURVE",
"730 1318 OFFCURVE",
"621 1318 CURVE SMOOTH",
"518 1318 OFFCURVE",
"442 1293 OFFCURVE",
"393 1251 CURVE SMOOTH",
"344 1209 OFFCURVE",
"320 1150 OFFCURVE",
"320 1082 CURVE SMOOTH",
"320 1021 OFFCURVE",
"345 971 OFFCURVE",
"400 928 CURVE SMOOTH",
"455 885 OFFCURVE",
"540 850 OFFCURVE",
"660 817 CURVE SMOOTH",
"825 770 OFFCURVE",
"945 715 OFFCURVE",
"1023 643 CURVE SMOOTH",
"1101 571 OFFCURVE",
"1138 483 OFFCURVE",
"1138 370 CURVE SMOOTH",
"1138 251 OFFCURVE",
"1088 154 OFFCURVE",
"1000 86 CURVE SMOOTH",
"911 18 OFFCURVE",
"784 -20 OFFCURVE",
"631 -20 CURVE SMOOTH",
"542 -20 OFFCURVE",
"451 -3 OFFCURVE",
"369 30 CURVE SMOOTH",
"287 63 OFFCURVE",
"215 113 OFFCURVE",
"163 178 CURVE SMOOTH",
"111 243 OFFCURVE",
"80 325 OFFCURVE",
"80 422 CURVE",
"273 422 LINE",
"273 322 OFFCURVE",
"316 252 OFFCURVE",
"382 205 CURVE SMOOTH",
"448 158 OFFCURVE",
"536 137 OFFCURVE",
"631 137 CURVE SMOOTH",
"834 137 OFFCURVE",
"945 225 OFFCURVE",
"945 368 CURVE SMOOTH"
);
},
{
closed = 1;
nodes = (
"713 1846 LINE",
"937 1846 LINE",
"669 1552 LINE",
"520 1552 LINE"
);
}
);
width = 1215;
}
);
leftKerningGroup = S;
unicode = 015A;
},
{
glyphname = Scaron;
layers = (
{
layerId = "41219E28-2757-4AEA-BAE1-DB5F37EB0A1D";
name = Regular;
paths = (
{
closed = 1;
nodes = (
"945 436 OFFCURVE",
"927 486 OFFCURVE",
"875 530 CURVE SMOOTH",
"822 573 OFFCURVE",
"735 609 OFFCURVE",
"598 649 CURVE SMOOTH",
"454 690 OFFCURVE",
"336 742 OFFCURVE",
"254 811 CURVE SMOOTH",
"172 879 OFFCURVE",
"126 966 OFFCURVE",
"126 1079 CURVE SMOOTH",
"126 1192 OFFCURVE",
"175 1291 OFFCURVE",
"262 1363 CURVE SMOOTH",
"349 1434 OFFCURVE",
"472 1476 OFFCURVE",
"621 1476 CURVE SMOOTH",
"785 1476 OFFCURVE",
"914 1422 OFFCURVE",
"1002 1341 CURVE SMOOTH",
"1089 1260 OFFCURVE",
"1135 1148 OFFCURVE",
"1135 1035 CURVE",
"942 1035 LINE",
"942 1116 OFFCURVE",
"916 1187 OFFCURVE",
"863 1238 CURVE SMOOTH",
"810 1289 OFFCURVE",
"730 1318 OFFCURVE",
"621 1318 CURVE SMOOTH",
"518 1318 OFFCURVE",
"442 1293 OFFCURVE",
"393 1251 CURVE SMOOTH",
"344 1209 OFFCURVE",
"320 1150 OFFCURVE",
"320 1082 CURVE SMOOTH",
"320 1021 OFFCURVE",
"345 971 OFFCURVE",
"400 928 CURVE SMOOTH",
"455 885 OFFCURVE",
"540 850 OFFCURVE",
"660 817 CURVE SMOOTH",
"825 770 OFFCURVE",
"945 715 OFFCURVE",
"1023 643 CURVE SMOOTH",
"1101 571 OFFCURVE",
"1138 483 OFFCURVE",
"1138 370 CURVE SMOOTH",
"1138 251 OFFCURVE",
"1088 154 OFFCURVE",
"1000 86 CURVE SMOOTH",
"911 18 OFFCURVE",
"784 -20 OFFCURVE",
"631 -20 CURVE SMOOTH",
"542 -20 OFFCURVE",
"451 -3 OFFCURVE",
"369 30 CURVE SMOOTH",
"287 63 OFFCURVE",
"215 113 OFFCURVE",
"163 178 CURVE SMOOTH",
"111 243 OFFCURVE",
"80 325 OFFCURVE",
"80 422 CURVE",
"273 422 LINE",
"273 322 OFFCURVE",
"316 252 OFFCURVE",
"382 205 CURVE SMOOTH",
"448 158 OFFCURVE",
"536 137 OFFCURVE",
"631 137 CURVE SMOOTH",
"834 137 OFFCURVE",
"945 225 OFFCURVE",
"945 368 CURVE SMOOTH"
);
},
{
closed = 1;
nodes = (
"621 1678 LINE",
"771 1848 LINE",
"931 1848 LINE",
"931 1838 LINE",
"677 1564 LINE",
"564 1564 LINE",
"313 1838 LINE",
"313 1848 LINE",
"470 1848 LINE"
);
}
);
width = 1215;
}
);
leftKerningGroup = S;
unicode = 0160;
},
{
glyphname = Scedilla;
layers = (
{
layerId = "41219E28-2757-4AEA-BAE1-DB5F37EB0A1D";
name = Regular;
paths = (
{
closed = 1;
nodes = (
"945 436 OFFCURVE",
"927 486 OFFCURVE",
"875 530 CURVE SMOOTH",
"822 573 OFFCURVE",
"735 609 OFFCURVE",
"598 649 CURVE SMOOTH",
"454 690 OFFCURVE",
"336 742 OFFCURVE",
"254 811 CURVE SMOOTH",
"172 879 OFFCURVE",
"126 966 OFFCURVE",
"126 1079 CURVE SMOOTH",
"126 1192 OFFCURVE",
"175 1291 OFFCURVE",
"262 1363 CURVE SMOOTH",
"349 1434 OFFCURVE",
"472 1476 OFFCURVE",
"621 1476 CURVE SMOOTH",
"785 1476 OFFCURVE",
"914 1422 OFFCURVE",
"1002 1341 CURVE SMOOTH",
"1089 1260 OFFCURVE",
"1135 1148 OFFCURVE",
"1135 1035 CURVE",
"942 1035 LINE",
"942 1116 OFFCURVE",
"916 1187 OFFCURVE",
"863 1238 CURVE SMOOTH",
"810 1289 OFFCURVE",
"730 1318 OFFCURVE",
"621 1318 CURVE SMOOTH",
"518 1318 OFFCURVE",
"442 1293 OFFCURVE",
"393 1251 CURVE SMOOTH",
"344 1209 OFFCURVE",
"320 1150 OFFCURVE",
"320 1082 CURVE SMOOTH",
"320 1021 OFFCURVE",
"345 971 OFFCURVE",
"400 928 CURVE SMOOTH",
"455 885 OFFCURVE",
"540 850 OFFCURVE",
"660 817 CURVE SMOOTH",
"825 770 OFFCURVE",
"945 715 OFFCURVE",
"1023 643 CURVE SMOOTH",
"1101 571 OFFCURVE",
"1138 483 OFFCURVE",
"1138 370 CURVE SMOOTH",
"1138 251 OFFCURVE",
"1088 154 OFFCURVE",
"1000 86 CURVE SMOOTH",
"911 18 OFFCURVE",
"784 -20 OFFCURVE",
"631 -20 CURVE SMOOTH",
"542 -20 OFFCURVE",
"451 -3 OFFCURVE",
"369 30 CURVE SMOOTH",
"287 63 OFFCURVE",
"215 113 OFFCURVE",
"163 178 CURVE SMOOTH",
"111 243 OFFCURVE",
"80 325 OFFCURVE",
"80 422 CURVE",
"273 422 LINE",
"273 322 OFFCURVE",
"316 252 OFFCURVE",
"382 205 CURVE SMOOTH",
"448 158 OFFCURVE",
"536 137 OFFCURVE",
"631 137 CURVE SMOOTH",
"834 137 OFFCURVE",
"945 225 OFFCURVE",
"945 368 CURVE SMOOTH"
);
},
{
closed = 1;
nodes = (
"700 0 LINE",
"688 -52 LINE",
"725 -59 OFFCURVE",
"764 -73 OFFCURVE",
"793 -100 CURVE SMOOTH",
"822 -128 OFFCURVE",
"841 -168 OFFCURVE",
"841 -225 CURVE SMOOTH",
"841 -288 OFFCURVE",
"815 -340 OFFCURVE",
"764 -377 CURVE SMOOTH",
"712 -414 OFFCURVE",
"637 -435 OFFCURVE",
"538 -435 CURVE",
"531 -328 LINE",
"576 -328 OFFCURVE",
"619 -321 OFFCURVE",
"649 -305 CURVE SMOOTH",
"679 -289 OFFCURVE",
"697 -264 OFFCURVE",
"697 -229 CURVE SMOOTH",
"697 -196 OFFCURVE",
"685 -174 OFFCURVE",
"659 -160 CURVE SMOOTH",
"633 -146 OFFCURVE",
"591 -139 OFFCURVE",
"535 -134 CURVE",
"567 0 LINE"
);
}
);
width = 1215;
}
);
leftKerningGroup = S;
unicode = 015E;
},
{
glyphname = Scircumflex;
layers = (
{
layerId = "41219E28-2757-4AEA-BAE1-DB5F37EB0A1D";
name = Regular;
paths = (
{
closed = 1;
nodes = (
"945 436 OFFCURVE",
"927 486 OFFCURVE",
"875 530 CURVE SMOOTH",
"822 573 OFFCURVE",
"735 609 OFFCURVE",
"598 649 CURVE SMOOTH",
"454 690 OFFCURVE",
"336 742 OFFCURVE",
"254 811 CURVE SMOOTH",
"172 879 OFFCURVE",
"126 966 OFFCURVE",
"126 1079 CURVE SMOOTH",
"126 1192 OFFCURVE",
"175 1291 OFFCURVE",
"262 1363 CURVE SMOOTH",
"349 1434 OFFCURVE",
"472 1476 OFFCURVE",
"621 1476 CURVE SMOOTH",
"785 1476 OFFCURVE",
"914 1422 OFFCURVE",
"1002 1341 CURVE SMOOTH",
"1089 1260 OFFCURVE",
"1135 1148 OFFCURVE",
"1135 1035 CURVE",
"942 1035 LINE",
"942 1116 OFFCURVE",
"916 1187 OFFCURVE",
"863 1238 CURVE SMOOTH",
"810 1289 OFFCURVE",
"730 1318 OFFCURVE",
"621 1318 CURVE SMOOTH",
"518 1318 OFFCURVE",
"442 1293 OFFCURVE",
"393 1251 CURVE SMOOTH",
"344 1209 OFFCURVE",
"320 1150 OFFCURVE",
"320 1082 CURVE SMOOTH",
"320 1021 OFFCURVE",
"345 971 OFFCURVE",
"400 928 CURVE SMOOTH",
"455 885 OFFCURVE",
"540 850 OFFCURVE",
"660 817 CURVE SMOOTH",
"825 770 OFFCURVE",
"945 715 OFFCURVE",
"1023 643 CURVE SMOOTH",
"1101 571 OFFCURVE",
"1138 483 OFFCURVE",
"1138 370 CURVE SMOOTH",
"1138 251 OFFCURVE",
"1088 154 OFFCURVE",
"1000 86 CURVE SMOOTH",
"911 18 OFFCURVE",
"784 -20 OFFCURVE",
"631 -20 CURVE SMOOTH",
"542 -20 OFFCURVE",
"451 -3 OFFCURVE",
"369 30 CURVE SMOOTH",
"287 63 OFFCURVE",
"215 113 OFFCURVE",
"163 178 CURVE SMOOTH",
"111 243 OFFCURVE",
"80 325 OFFCURVE",
"80 422 CURVE",
"273 422 LINE",
"273 322 OFFCURVE",
"316 252 OFFCURVE",
"382 205 CURVE SMOOTH",
"448 158 OFFCURVE",
"536 137 OFFCURVE",
"631 137 CURVE SMOOTH",
"834 137 OFFCURVE",
"945 225 OFFCURVE",
"945 368 CURVE SMOOTH"
);
},
{
closed = 1;
nodes = (
"925 1574 LINE",
"925 1564 LINE",
"772 1564 LINE",
"622 1734 LINE",
"473 1564 LINE",
"320 1564 LINE",
"320 1576 LINE",
"566 1848 LINE",
"678 1848 LINE"
);
}
);
width = 1215;
}
);
leftKerningGroup = S;
unicode = 015C;
},
{
glyphname = Scommaaccent;
layers = (
{
layerId = "41219E28-2757-4AEA-BAE1-DB5F37EB0A1D";
name = Regular;
paths = (
{
closed = 1;
nodes = (
"945 436 OFFCURVE",
"927 486 OFFCURVE",
"875 530 CURVE SMOOTH",
"822 573 OFFCURVE",
"735 609 OFFCURVE",
"598 649 CURVE SMOOTH",
"454 690 OFFCURVE",
"336 742 OFFCURVE",
"254 811 CURVE SMOOTH",
"172 879 OFFCURVE",
"126 966 OFFCURVE",
"126 1079 CURVE SMOOTH",
"126 1192 OFFCURVE",
"175 1291 OFFCURVE",
"262 1363 CURVE SMOOTH",
"349 1434 OFFCURVE",
"472 1476 OFFCURVE",
"621 1476 CURVE SMOOTH",
"785 1476 OFFCURVE",
"914 1422 OFFCURVE",
"1002 1341 CURVE SMOOTH",
"1089 1260 OFFCURVE",
"1135 1148 OFFCURVE",
"1135 1035 CURVE",
"942 1035 LINE",
"942 1116 OFFCURVE",
"916 1187 OFFCURVE",
"863 1238 CURVE SMOOTH",
"810 1289 OFFCURVE",
"730 1318 OFFCURVE",
"621 1318 CURVE SMOOTH",
"518 1318 OFFCURVE",
"442 1293 OFFCURVE",
"393 1251 CURVE SMOOTH",
"344 1209 OFFCURVE",
"320 1150 OFFCURVE",
"320 1082 CURVE SMOOTH",
"320 1021 OFFCURVE",
"345 971 OFFCURVE",
"400 928 CURVE SMOOTH",
"455 885 OFFCURVE",
"540 850 OFFCURVE",
"660 817 CURVE SMOOTH",
"825 770 OFFCURVE",
"945 715 OFFCURVE",
"1023 643 CURVE SMOOTH",
"1101 571 OFFCURVE",
"1138 483 OFFCURVE",
"1138 370 CURVE SMOOTH",
"1138 251 OFFCURVE",
"1088 154 OFFCURVE",
"1000 86 CURVE SMOOTH",
"911 18 OFFCURVE",
"784 -20 OFFCURVE",
"631 -20 CURVE SMOOTH",
"542 -20 OFFCURVE",
"451 -3 OFFCURVE",
"369 30 CURVE SMOOTH",
"287 63 OFFCURVE",
"215 113 OFFCURVE",
"163 178 CURVE SMOOTH",
"111 243 OFFCURVE",
"80 325 OFFCURVE",
"80 422 CURVE",
"273 422 LINE",
"273 322 OFFCURVE",
"316 252 OFFCURVE",
"382 205 CURVE SMOOTH",
"448 158 OFFCURVE",
"536 137 OFFCURVE",
"631 137 CURVE SMOOTH",
"834 137 OFFCURVE",
"945 225 OFFCURVE",
"945 368 CURVE SMOOTH"
);
},
{
closed = 1;
nodes = (
"716 -192 LINE SMOOTH",
"716 -245 OFFCURVE",
"704 -305 OFFCURVE",
"680 -362 CURVE SMOOTH",
"656 -419 OFFCURVE",
"619 -473 OFFCURVE",
"570 -513 CURVE",
"465 -441 LINE",
"516 -364 OFFCURVE",
"539 -287 OFFCURVE",
"539 -195 CURVE SMOOTH",
"539 -113 LINE",
"716 -113 LINE"
);
}
);
width = 1215;
}
);
leftKerningGroup = S;
unicode = 0218;
},
{
glyphname = T;
layers = (
{
layerId = "41219E28-2757-4AEA-BAE1-DB5F37EB0A1D";
name = Regular;
paths = (
{
closed = 1;
nodes = (
"1175 1298 LINE",
"707 1298 LINE",
"707 0 LINE",
"516 0 LINE",
"516 1298 LINE",
"49 1298 LINE",
"49 1456 LINE",
"1175 1456 LINE"
);
}
);
width = 1222;
}
);
leftKerningGroup = T;
rightKerningGroup = T;
unicode = 0054;
},
{
glyphname = Tbar;
layers = (
{
layerId = "41219E28-2757-4AEA-BAE1-DB5F37EB0A1D";
name = Regular;
paths = (
{
closed = 1;
nodes = (
"938 823 LINE",
"707 823 LINE",
"707 0 LINE",
"516 0 LINE",
"516 823 LINE",
"302 823 LINE",
"302 974 LINE",
"516 974 LINE",
"516 1298 LINE",
"49 1298 LINE",
"49 1456 LINE",
"1175 1456 LINE",
"1175 1298 LINE",
"707 1298 LINE",
"707 974 LINE",
"938 974 LINE"
);
}
);
width = 1222;
}
);
rightKerningGroup = T;
unicode = 0166;
},
{
glyphname = Tcaron;
layers = (
{
layerId = "41219E28-2757-4AEA-BAE1-DB5F37EB0A1D";
name = Regular;
paths = (
{
closed = 1;
nodes = (
"1175 1298 LINE",
"707 1298 LINE",
"707 0 LINE",
"516 0 LINE",
"516 1298 LINE",
"49 1298 LINE",
"49 1456 LINE",
"1175 1456 LINE"
);
},
{
closed = 1;
nodes = (
"610 1676 LINE",
"760 1846 LINE",
"920 1846 LINE",
"920 1836 LINE",
"666 1562 LINE",
"553 1562 LINE",
"302 1836 LINE",
"302 1846 LINE",
"459 1846 LINE"
);
}
);
width = 1222;
}
);
leftKerningGroup = T;
rightKerningGroup = T;
unicode = 0164;
},
{
glyphname = Tcedilla;
layers = (
{
layerId = "41219E28-2757-4AEA-BAE1-DB5F37EB0A1D";
name = Regular;
paths = (
{
closed = 1;
nodes = (
"1175 1298 LINE",
"707 1298 LINE",
"707 0 LINE",
"516 0 LINE",
"516 1298 LINE",
"49 1298 LINE",
"49 1456 LINE",
"1175 1456 LINE"
);
},
{
closed = 1;
nodes = (
"685 0 LINE",
"673 -52 LINE",
"710 -59 OFFCURVE",
"749 -73 OFFCURVE",
"778 -100 CURVE SMOOTH",
"807 -128 OFFCURVE",
"826 -168 OFFCURVE",
"826 -225 CURVE SMOOTH",
"826 -288 OFFCURVE",
"800 -340 OFFCURVE",
"749 -377 CURVE SMOOTH",
"697 -414 OFFCURVE",
"622 -435 OFFCURVE",
"523 -435 CURVE",
"516 -328 LINE",
"561 -328 OFFCURVE",
"604 -321 OFFCURVE",
"634 -305 CURVE SMOOTH",
"664 -289 OFFCURVE",
"682 -264 OFFCURVE",
"682 -229 CURVE SMOOTH",
"682 -196 OFFCURVE",
"670 -174 OFFCURVE",
"644 -160 CURVE SMOOTH",
"618 -146 OFFCURVE",
"576 -139 OFFCURVE",
"520 -134 CURVE",
"552 0 LINE"
);
}
);
width = 1222;
}
);
leftKerningGroup = T;
rightKerningGroup = T;
unicode = 0162;
},
{
glyphname = Tcommaaccent;
layers = (
{
layerId = "41219E28-2757-4AEA-BAE1-DB5F37EB0A1D";
name = Regular;
paths = (
{
closed = 1;
nodes = (
"1175 1298 LINE",
"707 1298 LINE",
"707 0 LINE",
"516 0 LINE",
"516 1298 LINE",
"49 1298 LINE",
"49 1456 LINE",
"1175 1456 LINE"
);
},
{
closed = 1;
nodes = (
"701 -192 LINE SMOOTH",
"701 -245 OFFCURVE",
"689 -305 OFFCURVE",
"665 -362 CURVE SMOOTH",
"641 -419 OFFCURVE",
"604 -473 OFFCURVE",
"555 -513 CURVE",
"450 -441 LINE",
"501 -364 OFFCURVE",
"524 -287 OFFCURVE",
"524 -195 CURVE SMOOTH",
"524 -113 LINE",
"701 -113 LINE"
);
}
);
width = 1222;
}
);
leftKerningGroup = T;
rightKerningGroup = T;
unicode = 021A;
},
{
glyphname = U;
layers = (
{
layerId = "41219E28-2757-4AEA-BAE1-DB5F37EB0A1D";
name = Regular;
paths = (
{
closed = 1;
nodes = (
"1194 1456 LINE",
"1194 470 LINE SMOOTH",
"1194 306 OFFCURVE",
"1132 183 OFFCURVE",
"1036 102 CURVE SMOOTH",
"939 21 OFFCURVE",
"806 -20 OFFCURVE",
"665 -20 CURVE SMOOTH",
"517 -20 OFFCURVE",
"386 21 OFFCURVE",
"292 102 CURVE SMOOTH",
"198 183 OFFCURVE",
"140 306 OFFCURVE",
"140 470 CURVE SMOOTH",
"140 1456 LINE",
"330 1456 LINE",
"330 470 LINE SMOOTH",
"330 357 OFFCURVE",
"364 274 OFFCURVE",
"423 219 CURVE SMOOTH",
"482 163 OFFCURVE",
"565 137 OFFCURVE",
"665 137 CURVE SMOOTH",
"766 137 OFFCURVE",
"850 163 OFFCURVE",
"909 219 CURVE SMOOTH",
"968 274 OFFCURVE",
"1001 357 OFFCURVE",
"1001 470 CURVE SMOOTH",
"1001 1456 LINE"
);
}
);
width = 1328;
}
);
leftKerningGroup = U;
rightKerningGroup = J;
unicode = 0055;
},
{
glyphname = Uacute;
layers = (
{
layerId = "41219E28-2757-4AEA-BAE1-DB5F37EB0A1D";
name = Regular;
paths = (
{
closed = 1;
nodes = (
"1194 1456 LINE",
"1194 470 LINE SMOOTH",
"1194 306 OFFCURVE",
"1132 183 OFFCURVE",
"1036 102 CURVE SMOOTH",
"939 21 OFFCURVE",
"806 -20 OFFCURVE",
"665 -20 CURVE SMOOTH",
"517 -20 OFFCURVE",
"386 21 OFFCURVE",
"292 102 CURVE SMOOTH",
"198 183 OFFCURVE",
"140 306 OFFCURVE",
"140 470 CURVE SMOOTH",
"140 1456 LINE",
"330 1456 LINE",
"330 470 LINE SMOOTH",
"330 357 OFFCURVE",
"364 274 OFFCURVE",
"423 219 CURVE SMOOTH",
"482 163 OFFCURVE",
"565 137 OFFCURVE",
"665 137 CURVE SMOOTH",
"766 137 OFFCURVE",
"850 163 OFFCURVE",
"909 219 CURVE SMOOTH",
"968 274 OFFCURVE",
"1001 357 OFFCURVE",
"1001 470 CURVE SMOOTH",
"1001 1456 LINE"
);
},
{
closed = 1;
nodes = (
"758 1844 LINE",
"982 1844 LINE",
"714 1550 LINE",
"565 1550 LINE"
);
}
);
width = 1328;
}
);
leftKerningGroup = U;
rightKerningGroup = J;
unicode = 00DA;
},
{
glyphname = Ubreve;
layers = (
{
layerId = "41219E28-2757-4AEA-BAE1-DB5F37EB0A1D";
name = Regular;
paths = (
{
closed = 1;
nodes = (
"1194 1456 LINE",
"1194 470 LINE SMOOTH",
"1194 306 OFFCURVE",
"1132 183 OFFCURVE",
"1036 102 CURVE SMOOTH",
"939 21 OFFCURVE",
"806 -20 OFFCURVE",
"665 -20 CURVE SMOOTH",
"517 -20 OFFCURVE",
"386 21 OFFCURVE",
"292 102 CURVE SMOOTH",
"198 183 OFFCURVE",
"140 306 OFFCURVE",
"140 470 CURVE SMOOTH",
"140 1456 LINE",
"330 1456 LINE",
"330 470 LINE SMOOTH",
"330 357 OFFCURVE",
"364 274 OFFCURVE",
"423 219 CURVE SMOOTH",
"482 163 OFFCURVE",
"565 137 OFFCURVE",
"665 137 CURVE SMOOTH",
"766 137 OFFCURVE",
"850 163 OFFCURVE",
"909 219 CURVE SMOOTH",
"968 274 OFFCURVE",
"1001 357 OFFCURVE",
"1001 470 CURVE SMOOTH",
"1001 1456 LINE"
);
},
{
closed = 1;
nodes = (
"967 1806 LINE",
"967 1727 OFFCURVE",
"939 1661 OFFCURVE",
"887 1614 CURVE SMOOTH",
"835 1566 OFFCURVE",
"760 1538 OFFCURVE",
"668 1538 CURVE SMOOTH",
"576 1538 OFFCURVE",
"501 1566 OFFCURVE",
"449 1614 CURVE SMOOTH",
"397 1661 OFFCURVE",
"368 1727 OFFCURVE",
"368 1806 CURVE",
"519 1806 LINE",
"519 1766 OFFCURVE",
"529 1729 OFFCURVE",
"553 1702 CURVE",
"576 1674 OFFCURVE",
"613 1657 OFFCURVE",
"668 1657 CURVE SMOOTH",
"721 1657 OFFCURVE",
"759 1674 OFFCURVE",
"783 1702 CURVE SMOOTH",
"807 1729 OFFCURVE",
"817 1766 OFFCURVE",
"817 1806 CURVE"
);
}
);
width = 1328;
}
);
leftKerningGroup = U;
rightKerningGroup = J;
unicode = 016C;
},
{
glyphname = Ucircumflex;
layers = (
{
layerId = "41219E28-2757-4AEA-BAE1-DB5F37EB0A1D";
name = Regular;
paths = (
{
closed = 1;
nodes = (
"1194 1456 LINE",
"1194 470 LINE SMOOTH",
"1194 306 OFFCURVE",
"1132 183 OFFCURVE",
"1036 102 CURVE SMOOTH",
"939 21 OFFCURVE",
"806 -20 OFFCURVE",
"665 -20 CURVE SMOOTH",
"517 -20 OFFCURVE",
"386 21 OFFCURVE",
"292 102 CURVE SMOOTH",
"198 183 OFFCURVE",
"140 306 OFFCURVE",
"140 470 CURVE SMOOTH",
"140 1456 LINE",
"330 1456 LINE",
"330 470 LINE SMOOTH",
"330 357 OFFCURVE",
"364 274 OFFCURVE",
"423 219 CURVE SMOOTH",
"482 163 OFFCURVE",
"565 137 OFFCURVE",
"665 137 CURVE SMOOTH",
"766 137 OFFCURVE",
"850 163 OFFCURVE",
"909 219 CURVE SMOOTH",
"968 274 OFFCURVE",
"1001 357 OFFCURVE",
"1001 470 CURVE SMOOTH",
"1001 1456 LINE"
);
},
{
closed = 1;
nodes = (
"970 1572 LINE",
"970 1562 LINE",
"817 1562 LINE",
"667 1732 LINE",
"518 1562 LINE",
"365 1562 LINE",
"365 1574 LINE",
"611 1846 LINE",
"723 1846 LINE"
);
}
);
width = 1328;
}
);
leftKerningGroup = U;
rightKerningGroup = J;
unicode = 00DB;
},
{
glyphname = Udieresis;
layers = (
{
layerId = "41219E28-2757-4AEA-BAE1-DB5F37EB0A1D";
name = Regular;
paths = (
{
closed = 1;
nodes = (
"1194 1456 LINE",
"1194 470 LINE SMOOTH",
"1194 306 OFFCURVE",
"1132 183 OFFCURVE",
"1036 102 CURVE SMOOTH",
"939 21 OFFCURVE",
"806 -20 OFFCURVE",
"665 -20 CURVE SMOOTH",
"517 -20 OFFCURVE",
"386 21 OFFCURVE",
"292 102 CURVE SMOOTH",
"198 183 OFFCURVE",
"140 306 OFFCURVE",
"140 470 CURVE SMOOTH",
"140 1456 LINE",
"330 1456 LINE",
"330 470 LINE SMOOTH",
"330 357 OFFCURVE",
"364 274 OFFCURVE",
"423 219 CURVE SMOOTH",
"482 163 OFFCURVE",
"565 137 OFFCURVE",
"665 137 CURVE SMOOTH",
"766 137 OFFCURVE",
"850 163 OFFCURVE",
"909 219 CURVE SMOOTH",
"968 274 OFFCURVE",
"1001 357 OFFCURVE",
"1001 470 CURVE SMOOTH",
"1001 1456 LINE"
);
},
{
closed = 1;
nodes = (
"346 1741 OFFCURVE",
"383 1787 OFFCURVE",
"455 1787 CURVE SMOOTH",
"527 1787 OFFCURVE",
"565 1741 OFFCURVE",
"565 1681 CURVE SMOOTH",
"565 1621 OFFCURVE",
"527 1576 OFFCURVE",
"455 1576 CURVE SMOOTH",
"383 1576 OFFCURVE",
"346 1621 OFFCURVE",
"346 1681 CURVE SMOOTH"
);
},
{
closed = 1;
nodes = (
"776 1739 OFFCURVE",
"813 1786 OFFCURVE",
"885 1786 CURVE SMOOTH",
"957 1786 OFFCURVE",
"995 1739 OFFCURVE",
"995 1679 CURVE SMOOTH",
"995 1619 OFFCURVE",
"957 1574 OFFCURVE",
"885 1574 CURVE SMOOTH",
"813 1574 OFFCURVE",
"776 1619 OFFCURVE",
"776 1679 CURVE SMOOTH"
);
}
);
width = 1328;
}
);
leftKerningGroup = U;
rightKerningGroup = J;
unicode = 00DC;
},
{
glyphname = Udotbelow;
layers = (
{
layerId = "41219E28-2757-4AEA-BAE1-DB5F37EB0A1D";
name = Regular;
paths = (
{
closed = 1;
nodes = (
"1194 1456 LINE",
"1194 470 LINE SMOOTH",
"1194 306 OFFCURVE",
"1132 183 OFFCURVE",
"1036 102 CURVE SMOOTH",
"939 21 OFFCURVE",
"806 -20 OFFCURVE",
"665 -20 CURVE SMOOTH",
"517 -20 OFFCURVE",
"386 21 OFFCURVE",
"292 102 CURVE SMOOTH",
"198 183 OFFCURVE",
"140 306 OFFCURVE",
"140 470 CURVE SMOOTH",
"140 1456 LINE",
"330 1456 LINE",
"330 470 LINE SMOOTH",
"330 357 OFFCURVE",
"364 274 OFFCURVE",
"423 219 CURVE SMOOTH",
"482 163 OFFCURVE",
"565 137 OFFCURVE",
"665 137 CURVE SMOOTH",
"766 137 OFFCURVE",
"850 163 OFFCURVE",
"909 219 CURVE SMOOTH",
"968 274 OFFCURVE",
"1001 357 OFFCURVE",
"1001 470 CURVE SMOOTH",
"1001 1456 LINE"
);
},
{
closed = 1;
nodes = (
"550 -185 OFFCURVE",
"587 -138 OFFCURVE",
"659 -138 CURVE SMOOTH",
"731 -138 OFFCURVE",
"769 -185 OFFCURVE",
"769 -245 CURVE SMOOTH",
"769 -305 OFFCURVE",
"731 -350 OFFCURVE",
"659 -350 CURVE SMOOTH",
"587 -350 OFFCURVE",
"550 -305 OFFCURVE",
"550 -245 CURVE SMOOTH"
);
}
);
width = 1328;
}
);
leftKerningGroup = U;
rightKerningGroup = J;
unicode = 1EE4;
},
{
glyphname = Ugrave;
layers = (
{
layerId = "41219E28-2757-4AEA-BAE1-DB5F37EB0A1D";
name = Regular;
paths = (
{
closed = 1;
nodes = (
"1194 1456 LINE",
"1194 470 LINE SMOOTH",
"1194 306 OFFCURVE",
"1132 183 OFFCURVE",
"1036 102 CURVE SMOOTH",
"939 21 OFFCURVE",
"806 -20 OFFCURVE",
"665 -20 CURVE SMOOTH",
"517 -20 OFFCURVE",
"386 21 OFFCURVE",
"292 102 CURVE SMOOTH",
"198 183 OFFCURVE",
"140 306 OFFCURVE",
"140 470 CURVE SMOOTH",
"140 1456 LINE",
"330 1456 LINE",
"330 470 LINE SMOOTH",
"330 357 OFFCURVE",
"364 274 OFFCURVE",
"423 219 CURVE SMOOTH",
"482 163 OFFCURVE",
"565 137 OFFCURVE",
"665 137 CURVE SMOOTH",
"766 137 OFFCURVE",
"850 163 OFFCURVE",
"909 219 CURVE SMOOTH",
"968 274 OFFCURVE",
"1001 357 OFFCURVE",
"1001 470 CURVE SMOOTH",
"1001 1456 LINE"
);
},
{
closed = 1;
nodes = (
"773 1550 LINE",
"614 1550 LINE",
"356 1844 LINE",
"579 1844 LINE"
);
}
);
width = 1328;
}
);
leftKerningGroup = U;
rightKerningGroup = J;
unicode = 00D9;
},
{
glyphname = Uhookabove;
layers = (
{
layerId = "41219E28-2757-4AEA-BAE1-DB5F37EB0A1D";
name = Regular;
paths = (
{
closed = 1;
nodes = (
"1194 1456 LINE",
"1194 470 LINE SMOOTH",
"1194 306 OFFCURVE",
"1132 183 OFFCURVE",
"1036 102 CURVE SMOOTH",
"939 21 OFFCURVE",
"806 -20 OFFCURVE",
"665 -20 CURVE SMOOTH",
"517 -20 OFFCURVE",
"386 21 OFFCURVE",
"292 102 CURVE SMOOTH",
"198 183 OFFCURVE",
"140 306 OFFCURVE",
"140 470 CURVE SMOOTH",
"140 1456 LINE",
"330 1456 LINE",
"330 470 LINE SMOOTH",
"330 357 OFFCURVE",
"364 274 OFFCURVE",
"423 219 CURVE SMOOTH",
"482 163 OFFCURVE",
"565 137 OFFCURVE",
"665 137 CURVE SMOOTH",
"766 137 OFFCURVE",
"850 163 OFFCURVE",
"909 219 CURVE SMOOTH",
"968 274 OFFCURVE",
"1001 357 OFFCURVE",
"1001 470 CURVE SMOOTH",
"1001 1456 LINE"
);
},
{
closed = 1;
nodes = (
"605 1567 LINE",
"604 1720 LINE",
"654 1723 OFFCURVE",
"691 1730 OFFCURVE",
"714 1740 CURVE SMOOTH",
"737 1750 OFFCURVE",
"749 1768 OFFCURVE",
"749 1794 CURVE SMOOTH",
"749 1822 OFFCURVE",
"731 1842 OFFCURVE",
"701 1854 CURVE SMOOTH",
"671 1866 OFFCURVE",
"628 1872 OFFCURVE",
"583 1872 CURVE",
"590 1978 LINE",
"789 1978 OFFCURVE",
"893 1903 OFFCURVE",
"893 1790 CURVE SMOOTH",
"893 1739 OFFCURVE",
"873 1704 OFFCURVE",
"845 1680 CURVE SMOOTH",
"816 1656 OFFCURVE",
"777 1643 OFFCURVE",
"738 1638 CURVE",
"737 1567 LINE"
);
}
);
width = 1328;
}
);
leftKerningGroup = U;
rightKerningGroup = J;
unicode = 1EE6;
},
{
glyphname = Uhorn;
layers = (
{
layerId = "41219E28-2757-4AEA-BAE1-DB5F37EB0A1D";
name = Regular;
paths = (
{
closed = 1;
nodes = (
"1194 1456 LINE",
"1194 1244 LINE",
"1277 1252 OFFCURVE",
"1330 1281 OFFCURVE",
"1363 1330 CURVE SMOOTH",
"1395 1378 OFFCURVE",
"1407 1449 OFFCURVE",
"1407 1538 CURVE",
"1565 1538 LINE",
"1565 1405 OFFCURVE",
"1539 1300 OFFCURVE",
"1480 1228 CURVE SMOOTH",
"1421 1156 OFFCURVE",
"1327 1115 OFFCURVE",
"1194 1108 CURVE",
"1194 470 LINE SMOOTH",
"1194 306 OFFCURVE",
"1132 183 OFFCURVE",
"1036 102 CURVE SMOOTH",
"939 21 OFFCURVE",
"806 -20 OFFCURVE",
"665 -20 CURVE SMOOTH",
"517 -20 OFFCURVE",
"386 21 OFFCURVE",
"292 102 CURVE SMOOTH",
"198 183 OFFCURVE",
"140 306 OFFCURVE",
"140 470 CURVE SMOOTH",
"140 1456 LINE",
"330 1456 LINE",
"330 470 LINE SMOOTH",
"330 357 OFFCURVE",
"364 274 OFFCURVE",
"423 219 CURVE SMOOTH",
"482 163 OFFCURVE",
"565 137 OFFCURVE",
"665 137 CURVE SMOOTH",
"766 137 OFFCURVE",
"850 163 OFFCURVE",
"909 219 CURVE SMOOTH",
"968 274 OFFCURVE",
"1001 357 OFFCURVE",
"1001 470 CURVE SMOOTH",
"1001 1456 LINE"
);
}
);
width = 1424;
}
);
unicode = 01AF;
},
{
glyphname = Uhornacute;
layers = (
{
layerId = "41219E28-2757-4AEA-BAE1-DB5F37EB0A1D";
name = Regular;
paths = (
{
closed = 1;
nodes = (
"1194 1456 LINE",
"1194 1244 LINE",
"1277 1252 OFFCURVE",
"1330 1281 OFFCURVE",
"1363 1330 CURVE SMOOTH",
"1395 1378 OFFCURVE",
"1407 1449 OFFCURVE",
"1407 1538 CURVE",
"1565 1538 LINE",
"1565 1405 OFFCURVE",
"1539 1300 OFFCURVE",
"1480 1228 CURVE SMOOTH",
"1421 1156 OFFCURVE",
"1327 1115 OFFCURVE",
"1194 1108 CURVE",
"1194 470 LINE SMOOTH",
"1194 306 OFFCURVE",
"1132 183 OFFCURVE",
"1036 102 CURVE SMOOTH",
"939 21 OFFCURVE",
"806 -20 OFFCURVE",
"665 -20 CURVE SMOOTH",
"517 -20 OFFCURVE",
"386 21 OFFCURVE",
"292 102 CURVE SMOOTH",
"198 183 OFFCURVE",
"140 306 OFFCURVE",
"140 470 CURVE SMOOTH",
"140 1456 LINE",
"330 1456 LINE",
"330 470 LINE SMOOTH",
"330 357 OFFCURVE",
"364 274 OFFCURVE",
"423 219 CURVE SMOOTH",
"482 163 OFFCURVE",
"565 137 OFFCURVE",
"665 137 CURVE SMOOTH",
"766 137 OFFCURVE",
"850 163 OFFCURVE",
"909 219 CURVE SMOOTH",
"968 274 OFFCURVE",
"1001 357 OFFCURVE",
"1001 470 CURVE SMOOTH",
"1001 1456 LINE"
);
},
{
closed = 1;
nodes = (
"785 1856 LINE",
"1009 1856 LINE",
"741 1562 LINE",
"592 1562 LINE"
);
}
);
width = 1424;
}
);
unicode = 1EE8;
},
{
glyphname = Uhorndotbelow;
layers = (
{
layerId = "41219E28-2757-4AEA-BAE1-DB5F37EB0A1D";
name = Regular;
paths = (
{
closed = 1;
nodes = (
"1194 1456 LINE",
"1194 1244 LINE",
"1277 1252 OFFCURVE",
"1330 1281 OFFCURVE",
"1363 1330 CURVE SMOOTH",
"1395 1378 OFFCURVE",
"1407 1449 OFFCURVE",
"1407 1538 CURVE",
"1565 1538 LINE",
"1565 1405 OFFCURVE",
"1539 1300 OFFCURVE",
"1480 1228 CURVE SMOOTH",
"1421 1156 OFFCURVE",
"1327 1115 OFFCURVE",
"1194 1108 CURVE",
"1194 470 LINE SMOOTH",
"1194 306 OFFCURVE",
"1132 183 OFFCURVE",
"1036 102 CURVE SMOOTH",
"939 21 OFFCURVE",
"806 -20 OFFCURVE",
"665 -20 CURVE SMOOTH",
"517 -20 OFFCURVE",
"386 21 OFFCURVE",
"292 102 CURVE SMOOTH",
"198 183 OFFCURVE",
"140 306 OFFCURVE",
"140 470 CURVE SMOOTH",
"140 1456 LINE",
"330 1456 LINE",
"330 470 LINE SMOOTH",
"330 357 OFFCURVE",
"364 274 OFFCURVE",
"423 219 CURVE SMOOTH",
"482 163 OFFCURVE",
"565 137 OFFCURVE",
"665 137 CURVE SMOOTH",
"766 137 OFFCURVE",
"850 163 OFFCURVE",
"909 219 CURVE SMOOTH",
"968 274 OFFCURVE",
"1001 357 OFFCURVE",
"1001 470 CURVE SMOOTH",
"1001 1456 LINE"
);
},
{
closed = 1;
nodes = (
"577 -193 OFFCURVE",
"614 -146 OFFCURVE",
"686 -146 CURVE SMOOTH",
"758 -146 OFFCURVE",
"796 -193 OFFCURVE",
"796 -253 CURVE SMOOTH",
"796 -313 OFFCURVE",
"758 -358 OFFCURVE",
"686 -358 CURVE SMOOTH",
"614 -358 OFFCURVE",
"577 -313 OFFCURVE",
"577 -253 CURVE SMOOTH"
);
}
);
width = 1424;
}
);
unicode = 1EF0;
},
{
glyphname = Uhorngrave;
layers = (
{
layerId = "41219E28-2757-4AEA-BAE1-DB5F37EB0A1D";
name = Regular;
paths = (
{
closed = 1;
nodes = (
"1194 1456 LINE",
"1194 1244 LINE",
"1277 1252 OFFCURVE",
"1330 1281 OFFCURVE",
"1363 1330 CURVE SMOOTH",
"1395 1378 OFFCURVE",
"1407 1449 OFFCURVE",
"1407 1538 CURVE",
"1565 1538 LINE",
"1565 1405 OFFCURVE",
"1539 1300 OFFCURVE",
"1480 1228 CURVE SMOOTH",
"1421 1156 OFFCURVE",
"1327 1115 OFFCURVE",
"1194 1108 CURVE",
"1194 470 LINE SMOOTH",
"1194 306 OFFCURVE",
"1132 183 OFFCURVE",
"1036 102 CURVE SMOOTH",
"939 21 OFFCURVE",
"806 -20 OFFCURVE",
"665 -20 CURVE SMOOTH",
"517 -20 OFFCURVE",
"386 21 OFFCURVE",
"292 102 CURVE SMOOTH",
"198 183 OFFCURVE",
"140 306 OFFCURVE",
"140 470 CURVE SMOOTH",
"140 1456 LINE",
"330 1456 LINE",
"330 470 LINE SMOOTH",
"330 357 OFFCURVE",
"364 274 OFFCURVE",
"423 219 CURVE SMOOTH",
"482 163 OFFCURVE",
"565 137 OFFCURVE",
"665 137 CURVE SMOOTH",
"766 137 OFFCURVE",
"850 163 OFFCURVE",
"909 219 CURVE SMOOTH",
"968 274 OFFCURVE",
"1001 357 OFFCURVE",
"1001 470 CURVE SMOOTH",
"1001 1456 LINE"
);
},
{
closed = 1;
nodes = (
"800 1562 LINE",
"641 1562 LINE",
"383 1856 LINE",
"606 1856 LINE"
);
}
);
width = 1424;
}
);
unicode = 1EEA;
},
{
glyphname = Uhornhookabove;
layers = (
{
layerId = "41219E28-2757-4AEA-BAE1-DB5F37EB0A1D";
name = Regular;
paths = (
{
closed = 1;
nodes = (
"1194 1456 LINE",
"1194 1244 LINE",
"1277 1252 OFFCURVE",
"1330 1281 OFFCURVE",
"1363 1330 CURVE SMOOTH",
"1395 1378 OFFCURVE",
"1407 1449 OFFCURVE",
"1407 1538 CURVE",
"1565 1538 LINE",
"1565 1405 OFFCURVE",
"1539 1300 OFFCURVE",
"1480 1228 CURVE SMOOTH",
"1421 1156 OFFCURVE",
"1327 1115 OFFCURVE",
"1194 1108 CURVE",
"1194 470 LINE SMOOTH",
"1194 306 OFFCURVE",
"1132 183 OFFCURVE",
"1036 102 CURVE SMOOTH",
"939 21 OFFCURVE",
"806 -20 OFFCURVE",
"665 -20 CURVE SMOOTH",
"517 -20 OFFCURVE",
"386 21 OFFCURVE",
"292 102 CURVE SMOOTH",
"198 183 OFFCURVE",
"140 306 OFFCURVE",
"140 470 CURVE SMOOTH",
"140 1456 LINE",
"330 1456 LINE",
"330 470 LINE SMOOTH",
"330 357 OFFCURVE",
"364 274 OFFCURVE",
"423 219 CURVE SMOOTH",
"482 163 OFFCURVE",
"565 137 OFFCURVE",
"665 137 CURVE SMOOTH",
"766 137 OFFCURVE",
"850 163 OFFCURVE",
"909 219 CURVE SMOOTH",
"968 274 OFFCURVE",
"1001 357 OFFCURVE",
"1001 470 CURVE SMOOTH",
"1001 1456 LINE"
);
},
{
closed = 1;
nodes = (
"632 1579 LINE",
"631 1732 LINE",
"681 1735 OFFCURVE",
"718 1742 OFFCURVE",
"741 1752 CURVE SMOOTH",
"764 1762 OFFCURVE",
"776 1780 OFFCURVE",
"776 1806 CURVE SMOOTH",
"776 1834 OFFCURVE",
"758 1854 OFFCURVE",
"728 1866 CURVE SMOOTH",
"698 1878 OFFCURVE",
"655 1884 OFFCURVE",
"610 1884 CURVE",
"617 1990 LINE",
"816 1990 OFFCURVE",
"920 1915 OFFCURVE",
"920 1802 CURVE SMOOTH",
"920 1751 OFFCURVE",
"900 1716 OFFCURVE",
"872 1692 CURVE SMOOTH",
"843 1668 OFFCURVE",
"804 1655 OFFCURVE",
"765 1650 CURVE",
"764 1579 LINE"
);
}
);
width = 1424;
}
);
unicode = 1EEC;
},
{
glyphname = Uhorntilde;
layers = (
{
layerId = "41219E28-2757-4AEA-BAE1-DB5F37EB0A1D";
name = Regular;
paths = (
{
closed = 1;
nodes = (
"1194 1456 LINE",
"1194 1244 LINE",
"1277 1252 OFFCURVE",
"1330 1281 OFFCURVE",
"1363 1330 CURVE SMOOTH",
"1395 1378 OFFCURVE",
"1407 1449 OFFCURVE",
"1407 1538 CURVE",
"1565 1538 LINE",
"1565 1405 OFFCURVE",
"1539 1300 OFFCURVE",
"1480 1228 CURVE SMOOTH",
"1421 1156 OFFCURVE",
"1327 1115 OFFCURVE",
"1194 1108 CURVE",
"1194 470 LINE SMOOTH",
"1194 306 OFFCURVE",
"1132 183 OFFCURVE",
"1036 102 CURVE SMOOTH",
"939 21 OFFCURVE",
"806 -20 OFFCURVE",
"665 -20 CURVE SMOOTH",
"517 -20 OFFCURVE",
"386 21 OFFCURVE",
"292 102 CURVE SMOOTH",
"198 183 OFFCURVE",
"140 306 OFFCURVE",
"140 470 CURVE SMOOTH",
"140 1456 LINE",
"330 1456 LINE",
"330 470 LINE SMOOTH",
"330 357 OFFCURVE",
"364 274 OFFCURVE",
"423 219 CURVE SMOOTH",
"482 163 OFFCURVE",
"565 137 OFFCURVE",
"665 137 CURVE SMOOTH",
"766 137 OFFCURVE",
"850 163 OFFCURVE",
"909 219 CURVE SMOOTH",
"968 274 OFFCURVE",
"1001 357 OFFCURVE",
"1001 470 CURVE SMOOTH",
"1001 1456 LINE"
);
},
{
closed = 1;
nodes = (
"1049 1826 LINE",
"1049 1753 OFFCURVE",
"1026 1692 OFFCURVE",
"987 1650 CURVE SMOOTH",
"947 1608 OFFCURVE",
"894 1584 OFFCURVE",
"834 1584 CURVE SMOOTH",
"766 1584 OFFCURVE",
"726 1608 OFFCURVE",
"690 1632 CURVE SMOOTH",
"654 1655 OFFCURVE",
"621 1679 OFFCURVE",
"565 1679 CURVE SMOOTH",
"537 1679 OFFCURVE",
"513 1667 OFFCURVE",
"495 1647 CURVE SMOOTH",
"477 1627 OFFCURVE",
"466 1599 OFFCURVE",
"466 1567 CURVE",
"342 1574 LINE",
"342 1647 OFFCURVE",
"366 1709 OFFCURVE",
"404 1753 CURVE SMOOTH",
"442 1796 OFFCURVE",
"496 1821 OFFCURVE",
"556 1821 CURVE SMOOTH",
"613 1821 OFFCURVE",
"654 1797 OFFCURVE",
"694 1773 CURVE SMOOTH",
"733 1749 OFFCURVE",
"772 1725 OFFCURVE",
"825 1725 CURVE SMOOTH",
"853 1725 OFFCURVE",
"878 1737 OFFCURVE",
"896 1758 CURVE SMOOTH",
"914 1778 OFFCURVE",
"925 1806 OFFCURVE",
"925 1838 CURVE"
);
}
);
width = 1424;
}
);
unicode = 1EEE;
},
{
glyphname = Uhungarumlaut;
layers = (
{
layerId = "41219E28-2757-4AEA-BAE1-DB5F37EB0A1D";
name = Regular;
paths = (
{
closed = 1;
nodes = (
"1194 1456 LINE",
"1194 470 LINE SMOOTH",
"1194 306 OFFCURVE",
"1132 183 OFFCURVE",
"1036 102 CURVE SMOOTH",
"939 21 OFFCURVE",
"806 -20 OFFCURVE",
"665 -20 CURVE SMOOTH",
"517 -20 OFFCURVE",
"386 21 OFFCURVE",
"292 102 CURVE SMOOTH",
"198 183 OFFCURVE",
"140 306 OFFCURVE",
"140 470 CURVE SMOOTH",
"140 1456 LINE",
"330 1456 LINE",
"330 470 LINE SMOOTH",
"330 357 OFFCURVE",
"364 274 OFFCURVE",
"423 219 CURVE SMOOTH",
"482 163 OFFCURVE",
"565 137 OFFCURVE",
"665 137 CURVE SMOOTH",
"766 137 OFFCURVE",
"850 163 OFFCURVE",
"909 219 CURVE SMOOTH",
"968 274 OFFCURVE",
"1001 357 OFFCURVE",
"1001 470 CURVE SMOOTH",
"1001 1456 LINE"
);
},
{
closed = 1;
nodes = (
"929 1845 LINE",
"1136 1845 LINE",
"867 1542 LINE",
"698 1542 LINE"
);
},
{
closed = 1;
nodes = (
"589 1845 LINE",
"786 1845 LINE",
"568 1542 LINE",
"418 1542 LINE"
);
}
);
width = 1328;
}
);
leftKerningGroup = U;
rightKerningGroup = J;
unicode = 0170;
},
{
glyphname = Umacron;
layers = (
{
layerId = "41219E28-2757-4AEA-BAE1-DB5F37EB0A1D";
name = Regular;
paths = (
{
closed = 1;
nodes = (
"1194 1456 LINE",
"1194 470 LINE SMOOTH",
"1194 306 OFFCURVE",
"1132 183 OFFCURVE",
"1036 102 CURVE SMOOTH",
"939 21 OFFCURVE",
"806 -20 OFFCURVE",
"665 -20 CURVE SMOOTH",
"517 -20 OFFCURVE",
"386 21 OFFCURVE",
"292 102 CURVE SMOOTH",
"198 183 OFFCURVE",
"140 306 OFFCURVE",
"140 470 CURVE SMOOTH",
"140 1456 LINE",
"330 1456 LINE",
"330 470 LINE SMOOTH",
"330 357 OFFCURVE",
"364 274 OFFCURVE",
"423 219 CURVE SMOOTH",
"482 163 OFFCURVE",
"565 137 OFFCURVE",
"665 137 CURVE SMOOTH",
"766 137 OFFCURVE",
"850 163 OFFCURVE",
"909 219 CURVE SMOOTH",
"968 274 OFFCURVE",
"1001 357 OFFCURVE",
"1001 470 CURVE SMOOTH",
"1001 1456 LINE"
);
},
{
closed = 1;
nodes = (
"1028 1631 LINE",
"314 1631 LINE",
"314 1774 LINE",
"1028 1774 LINE"
);
}
);
width = 1328;
}
);
leftKerningGroup = U;
rightKerningGroup = J;
unicode = 016A;
},
{
glyphname = Uogonek;
layers = (
{
layerId = "41219E28-2757-4AEA-BAE1-DB5F37EB0A1D";
name = Regular;
paths = (
{
closed = 1;
nodes = (
"1194 1456 LINE",
"1194 470 LINE SMOOTH",
"1194 359 OFFCURVE",
"1166 268 OFFCURVE",
"1119 195 CURVE SMOOTH",
"1071 122 OFFCURVE",
"1004 68 OFFCURVE",
"924 32 CURVE",
"884 3 OFFCURVE",
"845 -29 OFFCURVE",
"817 -64 CURVE SMOOTH",
"788 -100 OFFCURVE",
"769 -137 OFFCURVE",
"769 -178 CURVE SMOOTH",
"769 -222 OFFCURVE",
"788 -250 OFFCURVE",
"847 -250 CURVE SMOOTH",
"891 -250 OFFCURVE",
"926 -235 OFFCURVE",
"947 -224 CURVE",
"960 -345 LINE",
"928 -365 OFFCURVE",
"880 -389 OFFCURVE",
"800 -389 CURVE SMOOTH",
"745 -389 OFFCURVE",
"698 -373 OFFCURVE",
"664 -341 CURVE SMOOTH",
"630 -309 OFFCURVE",
"608 -262 OFFCURVE",
"608 -199 CURVE SMOOTH",
"608 -138 OFFCURVE",
"632 -76 OFFCURVE",
"687 -19 CURVE",
"684 -19 OFFCURVE",
"680 -19 OFFCURVE",
"676 -19 CURVE",
"672 -20 OFFCURVE",
"668 -20 OFFCURVE",
"665 -20 CURVE SMOOTH",
"517 -20 OFFCURVE",
"386 21 OFFCURVE",
"292 102 CURVE SMOOTH",
"198 183 OFFCURVE",
"140 306 OFFCURVE",
"140 470 CURVE SMOOTH",
"140 1456 LINE",
"330 1456 LINE",
"330 470 LINE SMOOTH",
"330 357 OFFCURVE",
"364 274 OFFCURVE",
"423 219 CURVE SMOOTH",
"482 163 OFFCURVE",
"565 137 OFFCURVE",
"665 137 CURVE SMOOTH",
"766 137 OFFCURVE",
"850 163 OFFCURVE",
"909 219 CURVE SMOOTH",
"968 274 OFFCURVE",
"1001 357 OFFCURVE",
"1001 470 CURVE SMOOTH",
"1001 1456 LINE"
);
}
);
width = 1328;
}
);
leftKerningGroup = U;
rightKerningGroup = J;
unicode = 0172;
},
{
glyphname = Uring;
layers = (
{
layerId = "41219E28-2757-4AEA-BAE1-DB5F37EB0A1D";
name = Regular;
paths = (
{
closed = 1;
nodes = (
"1194 1456 LINE",
"1194 470 LINE SMOOTH",
"1194 306 OFFCURVE",
"1132 183 OFFCURVE",
"1036 102 CURVE SMOOTH",
"939 21 OFFCURVE",
"806 -20 OFFCURVE",
"665 -20 CURVE SMOOTH",
"517 -20 OFFCURVE",
"386 21 OFFCURVE",
"292 102 CURVE SMOOTH",
"198 183 OFFCURVE",
"140 306 OFFCURVE",
"140 470 CURVE SMOOTH",
"140 1456 LINE",
"330 1456 LINE",
"330 470 LINE SMOOTH",
"330 357 OFFCURVE",
"364 274 OFFCURVE",
"423 219 CURVE SMOOTH",
"482 163 OFFCURVE",
"565 137 OFFCURVE",
"665 137 CURVE SMOOTH",
"766 137 OFFCURVE",
"850 163 OFFCURVE",
"909 219 CURVE SMOOTH",
"968 274 OFFCURVE",
"1001 357 OFFCURVE",
"1001 470 CURVE SMOOTH",
"1001 1456 LINE"
);
},
{
closed = 1;
nodes = (
"452 1786 OFFCURVE",
"475 1839 OFFCURVE",
"514 1877 CURVE SMOOTH",
"553 1915 OFFCURVE",
"606 1937 OFFCURVE",
"667 1937 CURVE SMOOTH",
"727 1937 OFFCURVE",
"781 1915 OFFCURVE",
"820 1877 CURVE SMOOTH",
"859 1839 OFFCURVE",
"882 1786 OFFCURVE",
"882 1729 CURVE SMOOTH",
"882 1670 OFFCURVE",
"859 1620 OFFCURVE",
"820 1584 CURVE SMOOTH",
"781 1547 OFFCURVE",
"727 1525 OFFCURVE",
"667 1525 CURVE SMOOTH",
"606 1525 OFFCURVE",
"553 1547 OFFCURVE",
"514 1584 CURVE SMOOTH",
"475 1620 OFFCURVE",
"452 1670 OFFCURVE",
"452 1729 CURVE SMOOTH"
);
},
{
closed = 1;
nodes = (
"551 1700 OFFCURVE",
"563 1670 OFFCURVE",
"584 1649 CURVE SMOOTH",
"604 1628 OFFCURVE",
"632 1614 OFFCURVE",
"667 1614 CURVE SMOOTH",
"700 1614 OFFCURVE",
"730 1628 OFFCURVE",
"751 1649 CURVE SMOOTH",
"771 1669 OFFCURVE",
"783 1698 OFFCURVE",
"783 1729 CURVE SMOOTH",
"783 1761 OFFCURVE",
"771 1790 OFFCURVE",
"751 1812 CURVE SMOOTH",
"730 1834 OFFCURVE",
"700 1847 OFFCURVE",
"667 1847 CURVE SMOOTH",
"632 1847 OFFCURVE",
"604 1834 OFFCURVE",
"584 1812 CURVE SMOOTH",
"563 1790 OFFCURVE",
"551 1761 OFFCURVE",
"551 1729 CURVE SMOOTH"
);
}
);
width = 1328;
}
);
leftKerningGroup = U;
rightKerningGroup = J;
unicode = 016E;
},
{
glyphname = Utilde;
layers = (
{
layerId = "41219E28-2757-4AEA-BAE1-DB5F37EB0A1D";
name = Regular;
paths = (
{
closed = 1;
nodes = (
"1194 1456 LINE",
"1194 470 LINE SMOOTH",
"1194 306 OFFCURVE",
"1132 183 OFFCURVE",
"1036 102 CURVE SMOOTH",
"939 21 OFFCURVE",
"806 -20 OFFCURVE",
"665 -20 CURVE SMOOTH",
"517 -20 OFFCURVE",
"386 21 OFFCURVE",
"292 102 CURVE SMOOTH",
"198 183 OFFCURVE",
"140 306 OFFCURVE",
"140 470 CURVE SMOOTH",
"140 1456 LINE",
"330 1456 LINE",
"330 470 LINE SMOOTH",
"330 357 OFFCURVE",
"364 274 OFFCURVE",
"423 219 CURVE SMOOTH",
"482 163 OFFCURVE",
"565 137 OFFCURVE",
"665 137 CURVE SMOOTH",
"766 137 OFFCURVE",
"850 163 OFFCURVE",
"909 219 CURVE SMOOTH",
"968 274 OFFCURVE",
"1001 357 OFFCURVE",
"1001 470 CURVE SMOOTH",
"1001 1456 LINE"
);
},
{
closed = 1;
nodes = (
"1022 1814 LINE",
"1022 1741 OFFCURVE",
"999 1680 OFFCURVE",
"960 1638 CURVE SMOOTH",
"920 1596 OFFCURVE",
"867 1572 OFFCURVE",
"807 1572 CURVE SMOOTH",
"739 1572 OFFCURVE",
"699 1596 OFFCURVE",
"663 1620 CURVE SMOOTH",
"627 1643 OFFCURVE",
"594 1667 OFFCURVE",
"538 1667 CURVE SMOOTH",
"510 1667 OFFCURVE",
"486 1655 OFFCURVE",
"468 1635 CURVE SMOOTH",
"450 1615 OFFCURVE",
"439 1587 OFFCURVE",
"439 1555 CURVE",
"315 1562 LINE",
"315 1635 OFFCURVE",
"339 1697 OFFCURVE",
"377 1741 CURVE SMOOTH",
"415 1784 OFFCURVE",
"469 1809 OFFCURVE",
"529 1809 CURVE SMOOTH",
"586 1809 OFFCURVE",
"627 1785 OFFCURVE",
"667 1761 CURVE SMOOTH",
"706 1737 OFFCURVE",
"745 1713 OFFCURVE",
"798 1713 CURVE SMOOTH",
"826 1713 OFFCURVE",
"851 1725 OFFCURVE",
"869 1746 CURVE SMOOTH",
"887 1766 OFFCURVE",
"898 1794 OFFCURVE",
"898 1826 CURVE"
);
}
);
width = 1328;
}
);
leftKerningGroup = U;
rightKerningGroup = J;
unicode = 0168;
},
{
glyphname = V;
layers = (
{
layerId = "41219E28-2757-4AEA-BAE1-DB5F37EB0A1D";
name = Regular;
paths = (
{
closed = 1;
nodes = (
"651 255 LINE",
"1067 1456 LINE",
"1277 1456 LINE",
"737 0 LINE",
"567 0 LINE",
"28 1456 LINE",
"237 1456 LINE"
);
}
);
width = 1303;
}
);
leftKerningGroup = V;
rightKerningGroup = V;
unicode = 0056;
},
{
glyphname = W;
layers = (
{
layerId = "41219E28-2757-4AEA-BAE1-DB5F37EB0A1D";
name = Regular;
paths = (
{
closed = 1;
nodes = (
"483 459 LINE",
"511 267 LINE",
"552 440 LINE",
"840 1456 LINE",
"1002 1456 LINE",
"1283 440 LINE",
"1323 264 LINE",
"1354 460 LINE",
"1580 1456 LINE",
"1773 1456 LINE",
"1420 0 LINE",
"1245 0 LINE",
"945 1061 LINE",
"922 1172 LINE",
"899 1061 LINE",
"588 0 LINE",
"413 0 LINE",
"61 1456 LINE",
"253 1456 LINE"
);
}
);
width = 1817;
}
);
leftKerningGroup = W;
rightKerningGroup = W;
unicode = 0057;
},
{
glyphname = Wacute;
layers = (
{
layerId = "41219E28-2757-4AEA-BAE1-DB5F37EB0A1D";
name = Regular;
paths = (
{
closed = 1;
nodes = (
"483 459 LINE",
"511 267 LINE",
"552 440 LINE",
"840 1456 LINE",
"1002 1456 LINE",
"1283 440 LINE",
"1323 264 LINE",
"1354 460 LINE",
"1580 1456 LINE",
"1773 1456 LINE",
"1420 0 LINE",
"1245 0 LINE",
"945 1061 LINE",
"922 1172 LINE",
"899 1061 LINE",
"588 0 LINE",
"413 0 LINE",
"61 1456 LINE",
"253 1456 LINE"
);
},
{
closed = 1;
nodes = (
"1015 1844 LINE",
"1239 1844 LINE",
"971 1550 LINE",
"822 1550 LINE"
);
}
);
width = 1817;
}
);
leftKerningGroup = W;
rightKerningGroup = W;
unicode = 1E82;
},
{
glyphname = Wcircumflex;
layers = (
{
layerId = "41219E28-2757-4AEA-BAE1-DB5F37EB0A1D";
name = Regular;
paths = (
{
closed = 1;
nodes = (
"483 459 LINE",
"511 267 LINE",
"552 440 LINE",
"840 1456 LINE",
"1002 1456 LINE",
"1283 440 LINE",
"1323 264 LINE",
"1354 460 LINE",
"1580 1456 LINE",
"1773 1456 LINE",
"1420 0 LINE",
"1245 0 LINE",
"945 1061 LINE",
"922 1172 LINE",
"899 1061 LINE",
"588 0 LINE",
"413 0 LINE",
"61 1456 LINE",
"253 1456 LINE"
);
},
{
closed = 1;
nodes = (
"1227 1572 LINE",
"1227 1562 LINE",
"1074 1562 LINE",
"924 1732 LINE",
"775 1562 LINE",
"622 1562 LINE",
"622 1574 LINE",
"868 1846 LINE",
"980 1846 LINE"
);
}
);
width = 1817;
}
);
leftKerningGroup = W;
rightKerningGroup = W;
unicode = 0174;
},
{
glyphname = Wdieresis;
layers = (
{
layerId = "41219E28-2757-4AEA-BAE1-DB5F37EB0A1D";
name = Regular;
paths = (
{
closed = 1;
nodes = (
"483 459 LINE",
"511 267 LINE",
"552 440 LINE",
"840 1456 LINE",
"1002 1456 LINE",
"1283 440 LINE",
"1323 264 LINE",
"1354 460 LINE",
"1580 1456 LINE",
"1773 1456 LINE",
"1420 0 LINE",
"1245 0 LINE",
"945 1061 LINE",
"922 1172 LINE",
"899 1061 LINE",
"588 0 LINE",
"413 0 LINE",
"61 1456 LINE",
"253 1456 LINE"
);
},
{
closed = 1;
nodes = (
"603 1741 OFFCURVE",
"640 1787 OFFCURVE",
"712 1787 CURVE SMOOTH",
"784 1787 OFFCURVE",
"822 1741 OFFCURVE",
"822 1681 CURVE SMOOTH",
"822 1621 OFFCURVE",
"784 1576 OFFCURVE",
"712 1576 CURVE SMOOTH",
"640 1576 OFFCURVE",
"603 1621 OFFCURVE",
"603 1681 CURVE SMOOTH"
);
},
{
closed = 1;
nodes = (
"1033 1739 OFFCURVE",
"1070 1786 OFFCURVE",
"1142 1786 CURVE SMOOTH",
"1214 1786 OFFCURVE",
"1252 1739 OFFCURVE",
"1252 1679 CURVE SMOOTH",
"1252 1619 OFFCURVE",
"1214 1574 OFFCURVE",
"1142 1574 CURVE SMOOTH",
"1070 1574 OFFCURVE",
"1033 1619 OFFCURVE",
"1033 1679 CURVE SMOOTH"
);
}
);
width = 1817;
}
);
leftKerningGroup = W;
rightKerningGroup = W;
unicode = 1E84;
},
{
glyphname = Wgrave;
layers = (
{
layerId = "41219E28-2757-4AEA-BAE1-DB5F37EB0A1D";
name = Regular;
paths = (
{
closed = 1;
nodes = (
"483 459 LINE",
"511 267 LINE",
"552 440 LINE",
"840 1456 LINE",
"1002 1456 LINE",
"1283 440 LINE",
"1323 264 LINE",
"1354 460 LINE",
"1580 1456 LINE",
"1773 1456 LINE",
"1420 0 LINE",
"1245 0 LINE",
"945 1061 LINE",
"922 1172 LINE",
"899 1061 LINE",
"588 0 LINE",
"413 0 LINE",
"61 1456 LINE",
"253 1456 LINE"
);
},
{
closed = 1;
nodes = (
"1030 1550 LINE",
"871 1550 LINE",
"613 1844 LINE",
"836 1844 LINE"
);
}
);
width = 1817;
}
);
leftKerningGroup = W;
rightKerningGroup = W;
unicode = 1E80;
},
{
glyphname = X;
layers = (
{
layerId = "41219E28-2757-4AEA-BAE1-DB5F37EB0A1D";
name = Regular;
paths = (
{
closed = 1;
nodes = (
"644 898 LINE",
"993 1456 LINE",
"1219 1456 LINE",
"759 734 LINE",
"1230 0 LINE",
"1002 0 LINE",
"644 568 LINE",
"284 0 LINE",
"57 0 LINE",
"529 734 LINE",
"68 1456 LINE",
"293 1456 LINE"
);
}
);
width = 1284;
}
);
leftKerningGroup = X;
rightKerningGroup = X;
unicode = 0058;
},
{
glyphname = Y;
layers = (
{
layerId = "41219E28-2757-4AEA-BAE1-DB5F37EB0A1D";
name = Regular;
paths = (
{
closed = 1;
nodes = (
"613 725 LINE",
"993 1456 LINE",
"1211 1456 LINE",
"709 543 LINE",
"709 0 LINE",
"517 0 LINE",
"517 543 LINE",
"15 1456 LINE",
"235 1456 LINE"
);
}
);
width = 1230;
}
);
leftKerningGroup = Y;
rightKerningGroup = Y;
unicode = 0059;
},
{
glyphname = Yacute;
layers = (
{
layerId = "41219E28-2757-4AEA-BAE1-DB5F37EB0A1D";
name = Regular;
paths = (
{
closed = 1;
nodes = (
"613 725 LINE",
"993 1456 LINE",
"1211 1456 LINE",
"709 543 LINE",
"709 0 LINE",
"517 0 LINE",
"517 543 LINE",
"15 1456 LINE",
"235 1456 LINE"
);
},
{
closed = 1;
nodes = (
"708 1844 LINE",
"932 1844 LINE",
"664 1550 LINE",
"515 1550 LINE"
);
}
);
width = 1230;
}
);
leftKerningGroup = Y;
rightKerningGroup = Y;
unicode = 00DD;
},
{
glyphname = Ycircumflex;
layers = (
{
layerId = "41219E28-2757-4AEA-BAE1-DB5F37EB0A1D";
name = Regular;
paths = (
{
closed = 1;
nodes = (
"613 725 LINE",
"993 1456 LINE",
"1211 1456 LINE",
"709 543 LINE",
"709 0 LINE",
"517 0 LINE",
"517 543 LINE",
"15 1456 LINE",
"235 1456 LINE"
);
},
{
closed = 1;
nodes = (
"920 1572 LINE",
"920 1562 LINE",
"767 1562 LINE",
"617 1732 LINE",
"468 1562 LINE",
"315 1562 LINE",
"315 1574 LINE",
"561 1846 LINE",
"673 1846 LINE"
);
}
);
width = 1230;
}
);
leftKerningGroup = Y;
rightKerningGroup = Y;
unicode = 0176;
},
{
glyphname = Ydieresis;
layers = (
{
layerId = "41219E28-2757-4AEA-BAE1-DB5F37EB0A1D";
name = Regular;
paths = (
{
closed = 1;
nodes = (
"613 725 LINE",
"993 1456 LINE",
"1211 1456 LINE",
"709 543 LINE",
"709 0 LINE",
"517 0 LINE",
"517 543 LINE",
"15 1456 LINE",
"235 1456 LINE"
);
},
{
closed = 1;
nodes = (
"296 1741 OFFCURVE",
"333 1787 OFFCURVE",
"405 1787 CURVE SMOOTH",
"477 1787 OFFCURVE",
"515 1741 OFFCURVE",
"515 1681 CURVE SMOOTH",
"515 1621 OFFCURVE",
"477 1576 OFFCURVE",
"405 1576 CURVE SMOOTH",
"333 1576 OFFCURVE",
"296 1621 OFFCURVE",
"296 1681 CURVE SMOOTH"
);
},
{
closed = 1;
nodes = (
"726 1739 OFFCURVE",
"763 1786 OFFCURVE",
"835 1786 CURVE SMOOTH",
"907 1786 OFFCURVE",
"945 1739 OFFCURVE",
"945 1679 CURVE SMOOTH",
"945 1619 OFFCURVE",
"907 1574 OFFCURVE",
"835 1574 CURVE SMOOTH",
"763 1574 OFFCURVE",
"726 1619 OFFCURVE",
"726 1679 CURVE SMOOTH"
);
}
);
width = 1230;
}
);
leftKerningGroup = Y;
rightKerningGroup = Y;
unicode = 0178;
},
{
glyphname = Ydotbelow;
layers = (
{
layerId = "41219E28-2757-4AEA-BAE1-DB5F37EB0A1D";
name = Regular;
paths = (
{
closed = 1;
nodes = (
"613 725 LINE",
"993 1456 LINE",
"1211 1456 LINE",
"709 543 LINE",
"709 0 LINE",
"517 0 LINE",
"517 543 LINE",
"15 1456 LINE",
"235 1456 LINE"
);
},
{
closed = 1;
nodes = (
"499 -185 OFFCURVE",
"536 -138 OFFCURVE",
"608 -138 CURVE SMOOTH",
"680 -138 OFFCURVE",
"718 -185 OFFCURVE",
"718 -245 CURVE SMOOTH",
"718 -305 OFFCURVE",
"680 -350 OFFCURVE",
"608 -350 CURVE SMOOTH",
"536 -350 OFFCURVE",
"499 -305 OFFCURVE",
"499 -245 CURVE SMOOTH"
);
}
);
width = 1230;
}
);
leftKerningGroup = Y;
rightKerningGroup = Y;
unicode = 1EF4;
},
{
glyphname = Ygrave;
layers = (
{
layerId = "41219E28-2757-4AEA-BAE1-DB5F37EB0A1D";
name = Regular;
paths = (
{
closed = 1;
nodes = (
"613 725 LINE",
"993 1456 LINE",
"1211 1456 LINE",
"709 543 LINE",
"709 0 LINE",
"517 0 LINE",
"517 543 LINE",
"15 1456 LINE",
"235 1456 LINE"
);
},
{
closed = 1;
nodes = (
"723 1550 LINE",
"564 1550 LINE",
"306 1844 LINE",
"529 1844 LINE"
);
}
);
width = 1230;
}
);
leftKerningGroup = Y;
rightKerningGroup = Y;
unicode = 1EF2;
},
{
glyphname = Yhookabove;
layers = (
{
layerId = "41219E28-2757-4AEA-BAE1-DB5F37EB0A1D";
name = Regular;
paths = (
{
closed = 1;
nodes = (
"613 725 LINE",
"993 1456 LINE",
"1211 1456 LINE",
"709 543 LINE",
"709 0 LINE",
"517 0 LINE",
"517 543 LINE",
"15 1456 LINE",
"235 1456 LINE"
);
},
{
closed = 1;
nodes = (
"555 1567 LINE",
"554 1720 LINE",
"604 1723 OFFCURVE",
"641 1730 OFFCURVE",
"664 1740 CURVE SMOOTH",
"687 1750 OFFCURVE",
"699 1768 OFFCURVE",
"699 1794 CURVE SMOOTH",
"699 1822 OFFCURVE",
"681 1842 OFFCURVE",
"651 1854 CURVE SMOOTH",
"621 1866 OFFCURVE",
"578 1872 OFFCURVE",
"533 1872 CURVE",
"540 1978 LINE",
"739 1978 OFFCURVE",
"843 1903 OFFCURVE",
"843 1790 CURVE SMOOTH",
"843 1739 OFFCURVE",
"823 1704 OFFCURVE",
"795 1680 CURVE SMOOTH",
"766 1656 OFFCURVE",
"727 1643 OFFCURVE",
"688 1638 CURVE",
"687 1567 LINE"
);
}
);
width = 1230;
}
);
leftKerningGroup = Y;
rightKerningGroup = Y;
unicode = 1EF6;
},
{
glyphname = Ytilde;
layers = (
{
layerId = "41219E28-2757-4AEA-BAE1-DB5F37EB0A1D";
name = Regular;
paths = (
{
closed = 1;
nodes = (
"613 725 LINE",
"993 1456 LINE",
"1211 1456 LINE",
"709 543 LINE",
"709 0 LINE",
"517 0 LINE",
"517 543 LINE",
"15 1456 LINE",
"235 1456 LINE"
);
},
{
closed = 1;
nodes = (
"972 1814 LINE",
"972 1741 OFFCURVE",
"949 1680 OFFCURVE",
"910 1638 CURVE SMOOTH",
"870 1596 OFFCURVE",
"817 1572 OFFCURVE",
"757 1572 CURVE SMOOTH",
"689 1572 OFFCURVE",
"649 1596 OFFCURVE",
"613 1620 CURVE SMOOTH",
"577 1643 OFFCURVE",
"544 1667 OFFCURVE",
"488 1667 CURVE SMOOTH",
"460 1667 OFFCURVE",
"436 1655 OFFCURVE",
"418 1635 CURVE SMOOTH",
"400 1615 OFFCURVE",
"389 1587 OFFCURVE",
"389 1555 CURVE",
"265 1562 LINE",
"265 1635 OFFCURVE",
"289 1697 OFFCURVE",
"327 1741 CURVE SMOOTH",
"365 1784 OFFCURVE",
"419 1809 OFFCURVE",
"479 1809 CURVE SMOOTH",
"536 1809 OFFCURVE",
"577 1785 OFFCURVE",
"617 1761 CURVE SMOOTH",
"656 1737 OFFCURVE",
"695 1713 OFFCURVE",
"748 1713 CURVE SMOOTH",
"776 1713 OFFCURVE",
"801 1725 OFFCURVE",
"819 1746 CURVE SMOOTH",
"837 1766 OFFCURVE",
"848 1794 OFFCURVE",
"848 1826 CURVE"
);
}
);
width = 1230;
}
);
leftKerningGroup = Y;
rightKerningGroup = Y;
unicode = 1EF8;
},
{
glyphname = Z;
layers = (
{
layerId = "41219E28-2757-4AEA-BAE1-DB5F37EB0A1D";
name = Regular;
paths = (
{
closed = 1;
nodes = (
"313 157 LINE",
"1146 157 LINE",
"1146 0 LINE",
"86 0 LINE",
"86 144 LINE",
"884 1298 LINE",
"99 1298 LINE",
"99 1456 LINE",
"1114 1456 LINE",
"1114 1315 LINE"
);
}
);
width = 1226;
}
);
leftKerningGroup = Z;
rightKerningGroup = Z;
unicode = 005A;
},
{
glyphname = Zacute;
layers = (
{
layerId = "41219E28-2757-4AEA-BAE1-DB5F37EB0A1D";
name = Regular;
paths = (
{
closed = 1;
nodes = (
"313 157 LINE",
"1146 157 LINE",
"1146 0 LINE",
"86 0 LINE",
"86 144 LINE",
"884 1298 LINE",
"99 1298 LINE",
"99 1456 LINE",
"1114 1456 LINE",
"1114 1315 LINE"
);
},
{
closed = 1;
nodes = (
"707 1844 LINE",
"931 1844 LINE",
"663 1550 LINE",
"514 1550 LINE"
);
}
);
width = 1226;
}
);
leftKerningGroup = Z;
rightKerningGroup = Z;
unicode = 0179;
},
{
glyphname = Zcaron;
layers = (
{
layerId = "41219E28-2757-4AEA-BAE1-DB5F37EB0A1D";
name = Regular;
paths = (
{
closed = 1;
nodes = (
"313 157 LINE",
"1146 157 LINE",
"1146 0 LINE",
"86 0 LINE",
"86 144 LINE",
"884 1298 LINE",
"99 1298 LINE",
"99 1456 LINE",
"1114 1456 LINE",
"1114 1315 LINE"
);
},
{
closed = 1;
nodes = (
"615 1676 LINE",
"765 1846 LINE",
"925 1846 LINE",
"925 1836 LINE",
"671 1562 LINE",
"558 1562 LINE",
"307 1836 LINE",
"307 1846 LINE",
"464 1846 LINE"
);
}
);
width = 1226;
}
);
leftKerningGroup = Z;
rightKerningGroup = Z;
unicode = 017D;
},
{
glyphname = Zdotaccent;
layers = (
{
layerId = "41219E28-2757-4AEA-BAE1-DB5F37EB0A1D";
name = Regular;
paths = (
{
closed = 1;
nodes = (
"313 157 LINE",
"1146 157 LINE",
"1146 0 LINE",
"86 0 LINE",
"86 144 LINE",
"884 1298 LINE",
"99 1298 LINE",
"99 1456 LINE",
"1114 1456 LINE",
"1114 1315 LINE"
);
},
{
closed = 1;
nodes = (
"508 1737 OFFCURVE",
"545 1784 OFFCURVE",
"617 1784 CURVE SMOOTH",
"689 1784 OFFCURVE",
"727 1737 OFFCURVE",
"727 1677 CURVE SMOOTH",
"727 1617 OFFCURVE",
"689 1572 OFFCURVE",
"617 1572 CURVE SMOOTH",
"545 1572 OFFCURVE",
"508 1617 OFFCURVE",
"508 1677 CURVE SMOOTH"
);
}
);
width = 1226;
}
);
leftKerningGroup = Z;
rightKerningGroup = Z;
unicode = 017B;
},
